<?xml version="1.0" encoding="UTF-8" standalone="no"?>
<!DOCTYPE svg PUBLIC "-//W3C//DTD SVG 1.1//EN"
 "http://www.w3.org/Graphics/SVG/1.1/DTD/svg11.dtd">
<!-- Generated by graphviz version 12.2.1 (20241206.2353)
 -->
<!-- Title: dependencies Pages: 1 -->
<svg width="541pt" height="367pt"
 viewBox="0.00 0.00 541.25 367.34" xmlns="http://www.w3.org/2000/svg" xmlns:xlink="http://www.w3.org/1999/xlink">
<g id="graph0" class="graph" transform="scale(1 1) rotate(0) translate(4 363.34)">
<title>dependencies</title>
<polygon fill="white" stroke="none" points="-4,4 -4,-363.34 537.25,-363.34 537.25,4 -4,4"/>
<text text-anchor="middle" x="266.62" y="-342.04" font-family="Helvetica,sans-Serif" font-size="14.00">Package Dependency Graph</text>
<!-- config -->
<g id="node1" class="node">
<title>config</title>
<polygon fill="#d9eaf4" stroke="#0b3954" points="440.12,-198 437.12,-202 416.12,-202 413.12,-198 386.12,-198 386.12,-162 440.12,-162 440.12,-198"/>
<text text-anchor="middle" x="413.12" y="-176.12" font-family="Helvetica,sans-Serif" font-size="10.00">config</text>
</g>
<!-- utils -->
<g id="node10" class="node">
<title>utils</title>
<polygon fill="#d9eaf4" stroke="#0b3954" points="533.25,-175 530.25,-179 509.25,-179 506.25,-175 479.25,-175 479.25,-139 533.25,-139 533.25,-175"/>
<text text-anchor="middle" x="506.25" y="-153.12" font-family="Helvetica,sans-Serif" font-size="10.00">utils</text>
</g>
<!-- config&#45;&gt;utils -->
<g id="edge1" class="edge">
<title>config&#45;&gt;utils</title>
<path fill="none" stroke="#7d8597" d="M440.48,-173.35C449.08,-171.18 458.79,-168.73 468.03,-166.4"/>
<polygon fill="#7d8597" stroke="#7d8597" points="468.65,-169.85 477.48,-164.01 466.93,-163.06 468.65,-169.85"/>
</g>
<!-- data -->
<g id="node2" class="node">
<title>data</title>
<polygon fill="#d9eaf4" stroke="#0b3954" points="338.62,-175 335.62,-179 314.62,-179 311.62,-175 284.62,-175 284.62,-139 338.62,-139 338.62,-175"/>
<text text-anchor="middle" x="311.62" y="-153.12" font-family="Helvetica,sans-Serif" font-size="10.00">data</text>
</g>
<!-- data&#45;&gt;config -->
<g id="edge2" class="edge">
<title>data&#45;&gt;config</title>
<path fill="none" stroke="#7d8597" d="M339.03,-163.1C350.02,-165.64 362.98,-168.64 374.92,-171.4"/>
<polygon fill="#7d8597" stroke="#7d8597" points="373.94,-174.77 384.47,-173.61 375.51,-167.94 373.94,-174.77"/>
</g>
<!-- data&#45;&gt;utils -->
<g id="edge3" class="edge">
<title>data&#45;&gt;utils</title>
<path fill="none" stroke="#7d8597" d="M339.01,-155.14C352.21,-154.31 368.44,-153.41 383,-153 409.77,-152.24 416.49,-152.14 443.25,-153 451.15,-153.25 459.6,-153.69 467.64,-154.18"/>
<polygon fill="#7d8597" stroke="#7d8597" points="467.3,-157.67 477.51,-154.83 467.76,-150.68 467.3,-157.67"/>
</g>
<!-- defaults -->
<g id="node3" class="node">
<title>defaults</title>
<path fill="#f4d35e" stroke="#7f6000" d="M228.25,-36C228.25,-36 198.25,-36 198.25,-36 192.25,-36 186.25,-30 186.25,-24 186.25,-24 186.25,-12 186.25,-12 186.25,-6 192.25,0 198.25,0 198.25,0 228.25,0 228.25,0 234.25,0 240.25,-6 240.25,-12 240.25,-12 240.25,-24 240.25,-24 240.25,-30 234.25,-36 228.25,-36"/>
<text text-anchor="middle" x="213.25" y="-14.12" font-family="Helvetica,sans-Serif" font-size="10.00">defaults</text>
</g>
<!-- defaults&#45;&gt;config -->
<g id="edge4" class="edge">
<title>defaults&#45;&gt;config</title>
<path fill="none" stroke="#7d8597" d="M240.5,-16.29C269.5,-15.78 316.16,-19.24 347,-43 381.4,-69.51 398.51,-118.73 406.33,-150.39"/>
<polygon fill="#7d8597" stroke="#7d8597" points="402.91,-151.13 408.55,-160.1 409.73,-149.58 402.91,-151.13"/>
</g>
<!-- environment -->
<g id="node4" class="node">
<title>environment</title>
<polygon fill="#d9eaf4" stroke="#0b3954" points="346.25,-121 343.25,-125 322.25,-125 319.25,-121 277,-121 277,-85 346.25,-85 346.25,-121"/>
<text text-anchor="middle" x="311.62" y="-99.12" font-family="Helvetica,sans-Serif" font-size="10.00">environment</text>
</g>
<!-- environment&#45;&gt;config -->
<g id="edge5" class="edge">
<title>environment&#45;&gt;config</title>
<path fill="none" stroke="#7d8597" d="M336.46,-121.44C349.38,-131.44 365.54,-143.95 379.6,-154.83"/>
<polygon fill="#7d8597" stroke="#7d8597" points="377.24,-157.43 387.29,-160.78 381.52,-151.89 377.24,-157.43"/>
</g>
<!-- evaluation -->
<g id="node5" class="node">
<title>evaluation</title>
<polygon fill="#d9eaf4" stroke="#0b3954" points="443.25,-321 440.25,-325 419.25,-325 416.25,-321 383,-321 383,-285 443.25,-285 443.25,-321"/>
<text text-anchor="middle" x="413.12" y="-299.12" font-family="Helvetica,sans-Serif" font-size="10.00">evaluation</text>
</g>
<!-- main -->
<g id="node6" class="node">
<title>main</title>
<path fill="#f4d35e" stroke="#7f6000" d="M42,-100C42,-100 12,-100 12,-100 6,-100 0,-94 0,-88 0,-88 0,-76 0,-76 0,-70 6,-64 12,-64 12,-64 42,-64 42,-64 48,-64 54,-70 54,-76 54,-76 54,-88 54,-88 54,-94 48,-100 42,-100"/>
<text text-anchor="middle" x="27" y="-78.12" font-family="Helvetica,sans-Serif" font-size="10.00">main</text>
</g>
<!-- main&#45;&gt;defaults -->
<g id="edge6" class="edge">
<title>main&#45;&gt;defaults</title>
<path fill="none" stroke="#7d8597" d="M54.4,-72.83C86.14,-61.8 139.61,-43.23 175.4,-30.8"/>
<polygon fill="#7d8597" stroke="#7d8597" points="176.17,-34.24 184.47,-27.65 173.88,-27.62 176.17,-34.24"/>
</g>
<!-- workflows -->
<g id="node11" class="node">
<title>workflows</title>
<polygon fill="#d9eaf4" stroke="#0b3954" points="150.25,-143 147.25,-147 126.25,-147 123.25,-143 90,-143 90,-107 150.25,-107 150.25,-143"/>
<text text-anchor="middle" x="120.12" y="-121.12" font-family="Helvetica,sans-Serif" font-size="10.00">workflows</text>
</g>
<!-- main&#45;&gt;workflows -->
<g id="edge7" class="edge">
<title>main&#45;&gt;workflows</title>
<path fill="none" stroke="#7d8597" d="M54.36,-94.44C62.2,-98.14 70.98,-102.28 79.48,-106.29"/>
<polygon fill="#7d8597" stroke="#7d8597" points="77.72,-109.33 88.26,-110.43 80.71,-103 77.72,-109.33"/>
</g>
<!-- models -->
<g id="node7" class="node">
<title>models</title>
<polygon fill="#d9eaf4" stroke="#0b3954" points="338.62,-267 335.62,-271 314.62,-271 311.62,-267 284.62,-267 284.62,-231 338.62,-231 338.62,-267"/>
<text text-anchor="middle" x="311.62" y="-245.12" font-family="Helvetica,sans-Serif" font-size="10.00">models</text>
</g>
<!-- models&#45;&gt;config -->
<g id="edge8" class="edge">
<title>models&#45;&gt;config</title>
<path fill="none" stroke="#7d8597" d="M339.03,-230.69C350.59,-222.67 364.33,-213.15 376.75,-204.53"/>
<polygon fill="#7d8597" stroke="#7d8597" points="378.48,-207.59 384.7,-199.02 374.49,-201.84 378.48,-207.59"/>
</g>
<!-- models&#45;&gt;evaluation -->
<g id="edge9" class="edge">
<title>models&#45;&gt;evaluation</title>
<path fill="none" stroke="#7d8597" d="M339.03,-263.33C349.34,-268.93 361.39,-275.46 372.69,-281.6"/>
<polygon fill="#7d8597" stroke="#7d8597" points="371,-284.66 381.46,-286.36 374.34,-278.51 371,-284.66"/>
</g>
<!-- observability -->
<g id="node8" class="node">
<title>observability</title>
<polygon fill="#d9eaf4" stroke="#0b3954" points="347,-321 344,-325 323,-325 320,-321 276.25,-321 276.25,-285 347,-285 347,-321"/>
<text text-anchor="middle" x="311.62" y="-299.12" font-family="Helvetica,sans-Serif" font-size="10.00">observability</text>
</g>
<!-- observability&#45;&gt;config -->
<g id="edge10" class="edge">
<title>observability&#45;&gt;config</title>
<path fill="none" stroke="#7d8597" d="M337.84,-284.7C341.06,-281.93 344.21,-279 347,-276 366.42,-255.18 384.25,-228.08 396.32,-207.99"/>
<polygon fill="#7d8597" stroke="#7d8597" points="399.27,-209.88 401.32,-199.49 393.23,-206.33 399.27,-209.88"/>
</g>
<!-- observability&#45;&gt;evaluation -->
<g id="edge11" class="edge">
<title>observability&#45;&gt;evaluation</title>
<path fill="none" stroke="#7d8597" d="M347.43,-303C355.18,-303 363.47,-303 371.44,-303"/>
<polygon fill="#7d8597" stroke="#7d8597" points="371.28,-306.5 381.28,-303 371.28,-299.5 371.28,-306.5"/>
</g>
<!-- train -->
<g id="node9" class="node">
<title>train</title>
<polygon fill="#d9eaf4" stroke="#0b3954" points="240.25,-218 237.25,-222 216.25,-222 213.25,-218 186.25,-218 186.25,-182 240.25,-182 240.25,-218"/>
<text text-anchor="middle" x="213.25" y="-196.12" font-family="Helvetica,sans-Serif" font-size="10.00">train</text>
</g>
<!-- train&#45;&gt;config -->
<g id="edge12" class="edge">
<title>train&#45;&gt;config</title>
<path fill="none" stroke="#7d8597" d="M240.53,-197.34C274.82,-193.88 335.09,-187.79 374.3,-183.82"/>
<polygon fill="#7d8597" stroke="#7d8597" points="374.64,-187.31 384.23,-182.82 373.93,-180.34 374.64,-187.31"/>
</g>
<!-- train&#45;&gt;data -->
<g id="edge13" class="edge">
<title>train&#45;&gt;data</title>
<path fill="none" stroke="#7d8597" d="M240.58,-188.25C250.89,-183.65 262.89,-178.3 274.01,-173.34"/>
<polygon fill="#7d8597" stroke="#7d8597" points="275.23,-176.62 282.94,-169.35 272.38,-170.23 275.23,-176.62"/>
</g>
<!-- train&#45;&gt;environment -->
<g id="edge14" class="edge">
<title>train&#45;&gt;environment</title>
<path fill="none" stroke="#7d8597" d="M228.95,-181.64C241.02,-167.02 258.88,-146.37 276.25,-130 276.73,-129.54 277.22,-129.09 277.72,-128.63"/>
<polygon fill="#7d8597" stroke="#7d8597" points="279.72,-131.54 284.98,-122.34 275.13,-126.24 279.72,-131.54"/>
</g>
<!-- train&#45;&gt;models -->
<g id="edge15" class="edge">
<title>train&#45;&gt;models</title>
<path fill="none" stroke="#7d8597" d="M240.58,-213.39C251,-218.68 263.13,-224.85 274.35,-230.56"/>
<polygon fill="#7d8597" stroke="#7d8597" points="272.47,-233.53 282.97,-234.94 275.65,-227.29 272.47,-233.53"/>
</g>
<!-- train&#45;&gt;observability -->
<g id="edge16" class="edge">
<title>train&#45;&gt;observability</title>
<path fill="none" stroke="#7d8597" d="M227.49,-218.46C239.39,-234.47 257.78,-257.87 276.25,-276 276.72,-276.47 277.21,-276.93 277.69,-277.39"/>
<polygon fill="#7d8597" stroke="#7d8597" points="275.08,-279.75 284.88,-283.76 279.72,-274.51 275.08,-279.75"/>
</g>
<!-- workflows&#45;&gt;config -->
<g id="edge17" class="edge">
<title>workflows&#45;&gt;config</title>
<path fill="none" stroke="#7d8597" d="M150.08,-106.64C194.94,-80.75 282.76,-40.43 347,-76 375.61,-91.84 393.32,-126.07 402.92,-150.95"/>
<polygon fill="#7d8597" stroke="#7d8597" points="399.57,-151.98 406.26,-160.2 406.16,-149.6 399.57,-151.98"/>
</g>
<!-- workflows&#45;&gt;data -->
<g id="edge18" class="edge">
<title>workflows&#45;&gt;data</title>
<path fill="none" stroke="#7d8597" d="M150.73,-130C183.8,-135.58 237.37,-144.63 273.28,-150.69"/>
<polygon fill="#7d8597" stroke="#7d8597" points="272.34,-154.08 282.78,-152.3 273.51,-147.18 272.34,-154.08"/>
</g>
<!-- workflows&#45;&gt;defaults -->
<g id="edge19" class="edge">
<title>workflows&#45;&gt;defaults</title>
<path fill="none" stroke="#7d8597" d="M136.58,-106.85C151.05,-89.86 172.84,-64.27 189.33,-44.91"/>
<polygon fill="#7d8597" stroke="#7d8597" points="191.92,-47.28 195.73,-37.39 186.59,-42.74 191.92,-47.28"/>
</g>
<!-- workflows&#45;&gt;environment -->
<g id="edge20" class="edge">
<title>workflows&#45;&gt;environment</title>
<path fill="none" stroke="#7d8597" d="M150.73,-121.56C181.54,-117.99 230.16,-112.34 265.7,-108.21"/>
<polygon fill="#7d8597" stroke="#7d8597" points="265.71,-111.74 275.24,-107.11 264.91,-104.78 265.71,-111.74"/>
</g>
<!-- workflows&#45;&gt;evaluation -->
<g id="edge21" class="edge">
<title>workflows&#45;&gt;evaluation</title>
<path fill="none" stroke="#7d8597" d="M126.78,-143.25C135.98,-170.87 156.23,-224 186.25,-261 218.01,-300.14 228.52,-313.81 276.25,-330 306.03,-340.1 316.16,-336.14 347,-330 355.43,-328.32 364.14,-325.53 372.33,-322.37"/>
<polygon fill="#7d8597" stroke="#7d8597" points="373.45,-325.69 381.35,-318.63 370.77,-319.23 373.45,-325.69"/>
</g>
<!-- workflows&#45;&gt;observability -->
<g id="edge22" class="edge">
<title>workflows&#45;&gt;observability</title>
<path fill="none" stroke="#7d8597" d="M129.6,-143.33C140.4,-165.22 160.75,-201.99 186.25,-227 209.36,-249.66 240.41,-268.64 265.71,-281.97"/>
<polygon fill="#7d8597" stroke="#7d8597" points="263.97,-285.01 274.46,-286.46 267.16,-278.78 263.97,-285.01"/>
</g>
<!-- workflows&#45;&gt;train -->
<g id="edge23" class="edge">
<title>workflows&#45;&gt;train</title>
<path fill="none" stroke="#7d8597" d="M143.18,-143.16C154.63,-152.57 168.8,-164.24 181.32,-174.54"/>
<polygon fill="#7d8597" stroke="#7d8597" points="178.96,-177.14 188.91,-180.79 183.41,-171.73 178.96,-177.14"/>
</g>
</g>
</svg>
