<?xml version="1.0" encoding="UTF-8" standalone="no"?>
<!DOCTYPE svg PUBLIC "-//W3C//DTD SVG 1.1//EN"
 "http://www.w3.org/Graphics/SVG/1.1/DTD/svg11.dtd">
<!-- Generated by graphviz version 12.2.1 (20241206.2353)
 -->
<!-- Title: dependencies Pages: 1 -->
<svg width="640pt" height="433pt"
 viewBox="0.00 0.00 640.25 432.96" xmlns="http://www.w3.org/2000/svg" xmlns:xlink="http://www.w3.org/1999/xlink">
<g id="graph0" class="graph" transform="scale(1 1) rotate(0) translate(4 428.96)">
<title>dependencies</title>
<polygon fill="white" stroke="none" points="-4,4 -4,-428.96 636.25,-428.96 636.25,4 -4,4"/>
<text text-anchor="middle" x="316.12" y="-407.66" font-family="Helvetica,sans-Serif" font-size="14.00">Package Dependency Graph</text>
<!-- config -->
<g id="node1" class="node">
<title>config</title>
<polygon fill="#d9eaf4" stroke="#0b3954" points="542.25,-179.96 539.25,-183.96 518.25,-183.96 515.25,-179.96 488.25,-179.96 488.25,-143.96 542.25,-143.96 542.25,-179.96"/>
<text text-anchor="middle" x="515.25" y="-158.09" font-family="Helvetica,sans-Serif" font-size="10.00">config</text>
</g>
<!-- utils -->
<g id="node11" class="node">
<title>utils</title>
<polygon fill="#d9eaf4" stroke="#0b3954" points="632.25,-114.96 629.25,-118.96 608.25,-118.96 605.25,-114.96 578.25,-114.96 578.25,-78.96 632.25,-78.96 632.25,-114.96"/>
<text text-anchor="middle" x="605.25" y="-93.09" font-family="Helvetica,sans-Serif" font-size="10.00">utils</text>
</g>
<!-- config&#45;&gt;utils -->
<g id="edge1" class="edge">
<title>config&#45;&gt;utils</title>
<path fill="none" stroke="#7d8597" d="M541.23,-143.51C550.24,-136.85 560.57,-129.22 570.22,-122.1"/>
<polygon fill="#7d8597" stroke="#7d8597" points="572.02,-125.12 577.99,-116.36 567.87,-119.49 572.02,-125.12"/>
</g>
<!-- data -->
<g id="node2" class="node">
<title>data</title>
<polygon fill="#d9eaf4" stroke="#0b3954" points="443.88,-49.96 440.88,-53.96 419.88,-53.96 416.88,-49.96 389.88,-49.96 389.88,-13.96 443.88,-13.96 443.88,-49.96"/>
<text text-anchor="middle" x="416.88" y="-28.09" font-family="Helvetica,sans-Serif" font-size="10.00">data</text>
</g>
<!-- data&#45;&gt;config -->
<g id="edge2" class="edge">
<title>data&#45;&gt;config</title>
<path fill="none" stroke="#7d8597" d="M439.45,-50.45C443.9,-54.69 448.4,-59.32 452.25,-63.96 470.42,-85.86 487.43,-113.46 499.02,-133.78"/>
<polygon fill="#7d8597" stroke="#7d8597" points="495.88,-135.34 503.82,-142.36 501.99,-131.92 495.88,-135.34"/>
</g>
<!-- data&#45;&gt;utils -->
<g id="edge3" class="edge">
<title>data&#45;&gt;utils</title>
<path fill="none" stroke="#7d8597" d="M444.18,-41.14C476.28,-52.33 530.76,-71.33 567.12,-84.01"/>
<polygon fill="#7d8597" stroke="#7d8597" points="565.75,-87.24 576.35,-87.23 568.06,-80.63 565.75,-87.24"/>
</g>
<!-- defaults -->
<g id="node3" class="node">
<title>defaults</title>
<path fill="#f4d35e" stroke="#7f6000" d="M228.25,-401.96C228.25,-401.96 198.25,-401.96 198.25,-401.96 192.25,-401.96 186.25,-395.96 186.25,-389.96 186.25,-389.96 186.25,-377.96 186.25,-377.96 186.25,-371.96 192.25,-365.96 198.25,-365.96 198.25,-365.96 228.25,-365.96 228.25,-365.96 234.25,-365.96 240.25,-371.96 240.25,-377.96 240.25,-377.96 240.25,-389.96 240.25,-389.96 240.25,-395.96 234.25,-401.96 228.25,-401.96"/>
<text text-anchor="middle" x="213.25" y="-380.09" font-family="Helvetica,sans-Serif" font-size="10.00">defaults</text>
</g>
<!-- defaults&#45;&gt;config -->
<g id="edge4" class="edge">
<title>defaults&#45;&gt;config</title>
<path fill="none" stroke="#7d8597" d="M240.66,-388.68C288.7,-395.66 391.06,-402.93 452.25,-351.96 500.28,-311.96 511.41,-234.17 513.8,-191.59"/>
<polygon fill="#7d8597" stroke="#7d8597" points="517.28,-191.97 514.2,-181.83 510.29,-191.68 517.28,-191.97"/>
</g>
<!-- environment -->
<g id="node4" class="node">
<title>environment</title>
<polygon fill="#d9eaf4" stroke="#0b3954" points="345.5,-49.96 342.5,-53.96 321.5,-53.96 318.5,-49.96 276.25,-49.96 276.25,-13.96 345.5,-13.96 345.5,-49.96"/>
<text text-anchor="middle" x="310.88" y="-28.09" font-family="Helvetica,sans-Serif" font-size="10.00">environment</text>
</g>
<!-- environment&#45;&gt;config -->
<g id="edge5" class="edge">
<title>environment&#45;&gt;config</title>
<path fill="none" stroke="#7d8597" d="M341.29,-50.38C369.76,-68.26 414.1,-96.26 452.25,-120.96 460.75,-126.47 469.86,-132.45 478.42,-138.1"/>
<polygon fill="#7d8597" stroke="#7d8597" points="476.24,-140.85 486.51,-143.46 480.11,-135.02 476.24,-140.85"/>
</g>
<!-- evaluation -->
<g id="node5" class="node">
<title>evaluation</title>
<polygon fill="#d9eaf4" stroke="#0b3954" points="447,-309.96 444,-313.96 423,-313.96 420,-309.96 386.75,-309.96 386.75,-273.96 447,-273.96 447,-309.96"/>
<text text-anchor="middle" x="416.88" y="-288.09" font-family="Helvetica,sans-Serif" font-size="10.00">evaluation</text>
</g>
<!-- main -->
<g id="node6" class="node">
<title>main</title>
<path fill="#f4d35e" stroke="#7f6000" d="M42,-321.96C42,-321.96 12,-321.96 12,-321.96 6,-321.96 0,-315.96 0,-309.96 0,-309.96 0,-297.96 0,-297.96 0,-291.96 6,-285.96 12,-285.96 12,-285.96 42,-285.96 42,-285.96 48,-285.96 54,-291.96 54,-297.96 54,-297.96 54,-309.96 54,-309.96 54,-315.96 48,-321.96 42,-321.96"/>
<text text-anchor="middle" x="27" y="-300.09" font-family="Helvetica,sans-Serif" font-size="10.00">main</text>
</g>
<!-- main&#45;&gt;defaults -->
<g id="edge6" class="edge">
<title>main&#45;&gt;defaults</title>
<path fill="none" stroke="#7d8597" d="M54.4,-315.42C86.14,-329.21 139.61,-352.42 175.4,-367.96"/>
<polygon fill="#7d8597" stroke="#7d8597" points="173.95,-371.15 184.51,-371.92 176.73,-364.73 173.95,-371.15"/>
</g>
<!-- workflows -->
<g id="node12" class="node">
<title>workflows</title>
<polygon fill="#d9eaf4" stroke="#0b3954" points="150.25,-298.96 147.25,-302.96 126.25,-302.96 123.25,-298.96 90,-298.96 90,-262.96 150.25,-262.96 150.25,-298.96"/>
<text text-anchor="middle" x="120.12" y="-277.09" font-family="Helvetica,sans-Serif" font-size="10.00">workflows</text>
</g>
<!-- main&#45;&gt;workflows -->
<g id="edge7" class="edge">
<title>main&#45;&gt;workflows</title>
<path fill="none" stroke="#7d8597" d="M54.36,-297.31C61.95,-295.39 70.41,-293.26 78.64,-291.18"/>
<polygon fill="#7d8597" stroke="#7d8597" points="79.32,-294.62 88.16,-288.78 77.61,-287.83 79.32,-294.62"/>
</g>
<!-- models -->
<g id="node7" class="node">
<title>models</title>
<polygon fill="#d9eaf4" stroke="#0b3954" points="337.88,-141.96 334.88,-145.96 313.88,-145.96 310.88,-141.96 283.88,-141.96 283.88,-105.96 337.88,-105.96 337.88,-141.96"/>
<text text-anchor="middle" x="310.88" y="-120.09" font-family="Helvetica,sans-Serif" font-size="10.00">models</text>
</g>
<!-- models&#45;&gt;config -->
<g id="edge8" class="edge">
<title>models&#45;&gt;config</title>
<path fill="none" stroke="#7d8597" d="M338.16,-123.44C366.68,-123.47 413.35,-125.26 452.25,-134.96 460.65,-137.06 469.35,-140.18 477.48,-143.57"/>
<polygon fill="#7d8597" stroke="#7d8597" points="475.83,-146.67 486.39,-147.51 478.65,-140.27 475.83,-146.67"/>
</g>
<!-- models&#45;&gt;evaluation -->
<g id="edge9" class="edge">
<title>models&#45;&gt;evaluation</title>
<path fill="none" stroke="#7d8597" d="M323.2,-142.26C341.41,-171.67 377.31,-229.66 398.69,-264.19"/>
<polygon fill="#7d8597" stroke="#7d8597" points="395.52,-265.74 403.76,-272.4 401.48,-262.05 395.52,-265.74"/>
</g>
<!-- observability -->
<g id="node8" class="node">
<title>observability</title>
<polygon fill="#d9eaf4" stroke="#0b3954" points="452.25,-179.96 449.25,-183.96 428.25,-183.96 425.25,-179.96 381.5,-179.96 381.5,-143.96 452.25,-143.96 452.25,-179.96"/>
<text text-anchor="middle" x="416.88" y="-158.09" font-family="Helvetica,sans-Serif" font-size="10.00">observability</text>
</g>
<!-- models&#45;&gt;observability -->
<g id="edge10" class="edge">
<title>models&#45;&gt;observability</title>
<path fill="none" stroke="#7d8597" d="M338.12,-133.55C348.06,-137.18 359.68,-141.43 370.86,-145.52"/>
<polygon fill="#7d8597" stroke="#7d8597" points="369.36,-148.69 379.96,-148.84 371.77,-142.12 369.36,-148.69"/>
</g>
<!-- observability&#45;&gt;config -->
<g id="edge11" class="edge">
<title>observability&#45;&gt;config</title>
<path fill="none" stroke="#7d8597" d="M452.67,-161.96C460.4,-161.96 468.64,-161.96 476.48,-161.96"/>
<polygon fill="#7d8597" stroke="#7d8597" points="476.47,-165.46 486.47,-161.96 476.47,-158.46 476.47,-165.46"/>
</g>
<!-- reporting -->
<g id="node9" class="node">
<title>reporting</title>
<polygon fill="#d9eaf4" stroke="#0b3954" points="337.88,-271.96 334.88,-275.96 313.88,-275.96 310.88,-271.96 283.88,-271.96 283.88,-235.96 337.88,-235.96 337.88,-271.96"/>
<text text-anchor="middle" x="310.88" y="-250.09" font-family="Helvetica,sans-Serif" font-size="10.00">reporting</text>
</g>
<!-- reporting&#45;&gt;config -->
<g id="edge12" class="edge">
<title>reporting&#45;&gt;config</title>
<path fill="none" stroke="#7d8597" d="M338.2,-252.21C367.58,-249.32 415.77,-241.73 452.25,-221.96 467.62,-213.64 481.86,-200.43 492.8,-188.53"/>
<polygon fill="#7d8597" stroke="#7d8597" points="495.17,-191.14 499.16,-181.32 489.92,-186.51 495.17,-191.14"/>
</g>
<!-- reporting&#45;&gt;evaluation -->
<g id="edge13" class="edge">
<title>reporting&#45;&gt;evaluation</title>
<path fill="none" stroke="#7d8597" d="M338.12,-263.55C349.47,-267.7 363.02,-272.65 375.6,-277.25"/>
<polygon fill="#7d8597" stroke="#7d8597" points="374.32,-280.5 384.91,-280.65 376.72,-273.93 374.32,-280.5"/>
</g>
<!-- reporting&#45;&gt;observability -->
<g id="edge14" class="edge">
<title>reporting&#45;&gt;observability</title>
<path fill="none" stroke="#7d8597" d="M332.42,-235.79C347.85,-222.14 369.19,-203.26 386.43,-188.01"/>
<polygon fill="#7d8597" stroke="#7d8597" points="388.71,-190.67 393.88,-181.42 384.07,-185.42 388.71,-190.67"/>
</g>
<!-- train -->
<g id="node10" class="node">
<title>train</title>
<polygon fill="#d9eaf4" stroke="#0b3954" points="240.25,-164.96 237.25,-168.96 216.25,-168.96 213.25,-164.96 186.25,-164.96 186.25,-128.96 240.25,-128.96 240.25,-164.96"/>
<text text-anchor="middle" x="213.25" y="-143.09" font-family="Helvetica,sans-Serif" font-size="10.00">train</text>
</g>
<!-- train&#45;&gt;config -->
<g id="edge15" class="edge">
<title>train&#45;&gt;config</title>
<path fill="none" stroke="#7d8597" d="M240.41,-158.1C284.34,-175.34 375.64,-204.92 452.25,-188.96 460.72,-187.2 469.45,-184.21 477.59,-180.85"/>
<polygon fill="#7d8597" stroke="#7d8597" points="478.78,-184.16 486.5,-176.91 475.94,-177.76 478.78,-184.16"/>
</g>
<!-- train&#45;&gt;data -->
<g id="edge16" class="edge">
<title>train&#45;&gt;data</title>
<path fill="none" stroke="#7d8597" d="M234.54,-128.5C246.21,-118.43 261.46,-106.18 276.25,-96.96 309.35,-76.34 350.06,-58.11 378.96,-46.25"/>
<polygon fill="#7d8597" stroke="#7d8597" points="380.06,-49.58 388.02,-42.59 377.44,-43.09 380.06,-49.58"/>
</g>
<!-- train&#45;&gt;environment -->
<g id="edge17" class="edge">
<title>train&#45;&gt;environment</title>
<path fill="none" stroke="#7d8597" d="M226.71,-128.47C238.68,-111.18 257.63,-84.95 276.25,-63.96 277.9,-62.1 279.64,-60.22 281.43,-58.36"/>
<polygon fill="#7d8597" stroke="#7d8597" points="283.74,-61 288.34,-51.45 278.79,-56.05 283.74,-61"/>
</g>
<!-- train&#45;&gt;models -->
<g id="edge18" class="edge">
<title>train&#45;&gt;models</title>
<path fill="none" stroke="#7d8597" d="M240.63,-140.62C250.46,-138.25 261.8,-135.52 272.43,-132.97"/>
<polygon fill="#7d8597" stroke="#7d8597" points="273.2,-136.38 282.11,-130.64 271.57,-129.58 273.2,-136.38"/>
</g>
<!-- train&#45;&gt;observability -->
<g id="edge19" class="edge">
<title>train&#45;&gt;observability</title>
<path fill="none" stroke="#7d8597" d="M240.61,-148.92C273.35,-151.36 329.76,-155.56 369.73,-158.53"/>
<polygon fill="#7d8597" stroke="#7d8597" points="369.31,-162.01 379.54,-159.26 369.83,-155.03 369.31,-162.01"/>
</g>
<!-- workflows&#45;&gt;config -->
<g id="edge20" class="edge">
<title>workflows&#45;&gt;config</title>
<path fill="none" stroke="#7d8597" d="M150.29,-296.08C211.98,-325.72 357.76,-383.24 452.25,-318.96 494.34,-290.33 507.86,-228.27 512.2,-191.33"/>
<polygon fill="#7d8597" stroke="#7d8597" points="515.64,-192.1 513.16,-181.8 508.67,-191.4 515.64,-192.1"/>
</g>
<!-- workflows&#45;&gt;data -->
<g id="edge21" class="edge">
<title>workflows&#45;&gt;data</title>
<path fill="none" stroke="#7d8597" d="M122.8,-262.47C127.14,-223.32 141.74,-130.61 186.25,-68.96 214.98,-29.17 229.49,-19.89 276.25,-4.96 310.35,5.93 350.61,-4.18 379.11,-14.99"/>
<polygon fill="#7d8597" stroke="#7d8597" points="377.43,-18.09 388.02,-18.56 380.04,-11.59 377.43,-18.09"/>
</g>
<!-- workflows&#45;&gt;defaults -->
<g id="edge22" class="edge">
<title>workflows&#45;&gt;defaults</title>
<path fill="none" stroke="#7d8597" d="M137.42,-299.38C151.67,-315.49 172.55,-339.09 188.64,-357.27"/>
<polygon fill="#7d8597" stroke="#7d8597" points="185.85,-359.4 195.1,-364.57 191.09,-354.76 185.85,-359.4"/>
</g>
<!-- workflows&#45;&gt;environment -->
<g id="edge23" class="edge">
<title>workflows&#45;&gt;environment</title>
<path fill="none" stroke="#7d8597" d="M124.98,-262.59C132.37,-230.78 151.03,-164.57 186.25,-119.96 207.82,-92.64 240.05,-70.08 266.2,-54.65"/>
<polygon fill="#7d8597" stroke="#7d8597" points="267.64,-57.85 274.57,-49.84 264.16,-51.78 267.64,-57.85"/>
</g>
<!-- workflows&#45;&gt;evaluation -->
<g id="edge24" class="edge">
<title>workflows&#45;&gt;evaluation</title>
<path fill="none" stroke="#7d8597" d="M150.74,-282.07C203.7,-284.04 314.74,-288.19 374.95,-290.43"/>
<polygon fill="#7d8597" stroke="#7d8597" points="374.65,-293.93 384.77,-290.8 374.91,-286.93 374.65,-293.93"/>
</g>
<!-- workflows&#45;&gt;reporting -->
<g id="edge25" class="edge">
<title>workflows&#45;&gt;reporting</title>
<path fill="none" stroke="#7d8597" d="M150.62,-276.74C183.55,-272.03 236.91,-264.4 272.68,-259.28"/>
<polygon fill="#7d8597" stroke="#7d8597" points="272.73,-262.81 282.13,-257.93 271.74,-255.88 272.73,-262.81"/>
</g>
<!-- workflows&#45;&gt;train -->
<g id="edge26" class="edge">
<title>workflows&#45;&gt;train</title>
<path fill="none" stroke="#7d8597" d="M133.6,-262.61C149.08,-239.86 175.6,-200.86 193.52,-174.51"/>
<polygon fill="#7d8597" stroke="#7d8597" points="196.34,-176.58 199.07,-166.34 190.55,-172.64 196.34,-176.58"/>
</g>
</g>
</svg>
