<?xml version="1.0" encoding="UTF-8" standalone="no"?>
<!DOCTYPE svg PUBLIC "-//W3C//DTD SVG 1.1//EN"
 "http://www.w3.org/Graphics/SVG/1.1/DTD/svg11.dtd">
<!-- Generated by graphviz version 12.2.1 (20241206.2353)
 -->
<!-- Title: dependencies Pages: 1 -->
<svg width="2095pt" height="2030pt"
 viewBox="0.00 0.00 2095.31 2030.06" xmlns="http://www.w3.org/2000/svg" xmlns:xlink="http://www.w3.org/1999/xlink">
<g id="graph0" class="graph" transform="scale(1 1) rotate(0) translate(4 2026.06)">
<title>dependencies</title>
<polygon fill="white" stroke="none" points="-4,4 -4,-2026.06 2091.31,-2026.06 2091.31,4 -4,4"/>
<text text-anchor="middle" x="1043.66" y="-2004.76" font-family="Helvetica,sans-Serif" font-size="14.00">Production Module Dependency Graph</text>
<!-- config -->
<g id="node1" class="node">
<title>config</title>
<polygon fill="#d9eaf4" stroke="#0b3954" points="1409.83,-650.64 1406.83,-654.64 1385.83,-654.64 1382.83,-650.64 1355.83,-650.64 1355.83,-614.64 1409.83,-614.64 1409.83,-650.64"/>
<text text-anchor="middle" x="1382.83" y="-628.77" font-family="Helvetica,sans-Serif" font-size="10.00">config</text>
</g>
<!-- config.data -->
<g id="node2" class="node">
<title>config.data</title>
<ellipse fill="#f7f7f7" stroke="#6c757d" cx="1888.89" cy="-502.64" rx="37.87" ry="18"/>
<text text-anchor="middle" x="1888.89" y="-498.77" font-family="Helvetica,sans-Serif" font-size="10.00">config.data</text>
</g>
<!-- config&#45;&gt;config.data -->
<g id="edge1" class="edge">
<title>config&#45;&gt;config.data</title>
<path fill="none" stroke="#4f5d75" stroke-dasharray="5,2" d="M1409.91,-616.82C1435.18,-602.18 1475.04,-580.88 1512.17,-568.64 1626.36,-531.03 1767.54,-513.57 1840,-506.6"/>
<polygon fill="#4f5d75" stroke="#4f5d75" points="1839.89,-510.13 1849.52,-505.71 1839.24,-503.16 1839.89,-510.13"/>
</g>
<!-- config.model -->
<g id="node3" class="node">
<title>config.model</title>
<ellipse fill="#f7f7f7" stroke="#6c757d" cx="1732.78" cy="-666.64" rx="42.31" ry="18"/>
<text text-anchor="middle" x="1732.78" y="-662.77" font-family="Helvetica,sans-Serif" font-size="10.00">config.model</text>
</g>
<!-- config&#45;&gt;config.model -->
<g id="edge2" class="edge">
<title>config&#45;&gt;config.model</title>
<path fill="none" stroke="#4f5d75" stroke-dasharray="5,2" d="M1410.19,-638.99C1436.01,-644.92 1476.55,-653.47 1512.17,-657.64 1568.88,-664.29 1634.32,-666.24 1678.91,-666.72"/>
<polygon fill="#4f5d75" stroke="#4f5d75" points="1678.8,-670.22 1688.83,-666.8 1678.86,-663.22 1678.8,-670.22"/>
</g>
<!-- config.observability -->
<g id="node4" class="node">
<title>config.observability</title>
<ellipse fill="#f7f7f7" stroke="#6c757d" cx="1732.78" cy="-361.64" rx="59.17" ry="18"/>
<text text-anchor="middle" x="1732.78" y="-357.77" font-family="Helvetica,sans-Serif" font-size="10.00">config.observability</text>
</g>
<!-- config&#45;&gt;config.observability -->
<g id="edge3" class="edge">
<title>config&#45;&gt;config.observability</title>
<path fill="none" stroke="#4f5d75" stroke-dasharray="5,2" d="M1405.61,-614.33C1430.77,-593.41 1473.64,-558.48 1512.17,-530.64 1565.42,-492.16 1583.97,-489.98 1635.83,-449.64 1661.05,-430.03 1687.67,-405.25 1706.46,-386.98"/>
<polygon fill="#4f5d75" stroke="#4f5d75" points="1708.73,-389.65 1713.42,-380.15 1703.83,-384.65 1708.73,-389.65"/>
</g>
<!-- config.runtime -->
<g id="node5" class="node">
<title>config.runtime</title>
<ellipse fill="#f7f7f7" stroke="#6c757d" cx="1732.78" cy="-216.64" rx="45.86" ry="18"/>
<text text-anchor="middle" x="1732.78" y="-212.77" font-family="Helvetica,sans-Serif" font-size="10.00">config.runtime</text>
</g>
<!-- config&#45;&gt;config.runtime -->
<g id="edge4" class="edge">
<title>config&#45;&gt;config.runtime</title>
<path fill="none" stroke="#4f5d75" stroke-dasharray="5,2" d="M1390.87,-614.25C1407.5,-572.35 1452.33,-467.9 1512.17,-395.64 1567.7,-328.58 1651.43,-268.68 1697.82,-238.1"/>
<polygon fill="#4f5d75" stroke="#4f5d75" points="1699.67,-241.07 1706.13,-232.68 1695.84,-235.21 1699.67,-241.07"/>
</g>
<!-- config.serde -->
<g id="node6" class="node">
<title>config.serde</title>
<ellipse fill="#f7f7f7" stroke="#6c757d" cx="1574" cy="-630.64" rx="40.97" ry="18"/>
<text text-anchor="middle" x="1574" y="-626.77" font-family="Helvetica,sans-Serif" font-size="10.00">config.serde</text>
</g>
<!-- config&#45;&gt;config.serde -->
<g id="edge5" class="edge">
<title>config&#45;&gt;config.serde</title>
<path fill="none" stroke="#4f5d75" stroke-dasharray="5,2" d="M1410.13,-632.37C1438.8,-632.06 1485.4,-631.57 1521.43,-631.19"/>
<polygon fill="#4f5d75" stroke="#4f5d75" points="1521.24,-634.69 1531.2,-631.09 1521.17,-627.69 1521.24,-634.69"/>
</g>
<!-- config.types -->
<g id="node7" class="node">
<title>config.types</title>
<ellipse fill="#f7f7f7" stroke="#6c757d" cx="2035.69" cy="-502.64" rx="40.97" ry="18"/>
<text text-anchor="middle" x="2035.69" y="-498.77" font-family="Helvetica,sans-Serif" font-size="10.00">config.types</text>
</g>
<!-- config&#45;&gt;config.types -->
<g id="edge6" class="edge">
<title>config&#45;&gt;config.types</title>
<path fill="none" stroke="#4f5d75" stroke-dasharray="5,2" d="M1410.29,-626.23C1436.17,-620.05 1476.76,-610.64 1512.17,-603.64 1704.94,-565.53 1756.97,-575.43 1948.06,-529.64 1962.57,-526.17 1978.19,-521.57 1992.13,-517.16"/>
<polygon fill="#4f5d75" stroke="#4f5d75" points="1993,-520.55 2001.44,-514.14 1990.85,-513.89 1993,-520.55"/>
</g>
<!-- config.validation -->
<g id="node8" class="node">
<title>config.validation</title>
<ellipse fill="#f7f7f7" stroke="#6c757d" cx="1574" cy="-422.64" rx="51.18" ry="18"/>
<text text-anchor="middle" x="1574" y="-418.77" font-family="Helvetica,sans-Serif" font-size="10.00">config.validation</text>
</g>
<!-- config&#45;&gt;config.validation -->
<g id="edge7" class="edge">
<title>config&#45;&gt;config.validation</title>
<path fill="none" stroke="#4f5d75" stroke-dasharray="5,2" d="M1400.28,-614.38C1433.94,-577.02 1510.72,-491.78 1549.57,-448.66"/>
<polygon fill="#4f5d75" stroke="#4f5d75" points="1552.14,-451.03 1556.24,-441.25 1546.94,-446.34 1552.14,-451.03"/>
</g>
<!-- config.data&#45;&gt;config.types -->
<g id="edge8" class="edge">
<title>config.data&#45;&gt;config.types</title>
<path fill="none" stroke="#7d8597" d="M1927.18,-502.64C1944.1,-502.64 1964.4,-502.64 1982.77,-502.64"/>
<polygon fill="#7d8597" stroke="#7d8597" points="1982.71,-506.14 1992.71,-502.64 1982.71,-499.14 1982.71,-506.14"/>
</g>
<!-- utils.tft_utils -->
<g id="node59" class="node">
<title>utils.tft_utils</title>
<ellipse fill="#f7f7f7" stroke="#6c757d" cx="2035.69" cy="-742.64" rx="40.97" ry="18"/>
<text text-anchor="middle" x="2035.69" y="-738.77" font-family="Helvetica,sans-Serif" font-size="10.00">utils.tft_utils</text>
</g>
<!-- config.data&#45;&gt;utils.tft_utils -->
<g id="edge9" class="edge">
<title>config.data&#45;&gt;utils.tft_utils</title>
<path fill="none" stroke="#7d8597" d="M1900.31,-519.9C1925.19,-561.15 1988.25,-665.67 2018.29,-715.47"/>
<polygon fill="#7d8597" stroke="#7d8597" points="2015.23,-717.17 2023.39,-723.92 2021.22,-713.55 2015.23,-717.17"/>
</g>
<!-- config.model&#45;&gt;config.data -->
<g id="edge10" class="edge">
<title>config.model&#45;&gt;config.data</title>
<path fill="none" stroke="#7d8597" d="M1763.86,-654C1773.99,-648.88 1784.95,-642.35 1793.72,-634.64 1828.19,-604.37 1856.94,-559.14 1873.28,-530.27"/>
<polygon fill="#7d8597" stroke="#7d8597" points="1876.21,-532.2 1878,-521.75 1870.09,-528.81 1876.21,-532.2"/>
</g>
<!-- config.model&#45;&gt;utils.tft_utils -->
<g id="edge11" class="edge">
<title>config.model&#45;&gt;utils.tft_utils</title>
<path fill="none" stroke="#7d8597" d="M1769.78,-675.74C1824.44,-689.54 1928.37,-715.79 1988.52,-730.98"/>
<polygon fill="#7d8597" stroke="#7d8597" points="1987.56,-734.35 1998.11,-733.41 1989.27,-727.56 1987.56,-734.35"/>
</g>
<!-- config.observability&#45;&gt;config.types -->
<g id="edge12" class="edge">
<title>config.observability&#45;&gt;config.types</title>
<path fill="none" stroke="#7d8597" d="M1766.27,-376.87C1822.32,-403.13 1936.92,-456.83 1996.62,-484.81"/>
<polygon fill="#7d8597" stroke="#7d8597" points="1994.84,-487.84 2005.38,-488.91 1997.81,-481.5 1994.84,-487.84"/>
</g>
<!-- config.runtime&#45;&gt;config.types -->
<g id="edge13" class="edge">
<title>config.runtime&#45;&gt;config.types</title>
<path fill="none" stroke="#7d8597" d="M1763.49,-230.29C1773.48,-235.44 1784.44,-241.75 1793.72,-248.64 1887.5,-318.31 1976.28,-426.53 2014.71,-476.15"/>
<polygon fill="#7d8597" stroke="#7d8597" points="2011.93,-478.27 2020.79,-484.07 2017.48,-474 2011.93,-478.27"/>
</g>
<!-- config.serde&#45;&gt;config.data -->
<g id="edge14" class="edge">
<title>config.serde&#45;&gt;config.data</title>
<path fill="none" stroke="#7d8597" d="M1609.98,-621.68C1653.92,-609.84 1731.14,-587.14 1793.72,-558.64 1815.53,-548.71 1838.68,-535 1856.57,-523.62"/>
<polygon fill="#7d8597" stroke="#7d8597" points="1858.41,-526.6 1864.91,-518.24 1854.61,-520.72 1858.41,-526.6"/>
</g>
<!-- config.serde&#45;&gt;config.model -->
<g id="edge15" class="edge">
<title>config.serde&#45;&gt;config.model</title>
<path fill="none" stroke="#7d8597" d="M1610.97,-638.9C1632.57,-643.86 1660.31,-650.23 1683.77,-655.62"/>
<polygon fill="#7d8597" stroke="#7d8597" points="1682.88,-659.01 1693.41,-657.83 1684.45,-652.19 1682.88,-659.01"/>
</g>
<!-- config.serde&#45;&gt;utils.tft_utils -->
<g id="edge16" class="edge">
<title>config.serde&#45;&gt;utils.tft_utils</title>
<path fill="none" stroke="#7d8597" d="M1594.07,-646.51C1612.71,-661.14 1642.48,-682.26 1671.83,-693.64 1776.96,-734.42 1910.6,-742.21 1982.78,-743.16"/>
<polygon fill="#7d8597" stroke="#7d8597" points="1982.7,-746.65 1992.73,-743.24 1982.76,-739.66 1982.7,-746.65"/>
</g>
<!-- config.validation&#45;&gt;config.data -->
<g id="edge17" class="edge">
<title>config.validation&#45;&gt;config.data</title>
<path fill="none" stroke="#7d8597" d="M1625.12,-425.33C1670.14,-428.82 1737.59,-436.77 1793.72,-454.64 1815.21,-461.49 1837.76,-472.82 1855.41,-482.76"/>
<polygon fill="#7d8597" stroke="#7d8597" points="1853.47,-485.68 1863.88,-487.64 1856.97,-479.61 1853.47,-485.68"/>
</g>
<!-- config.validation&#45;&gt;config.observability -->
<g id="edge18" class="edge">
<title>config.validation&#45;&gt;config.observability</title>
<path fill="none" stroke="#7d8597" d="M1609.41,-409.26C1631.37,-400.71 1660.15,-389.52 1684.28,-380.13"/>
<polygon fill="#7d8597" stroke="#7d8597" points="1685.53,-383.39 1693.58,-376.51 1682.99,-376.87 1685.53,-383.39"/>
</g>
<!-- config.validation&#45;&gt;config.runtime -->
<g id="edge19" class="edge">
<title>config.validation&#45;&gt;config.runtime</title>
<path fill="none" stroke="#7d8597" d="M1608.89,-409.21C1618.37,-404.35 1628.16,-398.16 1635.83,-390.64 1647.4,-379.3 1693.66,-290.9 1717.46,-244.65"/>
<polygon fill="#7d8597" stroke="#7d8597" points="1720.45,-246.51 1721.9,-236.01 1714.22,-243.31 1720.45,-246.51"/>
</g>
<!-- data.datamodule -->
<g id="node9" class="node">
<title>data.datamodule</title>
<path fill="#e8f5e9" stroke="#2d6a4f" d="M653.69,-898.64C653.69,-898.64 589.69,-898.64 589.69,-898.64 583.69,-898.64 577.69,-892.64 577.69,-886.64 577.69,-886.64 577.69,-874.64 577.69,-874.64 577.69,-868.64 583.69,-862.64 589.69,-862.64 589.69,-862.64 653.69,-862.64 653.69,-862.64 659.69,-862.64 665.69,-868.64 665.69,-874.64 665.69,-874.64 665.69,-886.64 665.69,-886.64 665.69,-892.64 659.69,-898.64 653.69,-898.64"/>
<text text-anchor="middle" x="621.69" y="-876.77" font-family="Helvetica,sans-Serif" font-size="10.00">data.datamodule</text>
</g>
<!-- data.datamodule&#45;&gt;config -->
<g id="edge20" class="edge">
<title>data.datamodule&#45;&gt;config</title>
<path fill="none" stroke="#7d8597" d="M636.21,-862.41C653.74,-840.01 686.4,-802.32 722.63,-780.64 932.71,-654.98 1238.39,-635.85 1344.16,-633.07"/>
<polygon fill="#7d8597" stroke="#7d8597" points="1344.05,-636.57 1353.97,-632.85 1343.89,-629.57 1344.05,-636.57"/>
</g>
<!-- data.dataset -->
<g id="node10" class="node">
<title>data.dataset</title>
<path fill="#e8f5e9" stroke="#2d6a4f" d="M811.9,-944.64C811.9,-944.64 765.9,-944.64 765.9,-944.64 759.9,-944.64 753.9,-938.64 753.9,-932.64 753.9,-932.64 753.9,-920.64 753.9,-920.64 753.9,-914.64 759.9,-908.64 765.9,-908.64 765.9,-908.64 811.9,-908.64 811.9,-908.64 817.9,-908.64 823.9,-914.64 823.9,-920.64 823.9,-920.64 823.9,-932.64 823.9,-932.64 823.9,-938.64 817.9,-944.64 811.9,-944.64"/>
<text text-anchor="middle" x="788.9" y="-922.77" font-family="Helvetica,sans-Serif" font-size="10.00">data.dataset</text>
</g>
<!-- data.datamodule&#45;&gt;data.dataset -->
<g id="edge21" class="edge">
<title>data.datamodule&#45;&gt;data.dataset</title>
<path fill="none" stroke="#7d8597" d="M666.1,-892.73C689.7,-899.3 718.86,-907.42 742.73,-914.07"/>
<polygon fill="#7d8597" stroke="#7d8597" points="741.6,-917.39 752.18,-916.7 743.48,-910.64 741.6,-917.39"/>
</g>
<!-- data.downloader -->
<g id="node11" class="node">
<title>data.downloader</title>
<path fill="#e8f5e9" stroke="#2d6a4f" d="M820.52,-1036.64C820.52,-1036.64 757.27,-1036.64 757.27,-1036.64 751.27,-1036.64 745.27,-1030.64 745.27,-1024.64 745.27,-1024.64 745.27,-1012.64 745.27,-1012.64 745.27,-1006.64 751.27,-1000.64 757.27,-1000.64 757.27,-1000.64 820.52,-1000.64 820.52,-1000.64 826.52,-1000.64 832.52,-1006.64 832.52,-1012.64 832.52,-1012.64 832.52,-1024.64 832.52,-1024.64 832.52,-1030.64 826.52,-1036.64 820.52,-1036.64"/>
<text text-anchor="middle" x="788.9" y="-1014.77" font-family="Helvetica,sans-Serif" font-size="10.00">data.downloader</text>
</g>
<!-- data.datamodule&#45;&gt;data.downloader -->
<g id="edge22" class="edge">
<title>data.datamodule&#45;&gt;data.downloader</title>
<path fill="none" stroke="#7d8597" d="M636.6,-899.05C654.54,-921.85 687.61,-960.83 722.63,-986.64 726.46,-989.47 730.57,-992.15 734.81,-994.68"/>
<polygon fill="#7d8597" stroke="#7d8597" points="733.07,-997.72 743.51,-999.54 736.48,-991.61 733.07,-997.72"/>
</g>
<!-- data.indexing -->
<g id="node12" class="node">
<title>data.indexing</title>
<path fill="#e8f5e9" stroke="#2d6a4f" d="M983.2,-936.64C983.2,-936.64 933.45,-936.64 933.45,-936.64 927.45,-936.64 921.45,-930.64 921.45,-924.64 921.45,-924.64 921.45,-912.64 921.45,-912.64 921.45,-906.64 927.45,-900.64 933.45,-900.64 933.45,-900.64 983.2,-900.64 983.2,-900.64 989.2,-900.64 995.2,-906.64 995.2,-912.64 995.2,-912.64 995.2,-924.64 995.2,-924.64 995.2,-930.64 989.2,-936.64 983.2,-936.64"/>
<text text-anchor="middle" x="958.32" y="-914.77" font-family="Helvetica,sans-Serif" font-size="10.00">data.indexing</text>
</g>
<!-- data.datamodule&#45;&gt;data.indexing -->
<g id="edge23" class="edge">
<title>data.datamodule&#45;&gt;data.indexing</title>
<path fill="none" stroke="#7d8597" d="M666.11,-882.86C712.91,-885.56 789.54,-890.88 855.17,-899.64 873.21,-902.05 892.9,-905.51 910.13,-908.82"/>
<polygon fill="#7d8597" stroke="#7d8597" points="909.09,-912.19 919.58,-910.67 910.44,-905.32 909.09,-912.19"/>
</g>
<!-- data.preprocessor -->
<g id="node13" class="node">
<title>data.preprocessor</title>
<path fill="#e8f5e9" stroke="#2d6a4f" d="M823.9,-1090.64C823.9,-1090.64 753.9,-1090.64 753.9,-1090.64 747.9,-1090.64 741.9,-1084.64 741.9,-1078.64 741.9,-1078.64 741.9,-1066.64 741.9,-1066.64 741.9,-1060.64 747.9,-1054.64 753.9,-1054.64 753.9,-1054.64 823.9,-1054.64 823.9,-1054.64 829.9,-1054.64 835.9,-1060.64 835.9,-1066.64 835.9,-1066.64 835.9,-1078.64 835.9,-1078.64 835.9,-1084.64 829.9,-1090.64 823.9,-1090.64"/>
<text text-anchor="middle" x="788.9" y="-1068.77" font-family="Helvetica,sans-Serif" font-size="10.00">data.preprocessor</text>
</g>
<!-- data.datamodule&#45;&gt;data.preprocessor -->
<g id="edge24" class="edge">
<title>data.datamodule&#45;&gt;data.preprocessor</title>
<path fill="none" stroke="#7d8597" d="M629.36,-899.1C642.35,-932.64 674.08,-1003.99 722.63,-1045.64 725.42,-1048.04 728.45,-1050.25 731.63,-1052.27"/>
<polygon fill="#7d8597" stroke="#7d8597" points="729.77,-1055.24 740.2,-1057.08 733.2,-1049.14 729.77,-1055.24"/>
</g>
<!-- data.schema -->
<g id="node14" class="node">
<title>data.schema</title>
<path fill="#e8f5e9" stroke="#2d6a4f" d="M1181.61,-890.64C1181.61,-890.64 1133.36,-890.64 1133.36,-890.64 1127.36,-890.64 1121.36,-884.64 1121.36,-878.64 1121.36,-878.64 1121.36,-866.64 1121.36,-866.64 1121.36,-860.64 1127.36,-854.64 1133.36,-854.64 1133.36,-854.64 1181.61,-854.64 1181.61,-854.64 1187.61,-854.64 1193.61,-860.64 1193.61,-866.64 1193.61,-866.64 1193.61,-878.64 1193.61,-878.64 1193.61,-884.64 1187.61,-890.64 1181.61,-890.64"/>
<text text-anchor="middle" x="1157.49" y="-868.77" font-family="Helvetica,sans-Serif" font-size="10.00">data.schema</text>
</g>
<!-- data.datamodule&#45;&gt;data.schema -->
<g id="edge25" class="edge">
<title>data.datamodule&#45;&gt;data.schema</title>
<path fill="none" stroke="#7d8597" d="M641.07,-899C659.82,-916.44 690.62,-941.71 722.63,-953.64 785.76,-977.18 968.17,-1003.06 1025.48,-967.64 1055.92,-948.84 1033.49,-917.93 1061.48,-895.64 1075.18,-884.74 1093.27,-878.89 1109.99,-875.79"/>
<polygon fill="#7d8597" stroke="#7d8597" points="1110.42,-879.26 1119.78,-874.28 1109.36,-872.34 1110.42,-879.26"/>
</g>
<!-- data.statistics -->
<g id="node15" class="node">
<title>data.statistics</title>
<path fill="#e8f5e9" stroke="#2d6a4f" d="M815.65,-852.64C815.65,-852.64 762.15,-852.64 762.15,-852.64 756.15,-852.64 750.15,-846.64 750.15,-840.64 750.15,-840.64 750.15,-828.64 750.15,-828.64 750.15,-822.64 756.15,-816.64 762.15,-816.64 762.15,-816.64 815.65,-816.64 815.65,-816.64 821.65,-816.64 827.65,-822.64 827.65,-828.64 827.65,-828.64 827.65,-840.64 827.65,-840.64 827.65,-846.64 821.65,-852.64 815.65,-852.64"/>
<text text-anchor="middle" x="788.9" y="-830.77" font-family="Helvetica,sans-Serif" font-size="10.00">data.statistics</text>
</g>
<!-- data.datamodule&#45;&gt;data.statistics -->
<g id="edge26" class="edge">
<title>data.datamodule&#45;&gt;data.statistics</title>
<path fill="none" stroke="#7d8597" d="M666.1,-868.56C688.44,-862.34 715.77,-854.73 738.88,-848.29"/>
<polygon fill="#7d8597" stroke="#7d8597" points="739.69,-851.7 748.38,-845.65 737.81,-844.96 739.69,-851.7"/>
</g>
<!-- data.transforms -->
<g id="node16" class="node">
<title>data.transforms</title>
<path fill="#e8f5e9" stroke="#2d6a4f" d="M988.45,-806.64C988.45,-806.64 928.2,-806.64 928.2,-806.64 922.2,-806.64 916.2,-800.64 916.2,-794.64 916.2,-794.64 916.2,-782.64 916.2,-782.64 916.2,-776.64 922.2,-770.64 928.2,-770.64 928.2,-770.64 988.45,-770.64 988.45,-770.64 994.45,-770.64 1000.45,-776.64 1000.45,-782.64 1000.45,-782.64 1000.45,-794.64 1000.45,-794.64 1000.45,-800.64 994.45,-806.64 988.45,-806.64"/>
<text text-anchor="middle" x="958.32" y="-784.77" font-family="Helvetica,sans-Serif" font-size="10.00">data.transforms</text>
</g>
<!-- data.datamodule&#45;&gt;data.transforms -->
<g id="edge27" class="edge">
<title>data.datamodule&#45;&gt;data.transforms</title>
<path fill="none" stroke="#7d8597" d="M641.07,-862.27C659.81,-844.82 690.6,-819.55 722.63,-807.64 782.22,-785.5 856.04,-783.25 904.79,-784.89"/>
<polygon fill="#7d8597" stroke="#7d8597" points="904.37,-788.38 914.5,-785.29 904.65,-781.38 904.37,-788.38"/>
</g>
<!-- data.datamodule&#45;&gt;utils.tft_utils -->
<g id="edge28" class="edge">
<title>data.datamodule&#45;&gt;utils.tft_utils</title>
<path fill="none" stroke="#7d8597" d="M628.42,-898.85C641.26,-937.98 674.99,-1031.98 722.63,-1099.64 843.64,-1271.54 869.17,-1344.75 1061.48,-1429.64 1191.96,-1487.24 1239.2,-1448.64 1381.83,-1448.64 1381.83,-1448.64 1381.83,-1448.64 1733.78,-1448.64 1883.33,-1448.64 2001.99,-905.74 2028.93,-772.1"/>
<polygon fill="#7d8597" stroke="#7d8597" points="2032.36,-772.78 2030.89,-762.29 2025.5,-771.41 2032.36,-772.78"/>
</g>
<!-- data.dataset&#45;&gt;data.indexing -->
<g id="edge29" class="edge">
<title>data.dataset&#45;&gt;data.indexing</title>
<path fill="none" stroke="#7d8597" d="M824.18,-925.01C848.88,-923.83 882.51,-922.22 909.8,-920.92"/>
<polygon fill="#7d8597" stroke="#7d8597" points="909.72,-924.42 919.55,-920.45 909.39,-917.43 909.72,-924.42"/>
</g>
<!-- data.dataset&#45;&gt;data.schema -->
<g id="edge30" class="edge">
<title>data.dataset&#45;&gt;data.schema</title>
<path fill="none" stroke="#7d8597" d="M824.05,-939.38C871.53,-954.93 959.13,-975.68 1025.48,-945.64 1047.57,-935.64 1041.3,-918.09 1061.48,-904.64 1076.08,-894.92 1093.9,-887.9 1110.15,-882.95"/>
<polygon fill="#7d8597" stroke="#7d8597" points="1110.96,-886.36 1119.63,-880.26 1109.05,-879.62 1110.96,-886.36"/>
</g>
<!-- data.indexing&#45;&gt;config -->
<g id="edge31" class="edge">
<title>data.indexing&#45;&gt;config</title>
<path fill="none" stroke="#7d8597" d="M979.7,-900.28C999.29,-883.59 1030.44,-859.52 1061.48,-845.64 1141.32,-809.96 1179.97,-850 1253.49,-802.64 1308.62,-767.13 1348.95,-699.25 1368.54,-660.88"/>
<polygon fill="#7d8597" stroke="#7d8597" points="1371.51,-662.76 1372.83,-652.25 1365.24,-659.64 1371.51,-662.76"/>
</g>
<!-- data.indexing&#45;&gt;data.schema -->
<g id="edge32" class="edge">
<title>data.indexing&#45;&gt;data.schema</title>
<path fill="none" stroke="#7d8597" d="M995.49,-910.21C1027.69,-902.69 1074.98,-891.66 1109.99,-883.49"/>
<polygon fill="#7d8597" stroke="#7d8597" points="1110.47,-886.97 1119.41,-881.29 1108.88,-880.16 1110.47,-886.97"/>
</g>
<!-- data.preprocessor&#45;&gt;data.schema -->
<g id="edge33" class="edge">
<title>data.preprocessor&#45;&gt;data.schema</title>
<path fill="none" stroke="#7d8597" d="M836.36,-1074.34C888.89,-1073.68 973.8,-1064.47 1025.48,-1016.64 1063.86,-981.13 1024.77,-941.87 1061.48,-904.64 1074.41,-891.53 1092.89,-883.79 1110.11,-879.22"/>
<polygon fill="#7d8597" stroke="#7d8597" points="1110.76,-882.67 1119.71,-877 1109.17,-875.85 1110.76,-882.67"/>
</g>
<!-- data.schema&#45;&gt;config -->
<g id="edge34" class="edge">
<title>data.schema&#45;&gt;config</title>
<path fill="none" stroke="#7d8597" d="M1193.82,-866.82C1213.04,-862.25 1236.32,-854.29 1253.49,-840.64 1314.46,-792.2 1353.97,-706.32 1371.45,-661.57"/>
<polygon fill="#7d8597" stroke="#7d8597" points="1374.7,-662.88 1374.98,-652.29 1368.16,-660.39 1374.7,-662.88"/>
</g>
<!-- data.schema&#45;&gt;utils.tft_utils -->
<g id="edge35" class="edge">
<title>data.schema&#45;&gt;utils.tft_utils</title>
<path fill="none" stroke="#7d8597" d="M1193.85,-866.63C1265.27,-855.01 1431.95,-830.64 1573,-830.64 1573,-830.64 1573,-830.64 1733.78,-830.64 1832.21,-830.64 1941.74,-786.73 1997.56,-760.94"/>
<polygon fill="#7d8597" stroke="#7d8597" points="1998.73,-764.26 2006.3,-756.84 1995.76,-757.92 1998.73,-764.26"/>
</g>
<!-- data.statistics&#45;&gt;config -->
<g id="edge36" class="edge">
<title>data.statistics&#45;&gt;config</title>
<path fill="none" stroke="#7d8597" d="M827.93,-834.87C874.92,-834.4 957.05,-831.13 1025.48,-815.64 1032.09,-814.15 1247.55,-731.91 1253.49,-728.64 1289.96,-708.56 1327.64,-679.16 1352.66,-658.19"/>
<polygon fill="#7d8597" stroke="#7d8597" points="1354.76,-661 1360.12,-651.86 1350.23,-655.66 1354.76,-661"/>
</g>
<!-- data.statistics&#45;&gt;data.indexing -->
<g id="edge37" class="edge">
<title>data.statistics&#45;&gt;data.indexing</title>
<path fill="none" stroke="#7d8597" d="M828.03,-852.93C836.98,-857.33 846.44,-862.09 855.17,-866.64 871.39,-875.12 874.92,-878.21 891.17,-886.64 897.48,-889.92 904.19,-893.29 910.81,-896.56"/>
<polygon fill="#7d8597" stroke="#7d8597" points="909.21,-899.67 919.73,-900.91 912.28,-893.38 909.21,-899.67"/>
</g>
<!-- data.statistics&#45;&gt;data.schema -->
<g id="edge38" class="edge">
<title>data.statistics&#45;&gt;data.schema</title>
<path fill="none" stroke="#7d8597" d="M827.83,-840.32C846.83,-843.05 870.18,-846.25 891.17,-848.64 967.64,-857.38 1056.8,-864.9 1109.85,-869.09"/>
<polygon fill="#7d8597" stroke="#7d8597" points="1109.49,-872.58 1119.73,-869.87 1110.03,-865.6 1109.49,-872.58"/>
</g>
<!-- data.statistics&#45;&gt;data.transforms -->
<g id="edge39" class="edge">
<title>data.statistics&#45;&gt;data.transforms</title>
<path fill="none" stroke="#7d8597" d="M827.89,-824.21C850.75,-817.93 880.17,-809.84 905.19,-802.97"/>
<polygon fill="#7d8597" stroke="#7d8597" points="905.79,-806.43 914.51,-800.41 903.94,-799.68 905.79,-806.43"/>
</g>
<!-- data.transforms&#45;&gt;config -->
<g id="edge40" class="edge">
<title>data.transforms&#45;&gt;config</title>
<path fill="none" stroke="#7d8597" d="M1000.61,-773.4C1083.01,-742.98 1266.69,-675.16 1345.15,-646.19"/>
<polygon fill="#7d8597" stroke="#7d8597" points="1345.91,-649.64 1354.08,-642.89 1343.49,-643.07 1345.91,-649.64"/>
</g>
<!-- data.transforms&#45;&gt;data.schema -->
<g id="edge41" class="edge">
<title>data.transforms&#45;&gt;data.schema</title>
<path fill="none" stroke="#7d8597" d="M1000.66,-806.25C1032.85,-819.97 1077.52,-839 1110.78,-853.17"/>
<polygon fill="#7d8597" stroke="#7d8597" points="1109.18,-856.3 1119.76,-857 1111.93,-849.86 1109.18,-856.3"/>
</g>
<!-- defaults -->
<g id="node17" class="node">
<title>defaults</title>
<path fill="#f4d35e" stroke="#7f6000" d="M398.37,-248.64C398.37,-248.64 368.37,-248.64 368.37,-248.64 362.37,-248.64 356.37,-242.64 356.37,-236.64 356.37,-236.64 356.37,-224.64 356.37,-224.64 356.37,-218.64 362.37,-212.64 368.37,-212.64 368.37,-212.64 398.37,-212.64 398.37,-212.64 404.37,-212.64 410.37,-218.64 410.37,-224.64 410.37,-224.64 410.37,-236.64 410.37,-236.64 410.37,-242.64 404.37,-248.64 398.37,-248.64"/>
<text text-anchor="middle" x="383.37" y="-226.77" font-family="Helvetica,sans-Serif" font-size="10.00">defaults</text>
</g>
<!-- defaults&#45;&gt;config -->
<g id="edge42" class="edge">
<title>defaults&#45;&gt;config</title>
<path fill="none" stroke="#7d8597" d="M410.59,-232.11C454.18,-234.42 544.34,-238.64 620.69,-238.64 620.69,-238.64 620.69,-238.64 959.32,-238.64 1024.91,-238.64 1201.64,-222.48 1253.49,-262.64 1362.98,-347.47 1379.48,-531.59 1381.66,-603.26"/>
<polygon fill="#7d8597" stroke="#7d8597" points="1378.15,-603.1 1381.87,-613.02 1385.15,-602.94 1378.15,-603.1"/>
</g>
<!-- environment -->
<g id="node18" class="node">
<title>environment</title>
<polygon fill="#d9eaf4" stroke="#0b3954" points="656.31,-161.64 653.31,-165.64 632.31,-165.64 629.31,-161.64 587.06,-161.64 587.06,-125.64 656.31,-125.64 656.31,-161.64"/>
<text text-anchor="middle" x="621.69" y="-139.77" font-family="Helvetica,sans-Serif" font-size="10.00">environment</text>
</g>
<!-- environment.detection -->
<g id="node19" class="node">
<title>environment.detection</title>
<ellipse fill="#f7f7f7" stroke="#6c757d" cx="788.9" cy="-78.64" rx="66.27" ry="18"/>
<text text-anchor="middle" x="788.9" y="-74.77" font-family="Helvetica,sans-Serif" font-size="10.00">environment.detection</text>
</g>
<!-- environment&#45;&gt;environment.detection -->
<g id="edge43" class="edge">
<title>environment&#45;&gt;environment.detection</title>
<path fill="none" stroke="#4f5d75" stroke-dasharray="5,2" d="M656.52,-130.33C680.42,-120.93 712.79,-108.19 739.43,-97.71"/>
<polygon fill="#4f5d75" stroke="#4f5d75" points="740.64,-101 748.66,-94.08 738.08,-94.48 740.64,-101"/>
</g>
<!-- environment.diagnostics -->
<g id="node20" class="node">
<title>environment.diagnostics</title>
<ellipse fill="#f7f7f7" stroke="#6c757d" cx="1382.83" cy="-232.64" rx="72.04" ry="18"/>
<text text-anchor="middle" x="1382.83" y="-228.77" font-family="Helvetica,sans-Serif" font-size="10.00">environment.diagnostics</text>
</g>
<!-- environment&#45;&gt;environment.diagnostics -->
<g id="edge44" class="edge">
<title>environment&#45;&gt;environment.diagnostics</title>
<path fill="none" stroke="#4f5d75" stroke-dasharray="5,2" d="M656.73,-152.16C675.97,-156.72 700.52,-162.1 722.63,-165.64 929.98,-198.89 1176.81,-218.79 1301.38,-227.47"/>
<polygon fill="#4f5d75" stroke="#4f5d75" points="1300.96,-230.95 1311.17,-228.15 1301.44,-223.97 1300.96,-230.95"/>
</g>
<!-- environment.profiles -->
<g id="node21" class="node">
<title>environment.profiles</title>
<ellipse fill="#f7f7f7" stroke="#6c757d" cx="1382.83" cy="-178.64" rx="61.39" ry="18"/>
<text text-anchor="middle" x="1382.83" y="-174.77" font-family="Helvetica,sans-Serif" font-size="10.00">environment.profiles</text>
</g>
<!-- environment&#45;&gt;environment.profiles -->
<g id="edge45" class="edge">
<title>environment&#45;&gt;environment.profiles</title>
<path fill="none" stroke="#4f5d75" stroke-dasharray="5,2" d="M656.78,-145.22C772.51,-150.55 1151.93,-168.04 1310.83,-175.37"/>
<polygon fill="#4f5d75" stroke="#4f5d75" points="1310.22,-178.85 1320.37,-175.81 1310.54,-171.85 1310.22,-178.85"/>
</g>
<!-- environment.tuning -->
<g id="node22" class="node">
<title>environment.tuning</title>
<ellipse fill="#f7f7f7" stroke="#6c757d" cx="1382.83" cy="-40.64" rx="58.28" ry="18"/>
<text text-anchor="middle" x="1382.83" y="-36.77" font-family="Helvetica,sans-Serif" font-size="10.00">environment.tuning</text>
</g>
<!-- environment&#45;&gt;environment.tuning -->
<g id="edge46" class="edge">
<title>environment&#45;&gt;environment.tuning</title>
<path fill="none" stroke="#4f5d75" stroke-dasharray="5,2" d="M635.74,-125.29C652.8,-103.06 684.96,-66.7 722.63,-51.64 930.35,31.41 1205.12,-5.94 1323.49,-28.26"/>
<polygon fill="#4f5d75" stroke="#4f5d75" points="1322.49,-31.63 1332.97,-30.08 1323.81,-24.75 1322.49,-31.63"/>
</g>
<!-- environment.types -->
<g id="node23" class="node">
<title>environment.types</title>
<ellipse fill="#f7f7f7" stroke="#6c757d" cx="1574" cy="-140.64" rx="56.95" ry="18"/>
<text text-anchor="middle" x="1574" y="-136.77" font-family="Helvetica,sans-Serif" font-size="10.00">environment.types</text>
</g>
<!-- environment&#45;&gt;environment.types -->
<g id="edge47" class="edge">
<title>environment&#45;&gt;environment.types</title>
<path fill="none" stroke="#4f5d75" stroke-dasharray="5,2" d="M656.38,-140.46C716.67,-135.06 847.05,-124.64 957.32,-124.64 957.32,-124.64 957.32,-124.64 1158.49,-124.64 1281.31,-124.64 1424.45,-131.75 1506.33,-136.49"/>
<polygon fill="#4f5d75" stroke="#4f5d75" points="1506.01,-139.97 1516.2,-137.06 1506.42,-132.99 1506.01,-139.97"/>
</g>
<!-- environment.detection&#45;&gt;environment.types -->
<g id="edge48" class="edge">
<title>environment.detection&#45;&gt;environment.types</title>
<path fill="none" stroke="#7d8597" d="M854.83,-76.23C977.36,-72.88 1250.6,-71.11 1476.17,-110.64 1492.49,-113.5 1509.9,-118.32 1525.4,-123.26"/>
<polygon fill="#7d8597" stroke="#7d8597" points="1524.27,-126.58 1534.86,-126.39 1526.46,-119.93 1524.27,-126.58"/>
</g>
<!-- environment.diagnostics&#45;&gt;config.data -->
<g id="edge49" class="edge">
<title>environment.diagnostics&#45;&gt;config.data</title>
<path fill="none" stroke="#7d8597" d="M1388.73,-250.99C1401.23,-293.83 1438.62,-400.57 1512.17,-449.64 1564.81,-484.77 1750.05,-497.02 1839.22,-500.95"/>
<polygon fill="#7d8597" stroke="#7d8597" points="1838.98,-504.45 1849.12,-501.37 1839.27,-497.45 1838.98,-504.45"/>
</g>
<!-- environment.diagnostics&#45;&gt;config.observability -->
<g id="edge50" class="edge">
<title>environment.diagnostics&#45;&gt;config.observability</title>
<path fill="none" stroke="#7d8597" d="M1405.65,-250.08C1430.16,-268.8 1471.81,-298.07 1512.17,-314.64 1561.6,-334.95 1621.06,-346.98 1665.63,-353.78"/>
<polygon fill="#7d8597" stroke="#7d8597" points="1665.02,-357.23 1675.42,-355.22 1666.04,-350.31 1665.02,-357.23"/>
</g>
<!-- environment.diagnostics&#45;&gt;config.runtime -->
<g id="edge51" class="edge">
<title>environment.diagnostics&#45;&gt;config.runtime</title>
<path fill="none" stroke="#7d8597" d="M1454.24,-229.41C1519.53,-226.4 1615.43,-221.99 1675.69,-219.22"/>
<polygon fill="#7d8597" stroke="#7d8597" points="1675.54,-222.73 1685.37,-218.78 1675.22,-215.74 1675.54,-222.73"/>
</g>
<!-- environment.diagnostics&#45;&gt;environment.types -->
<g id="edge52" class="edge">
<title>environment.diagnostics&#45;&gt;environment.types</title>
<path fill="none" stroke="#7d8597" d="M1436.14,-220.37C1449.49,-216.43 1463.61,-211.52 1476.17,-205.64 1499.9,-194.53 1524.39,-178.04 1542.8,-164.45"/>
<polygon fill="#7d8597" stroke="#7d8597" points="1544.75,-167.37 1550.63,-158.56 1540.54,-161.77 1544.75,-167.37"/>
</g>
<!-- environment.profiles&#45;&gt;config.data -->
<g id="edge53" class="edge">
<title>environment.profiles&#45;&gt;config.data</title>
<path fill="none" stroke="#7d8597" d="M1428,-191.15C1521.82,-218.39 1737.05,-284.65 1793.72,-334.64 1837.46,-373.23 1865.32,-437.25 1878.63,-474.11"/>
<polygon fill="#7d8597" stroke="#7d8597" points="1875.2,-474.9 1881.8,-483.19 1881.81,-472.6 1875.2,-474.9"/>
</g>
<!-- environment.profiles&#45;&gt;config.observability -->
<g id="edge54" class="edge">
<title>environment.profiles&#45;&gt;config.observability</title>
<path fill="none" stroke="#7d8597" d="M1438.25,-186.69C1451.72,-190.69 1465.37,-196.68 1476.17,-205.64 1503.39,-228.25 1485.1,-253.86 1512.17,-276.64 1556.15,-313.68 1582.37,-293.49 1635.83,-314.64 1654.83,-322.16 1675.24,-331.91 1692.33,-340.58"/>
<polygon fill="#7d8597" stroke="#7d8597" points="1690.66,-343.66 1701.15,-345.12 1693.86,-337.43 1690.66,-343.66"/>
</g>
<!-- environment.profiles&#45;&gt;config.runtime -->
<g id="edge55" class="edge">
<title>environment.profiles&#45;&gt;config.runtime</title>
<path fill="none" stroke="#7d8597" d="M1440.9,-184.88C1506.28,-192.02 1612.67,-203.64 1677.05,-210.67"/>
<polygon fill="#7d8597" stroke="#7d8597" points="1676.35,-214.11 1686.67,-211.72 1677.11,-207.15 1676.35,-214.11"/>
</g>
<!-- environment.profiles&#45;&gt;environment.types -->
<g id="edge56" class="edge">
<title>environment.profiles&#45;&gt;environment.types</title>
<path fill="none" stroke="#7d8597" d="M1434.03,-168.56C1458.63,-163.62 1488.41,-157.64 1514.08,-152.48"/>
<polygon fill="#7d8597" stroke="#7d8597" points="1514.58,-155.95 1523.69,-150.55 1513.2,-149.09 1514.58,-155.95"/>
</g>
<!-- environment.tuning&#45;&gt;config.runtime -->
<g id="edge57" class="edge">
<title>environment.tuning&#45;&gt;config.runtime</title>
<path fill="none" stroke="#7d8597" d="M1436.87,-47.55C1490.32,-56.38 1573.56,-75.34 1635.83,-113.64 1667.85,-133.34 1696.03,-166.55 1713.42,-189.92"/>
<polygon fill="#7d8597" stroke="#7d8597" points="1710.39,-191.7 1719.09,-197.74 1716.05,-187.59 1710.39,-191.7"/>
</g>
<!-- environment.tuning&#45;&gt;environment.types -->
<g id="edge58" class="edge">
<title>environment.tuning&#45;&gt;environment.types</title>
<path fill="none" stroke="#7d8597" d="M1426.68,-52.74C1442.62,-57.95 1460.61,-64.68 1476.17,-72.64 1500.15,-84.91 1524.97,-102.46 1543.48,-116.65"/>
<polygon fill="#7d8597" stroke="#7d8597" points="1541.32,-119.4 1551.35,-122.79 1545.62,-113.88 1541.32,-119.4"/>
</g>
<!-- environment.types&#45;&gt;config.data -->
<g id="edge59" class="edge">
<title>environment.types&#45;&gt;config.data</title>
<path fill="none" stroke="#7d8597" d="M1630.61,-138.34C1679.61,-139.38 1749.85,-148.82 1793.72,-189.64 1875.7,-265.93 1887.25,-410.6 1888.24,-472.89"/>
<polygon fill="#7d8597" stroke="#7d8597" points="1884.74,-472.72 1888.3,-482.69 1891.74,-472.67 1884.74,-472.72"/>
</g>
<!-- environment.types&#45;&gt;config.observability -->
<g id="edge60" class="edge">
<title>environment.types&#45;&gt;config.observability</title>
<path fill="none" stroke="#7d8597" d="M1587.57,-158.36C1614.91,-196.91 1679.99,-288.64 1712.54,-334.53"/>
<polygon fill="#7d8597" stroke="#7d8597" points="1709.64,-336.48 1718.28,-342.61 1715.35,-332.43 1709.64,-336.48"/>
</g>
<!-- environment.types&#45;&gt;config.runtime -->
<g id="edge61" class="edge">
<title>environment.types&#45;&gt;config.runtime</title>
<path fill="none" stroke="#7d8597" d="M1606.35,-155.84C1631.2,-167.89 1666.06,-184.78 1692.72,-197.71"/>
<polygon fill="#7d8597" stroke="#7d8597" points="1690.97,-200.75 1701.5,-201.97 1694.03,-194.46 1690.97,-200.75"/>
</g>
<!-- evaluation -->
<g id="node24" class="node">
<title>evaluation</title>
<polygon fill="#d9eaf4" stroke="#0b3954" points="1604.13,-1855.64 1601.13,-1859.64 1580.13,-1859.64 1577.13,-1855.64 1543.88,-1855.64 1543.88,-1819.64 1604.13,-1819.64 1604.13,-1855.64"/>
<text text-anchor="middle" x="1574" y="-1833.77" font-family="Helvetica,sans-Serif" font-size="10.00">evaluation</text>
</g>
<!-- evaluation.core -->
<g id="node25" class="node">
<title>evaluation.core</title>
<ellipse fill="#f7f7f7" stroke="#6c757d" cx="1888.89" cy="-1827.64" rx="48.52" ry="18"/>
<text text-anchor="middle" x="1888.89" y="-1823.77" font-family="Helvetica,sans-Serif" font-size="10.00">evaluation.core</text>
</g>
<!-- evaluation&#45;&gt;evaluation.core -->
<g id="edge62" class="edge">
<title>evaluation&#45;&gt;evaluation.core</title>
<path fill="none" stroke="#4f5d75" stroke-dasharray="5,2" d="M1604.44,-1836.7C1655.63,-1835.07 1761.99,-1831.67 1828.87,-1829.53"/>
<polygon fill="#4f5d75" stroke="#4f5d75" points="1828.67,-1833.04 1838.55,-1829.22 1828.45,-1826.04 1828.67,-1833.04"/>
</g>
<!-- evaluation.evaluator -->
<g id="node26" class="node">
<title>evaluation.evaluator</title>
<ellipse fill="#f7f7f7" stroke="#6c757d" cx="1732.78" cy="-1791.64" rx="60.94" ry="18"/>
<text text-anchor="middle" x="1732.78" y="-1787.77" font-family="Helvetica,sans-Serif" font-size="10.00">evaluation.evaluator</text>
</g>
<!-- evaluation&#45;&gt;evaluation.evaluator -->
<g id="edge63" class="edge">
<title>evaluation&#45;&gt;evaluation.evaluator</title>
<path fill="none" stroke="#4f5d75" stroke-dasharray="5,2" d="M1604.49,-1828.99C1625.03,-1822.97 1653.02,-1814.75 1677.53,-1807.56"/>
<polygon fill="#4f5d75" stroke="#4f5d75" points="1678.44,-1810.94 1687.05,-1804.77 1676.47,-1804.23 1678.44,-1810.94"/>
</g>
<!-- evaluation.grouping -->
<g id="node27" class="node">
<title>evaluation.grouping</title>
<ellipse fill="#f7f7f7" stroke="#6c757d" cx="1888.89" cy="-1881.64" rx="59.17" ry="18"/>
<text text-anchor="middle" x="1888.89" y="-1877.77" font-family="Helvetica,sans-Serif" font-size="10.00">evaluation.grouping</text>
</g>
<!-- evaluation&#45;&gt;evaluation.grouping -->
<g id="edge64" class="edge">
<title>evaluation&#45;&gt;evaluation.grouping</title>
<path fill="none" stroke="#4f5d75" stroke-dasharray="5,2" d="M1604.44,-1841.78C1654.19,-1848.78 1756.06,-1863.11 1823.15,-1872.54"/>
<polygon fill="#4f5d75" stroke="#4f5d75" points="1822.53,-1875.99 1832.92,-1873.91 1823.51,-1869.06 1822.53,-1875.99"/>
</g>
<!-- evaluation.metrics -->
<g id="node28" class="node">
<title>evaluation.metrics</title>
<ellipse fill="#f7f7f7" stroke="#6c757d" cx="1888.89" cy="-1735.64" rx="56.51" ry="18"/>
<text text-anchor="middle" x="1888.89" y="-1731.77" font-family="Helvetica,sans-Serif" font-size="10.00">evaluation.metrics</text>
</g>
<!-- evaluation&#45;&gt;evaluation.metrics -->
<g id="edge65" class="edge">
<title>evaluation&#45;&gt;evaluation.metrics</title>
<path fill="none" stroke="#4f5d75" stroke-dasharray="5,2" d="M1593.18,-1819.3C1611.39,-1802.13 1641.06,-1777.28 1671.83,-1764.64 1719.24,-1745.18 1776.94,-1738.19 1820.78,-1735.93"/>
<polygon fill="#4f5d75" stroke="#4f5d75" points="1820.84,-1739.43 1830.67,-1735.49 1820.53,-1732.43 1820.84,-1739.43"/>
</g>
<!-- evaluation.types -->
<g id="node29" class="node">
<title>evaluation.types</title>
<ellipse fill="#f7f7f7" stroke="#6c757d" cx="2035.69" cy="-1854.64" rx="51.63" ry="18"/>
<text text-anchor="middle" x="2035.69" y="-1850.77" font-family="Helvetica,sans-Serif" font-size="10.00">evaluation.types</text>
</g>
<!-- evaluation&#45;&gt;evaluation.types -->
<g id="edge66" class="edge">
<title>evaluation&#45;&gt;evaluation.types</title>
<path fill="none" stroke="#4f5d75" stroke-dasharray="5,2" d="M1604.45,-1852.46C1668.03,-1882.45 1822.56,-1944.56 1948.06,-1908.64 1969.14,-1902.61 1990.08,-1889.8 2006.09,-1878.17"/>
<polygon fill="#4f5d75" stroke="#4f5d75" points="2007.82,-1881.24 2013.7,-1872.43 2003.61,-1875.65 2007.82,-1881.24"/>
</g>
<!-- evaluation.core&#45;&gt;evaluation.types -->
<g id="edge67" class="edge">
<title>evaluation.core&#45;&gt;evaluation.types</title>
<path fill="none" stroke="#7d8597" d="M1932.94,-1835.67C1947.16,-1838.32 1963.19,-1841.31 1978.25,-1844.12"/>
<polygon fill="#7d8597" stroke="#7d8597" points="1977.58,-1847.56 1988.05,-1845.95 1978.86,-1840.67 1977.58,-1847.56"/>
</g>
<!-- evaluation.evaluator&#45;&gt;evaluation.core -->
<g id="edge68" class="edge">
<title>evaluation.evaluator&#45;&gt;evaluation.core</title>
<path fill="none" stroke="#7d8597" d="M1781.7,-1802.84C1798.87,-1806.85 1818.32,-1811.39 1835.83,-1815.48"/>
<polygon fill="#7d8597" stroke="#7d8597" points="1835.01,-1818.89 1845.54,-1817.75 1836.6,-1812.07 1835.01,-1818.89"/>
</g>
<!-- evaluation.evaluator&#45;&gt;evaluation.grouping -->
<g id="edge69" class="edge">
<title>evaluation.evaluator&#45;&gt;evaluation.grouping</title>
<path fill="none" stroke="#7d8597" d="M1757.23,-1808.44C1776.29,-1821.74 1804.13,-1840.4 1829.72,-1854.64 1834.11,-1857.09 1838.76,-1859.5 1843.43,-1861.83"/>
<polygon fill="#7d8597" stroke="#7d8597" points="1841.75,-1864.91 1852.28,-1866.1 1844.79,-1858.6 1841.75,-1864.91"/>
</g>
<!-- evaluation.evaluator&#45;&gt;evaluation.metrics -->
<g id="edge70" class="edge">
<title>evaluation.evaluator&#45;&gt;evaluation.metrics</title>
<path fill="none" stroke="#7d8597" d="M1772.27,-1777.66C1792.71,-1770.23 1818.03,-1761.03 1839.76,-1753.13"/>
<polygon fill="#7d8597" stroke="#7d8597" points="1840.8,-1756.48 1849,-1749.78 1838.41,-1749.9 1840.8,-1756.48"/>
</g>
<!-- evaluation.evaluator&#45;&gt;evaluation.types -->
<g id="edge71" class="edge">
<title>evaluation.evaluator&#45;&gt;evaluation.types</title>
<path fill="none" stroke="#7d8597" d="M1791.06,-1786.24C1835.01,-1783.94 1896.66,-1784.76 1948.06,-1800.64 1968.87,-1807.07 1989.66,-1819.77 2005.66,-1831.24"/>
<polygon fill="#7d8597" stroke="#7d8597" points="2003.15,-1833.74 2013.27,-1836.89 2007.33,-1828.12 2003.15,-1833.74"/>
</g>
<!-- evaluation.grouping&#45;&gt;evaluation.types -->
<g id="edge72" class="edge">
<title>evaluation.grouping&#45;&gt;evaluation.types</title>
<path fill="none" stroke="#7d8597" d="M1940.13,-1872.28C1952.38,-1869.99 1965.58,-1867.53 1978.11,-1865.19"/>
<polygon fill="#7d8597" stroke="#7d8597" points="1978.71,-1868.64 1987.9,-1863.37 1977.42,-1861.76 1978.71,-1868.64"/>
</g>
<!-- main -->
<g id="node30" class="node">
<title>main</title>
<path fill="#f4d35e" stroke="#7f6000" d="M45.12,-324.64C45.12,-324.64 15.12,-324.64 15.12,-324.64 9.13,-324.64 3.12,-318.64 3.12,-312.64 3.12,-312.64 3.12,-300.64 3.12,-300.64 3.12,-294.64 9.12,-288.64 15.12,-288.64 15.12,-288.64 45.12,-288.64 45.12,-288.64 51.12,-288.64 57.12,-294.64 57.12,-300.64 57.12,-300.64 57.12,-312.64 57.12,-312.64 57.12,-318.64 51.12,-324.64 45.12,-324.64"/>
<text text-anchor="middle" x="30.12" y="-302.77" font-family="Helvetica,sans-Serif" font-size="10.00">main</text>
</g>
<!-- main&#45;&gt;defaults -->
<g id="edge73" class="edge">
<title>main&#45;&gt;defaults</title>
<path fill="none" stroke="#7d8597" d="M57.6,-288.55C69.02,-281.57 82.82,-274.18 96.25,-269.64 181.87,-240.69 288.79,-233.18 344.55,-231.26"/>
<polygon fill="#7d8597" stroke="#7d8597" points="344.57,-234.76 354.46,-230.97 344.36,-227.77 344.57,-234.76"/>
</g>
<!-- workflows.cli -->
<g id="node61" class="node">
<title>workflows.cli</title>
<path fill="#e8f5e9" stroke="#2d6a4f" d="M157.25,-324.64C157.25,-324.64 108.25,-324.64 108.25,-324.64 102.25,-324.64 96.25,-318.64 96.25,-312.64 96.25,-312.64 96.25,-300.64 96.25,-300.64 96.25,-294.64 102.25,-288.64 108.25,-288.64 108.25,-288.64 157.25,-288.64 157.25,-288.64 163.25,-288.64 169.25,-294.64 169.25,-300.64 169.25,-300.64 169.25,-312.64 169.25,-312.64 169.25,-318.64 163.25,-324.64 157.25,-324.64"/>
<text text-anchor="middle" x="132.75" y="-302.77" font-family="Helvetica,sans-Serif" font-size="10.00">workflows.cli</text>
</g>
<!-- main&#45;&gt;workflows.cli -->
<g id="edge74" class="edge">
<title>main&#45;&gt;workflows.cli</title>
<path fill="none" stroke="#7d8597" d="M57.56,-306.64C65.93,-306.64 75.43,-306.64 84.79,-306.64"/>
<polygon fill="#7d8597" stroke="#7d8597" points="84.52,-310.14 94.52,-306.64 84.52,-303.14 84.52,-310.14"/>
</g>
<!-- workflows.helpers -->
<g id="node62" class="node">
<title>workflows.helpers</title>
<path fill="#e8f5e9" stroke="#2d6a4f" d="M418.75,-340.64C418.75,-340.64 348,-340.64 348,-340.64 342,-340.64 336,-334.64 336,-328.64 336,-328.64 336,-316.64 336,-316.64 336,-310.64 342,-304.64 348,-304.64 348,-304.64 418.75,-304.64 418.75,-304.64 424.75,-304.64 430.75,-310.64 430.75,-316.64 430.75,-316.64 430.75,-328.64 430.75,-328.64 430.75,-334.64 424.75,-340.64 418.75,-340.64"/>
<text text-anchor="middle" x="383.37" y="-318.77" font-family="Helvetica,sans-Serif" font-size="10.00">workflows.helpers</text>
</g>
<!-- main&#45;&gt;workflows.helpers -->
<g id="edge75" class="edge">
<title>main&#45;&gt;workflows.helpers</title>
<path fill="none" stroke="#7d8597" d="M57.31,-293.02C68.91,-287.73 82.93,-282.3 96.25,-279.64 174.93,-263.98 266.8,-284.6 324.78,-302.32"/>
<polygon fill="#7d8597" stroke="#7d8597" points="323.52,-305.59 334.11,-305.25 325.62,-298.92 323.52,-305.59"/>
</g>
<!-- workflows.training -->
<g id="node63" class="node">
<title>workflows.training</title>
<path fill="#e8f5e9" stroke="#2d6a4f" d="M288,-530.64C288,-530.64 217.25,-530.64 217.25,-530.64 211.25,-530.64 205.25,-524.64 205.25,-518.64 205.25,-518.64 205.25,-506.64 205.25,-506.64 205.25,-500.64 211.25,-494.64 217.25,-494.64 217.25,-494.64 288,-494.64 288,-494.64 294,-494.64 300,-500.64 300,-506.64 300,-506.64 300,-518.64 300,-518.64 300,-524.64 294,-530.64 288,-530.64"/>
<text text-anchor="middle" x="252.62" y="-508.77" font-family="Helvetica,sans-Serif" font-size="10.00">workflows.training</text>
</g>
<!-- main&#45;&gt;workflows.training -->
<g id="edge76" class="edge">
<title>main&#45;&gt;workflows.training</title>
<path fill="none" stroke="#7d8597" d="M50.69,-324.93C90,-361.65 178.66,-444.48 223.92,-486.76"/>
<polygon fill="#7d8597" stroke="#7d8597" points="221.3,-489.1 230.99,-493.37 226.08,-483.99 221.3,-489.1"/>
</g>
<!-- workflows.types -->
<g id="node64" class="node">
<title>workflows.types</title>
<path fill="#e8f5e9" stroke="#2d6a4f" d="M415,-420.64C415,-420.64 351.75,-420.64 351.75,-420.64 345.75,-420.64 339.75,-414.64 339.75,-408.64 339.75,-408.64 339.75,-396.64 339.75,-396.64 339.75,-390.64 345.75,-384.64 351.75,-384.64 351.75,-384.64 415,-384.64 415,-384.64 421,-384.64 427,-390.64 427,-396.64 427,-396.64 427,-408.64 427,-408.64 427,-414.64 421,-420.64 415,-420.64"/>
<text text-anchor="middle" x="383.37" y="-398.77" font-family="Helvetica,sans-Serif" font-size="10.00">workflows.types</text>
</g>
<!-- main&#45;&gt;workflows.types -->
<g id="edge77" class="edge">
<title>main&#45;&gt;workflows.types</title>
<path fill="none" stroke="#7d8597" d="M57.49,-318.33C69.24,-323.34 83.32,-329.08 96.25,-333.64 175.08,-361.47 270,-381.91 328.26,-393.04"/>
<polygon fill="#7d8597" stroke="#7d8597" points="327.44,-396.45 337.92,-394.86 328.74,-389.57 327.44,-396.45"/>
</g>
<!-- models.fused_model -->
<g id="node31" class="node">
<title>models.fused_model</title>
<path fill="#e8f5e9" stroke="#2d6a4f" d="M829.9,-531.64C829.9,-531.64 747.9,-531.64 747.9,-531.64 741.9,-531.64 735.9,-525.64 735.9,-519.64 735.9,-519.64 735.9,-507.64 735.9,-507.64 735.9,-501.64 741.9,-495.64 747.9,-495.64 747.9,-495.64 829.9,-495.64 829.9,-495.64 835.9,-495.64 841.9,-501.64 841.9,-507.64 841.9,-507.64 841.9,-519.64 841.9,-519.64 841.9,-525.64 835.9,-531.64 829.9,-531.64"/>
<text text-anchor="middle" x="788.9" y="-509.77" font-family="Helvetica,sans-Serif" font-size="10.00">models.fused_model</text>
</g>
<!-- models.fused_model&#45;&gt;config -->
<g id="edge78" class="edge">
<title>models.fused_model&#45;&gt;config</title>
<path fill="none" stroke="#7d8597" d="M818.28,-495.38C837.9,-483.85 865.06,-469.98 891.17,-463.64 1047.66,-425.66 1109.54,-388.45 1253.49,-460.64 1313.31,-490.65 1352.36,-563.22 1370.34,-603.85"/>
<polygon fill="#7d8597" stroke="#7d8597" points="1367.11,-605.2 1374.26,-613.02 1373.55,-602.45 1367.11,-605.2"/>
</g>
<!-- models.fused_model&#45;&gt;evaluation -->
<g id="edge79" class="edge">
<title>models.fused_model&#45;&gt;evaluation</title>
<path fill="none" stroke="#7d8597" d="M794.89,-532.06C807.17,-578.12 839.04,-702.21 855.17,-807.64 883.63,-993.72 818.69,-1055.92 891.17,-1229.64 993.24,-1474.31 1067.33,-1528.99 1289.49,-1673.64 1363.11,-1721.58 1402,-1691.55 1476.17,-1738.64 1506.54,-1757.93 1534.48,-1788.49 1552.47,-1810.56"/>
<polygon fill="#7d8597" stroke="#7d8597" points="1549.63,-1812.61 1558.6,-1818.25 1555.11,-1808.25 1549.63,-1812.61"/>
</g>
<!-- models.grn -->
<g id="node32" class="node">
<title>models.grn</title>
<path fill="#e8f5e9" stroke="#2d6a4f" d="M1177.49,-532.64C1177.49,-532.64 1137.49,-532.64 1137.49,-532.64 1131.49,-532.64 1125.49,-526.64 1125.49,-520.64 1125.49,-520.64 1125.49,-508.64 1125.49,-508.64 1125.49,-502.64 1131.49,-496.64 1137.49,-496.64 1137.49,-496.64 1177.49,-496.64 1177.49,-496.64 1183.49,-496.64 1189.49,-502.64 1189.49,-508.64 1189.49,-508.64 1189.49,-520.64 1189.49,-520.64 1189.49,-526.64 1183.49,-532.64 1177.49,-532.64"/>
<text text-anchor="middle" x="1157.49" y="-510.77" font-family="Helvetica,sans-Serif" font-size="10.00">models.grn</text>
</g>
<!-- models.fused_model&#45;&gt;models.grn -->
<g id="edge80" class="edge">
<title>models.fused_model&#45;&gt;models.grn</title>
<path fill="none" stroke="#7d8597" d="M842.19,-516.1C857.93,-516.74 875.25,-517.33 891.17,-517.64 969.74,-519.2 1061.41,-517.35 1113.84,-515.94"/>
<polygon fill="#7d8597" stroke="#7d8597" points="1113.62,-519.45 1123.52,-515.67 1113.43,-512.45 1113.62,-519.45"/>
</g>
<!-- models.nn_head -->
<g id="node33" class="node">
<title>models.nn_head</title>
<path fill="#e8f5e9" stroke="#2d6a4f" d="M989.95,-416.64C989.95,-416.64 926.7,-416.64 926.7,-416.64 920.7,-416.64 914.7,-410.64 914.7,-404.64 914.7,-404.64 914.7,-392.64 914.7,-392.64 914.7,-386.64 920.7,-380.64 926.7,-380.64 926.7,-380.64 989.95,-380.64 989.95,-380.64 995.95,-380.64 1001.95,-386.64 1001.95,-392.64 1001.95,-392.64 1001.95,-404.64 1001.95,-404.64 1001.95,-410.64 995.95,-416.64 989.95,-416.64"/>
<text text-anchor="middle" x="958.32" y="-394.77" font-family="Helvetica,sans-Serif" font-size="10.00">models.nn_head</text>
</g>
<!-- models.fused_model&#45;&gt;models.nn_head -->
<g id="edge81" class="edge">
<title>models.fused_model&#45;&gt;models.nn_head</title>
<path fill="none" stroke="#7d8597" d="M809.38,-495.31C829.02,-477.41 860.71,-450.1 891.17,-430.64 895.7,-427.75 900.53,-424.94 905.45,-422.26"/>
<polygon fill="#7d8597" stroke="#7d8597" points="906.98,-425.41 914.23,-417.68 903.74,-419.21 906.98,-425.41"/>
</g>
<!-- models.tcn -->
<g id="node34" class="node">
<title>models.tcn</title>
<path fill="#e8f5e9" stroke="#2d6a4f" d="M978.32,-600.64C978.32,-600.64 938.32,-600.64 938.32,-600.64 932.32,-600.64 926.32,-594.64 926.32,-588.64 926.32,-588.64 926.32,-576.64 926.32,-576.64 926.32,-570.64 932.32,-564.64 938.32,-564.64 938.32,-564.64 978.32,-564.64 978.32,-564.64 984.32,-564.64 990.32,-570.64 990.32,-576.64 990.32,-576.64 990.32,-588.64 990.32,-588.64 990.32,-594.64 984.32,-600.64 978.32,-600.64"/>
<text text-anchor="middle" x="958.32" y="-578.77" font-family="Helvetica,sans-Serif" font-size="10.00">models.tcn</text>
</g>
<!-- models.fused_model&#45;&gt;models.tcn -->
<g id="edge82" class="edge">
<title>models.fused_model&#45;&gt;models.tcn</title>
<path fill="none" stroke="#7d8597" d="M834.76,-532.14C859.82,-542.46 890.85,-555.25 915.42,-565.37"/>
<polygon fill="#7d8597" stroke="#7d8597" points="913.88,-568.53 924.46,-569.1 916.55,-562.05 913.88,-568.53"/>
</g>
<!-- models.tft -->
<g id="node35" class="node">
<title>models.tft</title>
<path fill="#e8f5e9" stroke="#2d6a4f" d="M976.07,-508.64C976.07,-508.64 940.57,-508.64 940.57,-508.64 934.57,-508.64 928.57,-502.64 928.57,-496.64 928.57,-496.64 928.57,-484.64 928.57,-484.64 928.57,-478.64 934.57,-472.64 940.57,-472.64 940.57,-472.64 976.07,-472.64 976.07,-472.64 982.07,-472.64 988.07,-478.64 988.07,-484.64 988.07,-484.64 988.07,-496.64 988.07,-496.64 988.07,-502.64 982.07,-508.64 976.07,-508.64"/>
<text text-anchor="middle" x="958.32" y="-486.77" font-family="Helvetica,sans-Serif" font-size="10.00">models.tft</text>
</g>
<!-- models.fused_model&#45;&gt;models.tft -->
<g id="edge83" class="edge">
<title>models.fused_model&#45;&gt;models.tft</title>
<path fill="none" stroke="#7d8597" d="M841.95,-506.49C866.15,-503.17 894.49,-499.28 917.02,-496.18"/>
<polygon fill="#7d8597" stroke="#7d8597" points="917.29,-499.68 926.72,-494.85 916.34,-492.74 917.29,-499.68"/>
</g>
<!-- observability.tensors -->
<g id="node46" class="node">
<title>observability.tensors</title>
<ellipse fill="#f7f7f7" stroke="#6c757d" cx="1574" cy="-1164.64" rx="61.83" ry="18"/>
<text text-anchor="middle" x="1574" y="-1160.77" font-family="Helvetica,sans-Serif" font-size="10.00">observability.tensors</text>
</g>
<!-- models.fused_model&#45;&gt;observability.tensors -->
<g id="edge84" class="edge">
<title>models.fused_model&#45;&gt;observability.tensors</title>
<path fill="none" stroke="#7d8597" d="M807.29,-532.03C826.79,-552.16 859.79,-584.88 891.17,-609.64 1042.04,-728.68 1101.89,-727.53 1253.49,-845.64 1359.84,-928.51 1382.66,-954.52 1476.17,-1051.64 1503.53,-1080.07 1532.71,-1114.8 1551.8,-1138.19"/>
<polygon fill="#7d8597" stroke="#7d8597" points="1548.87,-1140.13 1557.89,-1145.69 1554.3,-1135.72 1548.87,-1140.13"/>
</g>
<!-- models.grn&#45;&gt;config -->
<g id="edge85" class="edge">
<title>models.grn&#45;&gt;config</title>
<path fill="none" stroke="#7d8597" d="M1189.69,-522.88C1208.64,-528.43 1233.03,-536.57 1253.49,-546.64 1288.27,-563.77 1324.68,-588.97 1349.8,-607.67"/>
<polygon fill="#7d8597" stroke="#7d8597" points="1347.55,-610.36 1357.64,-613.58 1351.76,-604.76 1347.55,-610.36"/>
</g>
<!-- models.tcn&#45;&gt;config -->
<g id="edge86" class="edge">
<title>models.tcn&#45;&gt;config</title>
<path fill="none" stroke="#7d8597" d="M990.58,-579.31C1044.68,-574.32 1159.07,-567.23 1253.49,-584.64 1285.63,-590.57 1320.23,-603.96 1345.4,-615.09"/>
<polygon fill="#7d8597" stroke="#7d8597" points="1343.64,-618.14 1354.19,-619.08 1346.53,-611.76 1343.64,-618.14"/>
</g>
<!-- models.tft&#45;&gt;config -->
<g id="edge87" class="edge">
<title>models.tft&#45;&gt;config</title>
<path fill="none" stroke="#7d8597" d="M988.52,-482.63C1043.32,-469.2 1164.08,-447.38 1253.49,-487.64 1306.64,-511.58 1346.66,-569.61 1366.96,-604.57"/>
<polygon fill="#7d8597" stroke="#7d8597" points="1363.69,-605.88 1371.65,-612.87 1369.78,-602.44 1363.69,-605.88"/>
</g>
<!-- models.tft&#45;&gt;models.grn -->
<g id="edge88" class="edge">
<title>models.tft&#45;&gt;models.grn</title>
<path fill="none" stroke="#7d8597" d="M988.42,-494.19C1021.52,-498.22 1075.89,-504.83 1113.8,-509.45"/>
<polygon fill="#7d8597" stroke="#7d8597" points="1113.14,-512.89 1123.49,-510.63 1113.98,-505.94 1113.14,-512.89"/>
</g>
<!-- observability -->
<g id="node36" class="node">
<title>observability</title>
<polygon fill="#d9eaf4" stroke="#0b3954" points="657.06,-1174.64 654.06,-1178.64 633.06,-1178.64 630.06,-1174.64 586.31,-1174.64 586.31,-1138.64 657.06,-1138.64 657.06,-1174.64"/>
<text text-anchor="middle" x="621.69" y="-1152.77" font-family="Helvetica,sans-Serif" font-size="10.00">observability</text>
</g>
<!-- observability.callbacks -->
<g id="node37" class="node">
<title>observability.callbacks</title>
<ellipse fill="#f7f7f7" stroke="#6c757d" cx="958.32" cy="-1202.64" rx="67.16" ry="18"/>
<text text-anchor="middle" x="958.32" y="-1198.77" font-family="Helvetica,sans-Serif" font-size="10.00">observability.callbacks</text>
</g>
<!-- observability&#45;&gt;observability.callbacks -->
<g id="edge89" class="edge">
<title>observability&#45;&gt;observability.callbacks</title>
<path fill="none" stroke="#4f5d75" stroke-dasharray="5,2" d="M657.37,-1161.53C676.6,-1164.24 700.93,-1167.65 722.63,-1170.64 777.57,-1178.24 839.77,-1186.71 886.32,-1193.03"/>
<polygon fill="#4f5d75" stroke="#4f5d75" points="885.63,-1196.47 896.01,-1194.35 886.57,-1189.53 885.63,-1196.47"/>
</g>
<!-- observability.logging_utils -->
<g id="node39" class="node">
<title>observability.logging_utils</title>
<ellipse fill="#f7f7f7" stroke="#6c757d" cx="1382.83" cy="-1118.64" rx="74.7" ry="18"/>
<text text-anchor="middle" x="1382.83" y="-1114.77" font-family="Helvetica,sans-Serif" font-size="10.00">observability.logging_utils</text>
</g>
<!-- observability&#45;&gt;observability.logging_utils -->
<g id="edge90" class="edge">
<title>observability&#45;&gt;observability.logging_utils</title>
<path fill="none" stroke="#4f5d75" stroke-dasharray="5,2" d="M657.3,-1157.02C752.6,-1157.74 1026.76,-1157.77 1253.49,-1137.64 1271.79,-1136.02 1291.46,-1133.5 1309.76,-1130.82"/>
<polygon fill="#4f5d75" stroke="#4f5d75" points="1310.1,-1134.31 1319.46,-1129.37 1309.06,-1127.39 1310.1,-1134.31"/>
</g>
<!-- observability.runtime -->
<g id="node44" class="node">
<title>observability.runtime</title>
<ellipse fill="#f7f7f7" stroke="#6c757d" cx="1157.49" cy="-1110.64" rx="61.83" ry="18"/>
<text text-anchor="middle" x="1157.49" y="-1106.77" font-family="Helvetica,sans-Serif" font-size="10.00">observability.runtime</text>
</g>
<!-- observability&#45;&gt;observability.runtime -->
<g id="edge91" class="edge">
<title>observability&#45;&gt;observability.runtime</title>
<path fill="none" stroke="#4f5d75" stroke-dasharray="5,2" d="M657.31,-1151.23C676.51,-1148.36 700.85,-1144.97 722.63,-1142.64 849.89,-1129.05 998.78,-1119.43 1084.9,-1114.48"/>
<polygon fill="#4f5d75" stroke="#4f5d75" points="1085.07,-1117.98 1094.86,-1113.92 1084.67,-1110.99 1085.07,-1117.98"/>
</g>
<!-- reporting -->
<g id="node48" class="node">
<title>reporting</title>
<polygon fill="#d9eaf4" stroke="#0b3954" points="815.9,-1610.64 812.9,-1614.64 791.9,-1614.64 788.9,-1610.64 761.9,-1610.64 761.9,-1574.64 815.9,-1574.64 815.9,-1610.64"/>
<text text-anchor="middle" x="788.9" y="-1588.77" font-family="Helvetica,sans-Serif" font-size="10.00">reporting</text>
</g>
<!-- observability&#45;&gt;reporting -->
<g id="edge92" class="edge">
<title>observability&#45;&gt;reporting</title>
<path fill="none" stroke="#7d8597" d="M629.68,-1175.1C655.49,-1243.21 745.52,-1480.8 776.96,-1563.78"/>
<polygon fill="#7d8597" stroke="#7d8597" points="773.64,-1564.9 780.46,-1573.01 780.19,-1562.42 773.64,-1564.9"/>
</g>
<!-- observability.callbacks&#45;&gt;config -->
<g id="edge93" class="edge">
<title>observability.callbacks&#45;&gt;config</title>
<path fill="none" stroke="#7d8597" d="M968.42,-1184.64C981.92,-1157.53 1007.57,-1104.42 1025.48,-1057.64 1044.64,-1007.63 1022.07,-978.91 1061.48,-942.64 1125.83,-883.43 1185.03,-954.05 1253.49,-899.64 1331.14,-837.93 1364.63,-717.68 1376.43,-662.11"/>
<polygon fill="#7d8597" stroke="#7d8597" points="1379.83,-662.94 1378.38,-652.45 1372.97,-661.56 1379.83,-662.94"/>
</g>
<!-- observability.debug_callbacks -->
<g id="node38" class="node">
<title>observability.debug_callbacks</title>
<ellipse fill="#f7f7f7" stroke="#6c757d" cx="1157.49" cy="-1056.64" rx="85.8" ry="18"/>
<text text-anchor="middle" x="1157.49" y="-1052.77" font-family="Helvetica,sans-Serif" font-size="10.00">observability.debug_callbacks</text>
</g>
<!-- observability.callbacks&#45;&gt;observability.debug_callbacks -->
<g id="edge94" class="edge">
<title>observability.callbacks&#45;&gt;observability.debug_callbacks</title>
<path fill="none" stroke="#7d8597" d="M969.8,-1184.83C986.09,-1158.69 1019.97,-1110.2 1061.48,-1083.64 1068.06,-1079.44 1075.3,-1075.87 1082.77,-1072.85"/>
<polygon fill="#7d8597" stroke="#7d8597" points="1083.82,-1076.19 1092,-1069.46 1081.41,-1069.62 1083.82,-1076.19"/>
</g>
<!-- observability.parameter_callbacks -->
<g id="node41" class="node">
<title>observability.parameter_callbacks</title>
<ellipse fill="#f7f7f7" stroke="#6c757d" cx="1157.49" cy="-1002.64" rx="96" ry="18"/>
<text text-anchor="middle" x="1157.49" y="-998.77" font-family="Helvetica,sans-Serif" font-size="10.00">observability.parameter_callbacks</text>
</g>
<!-- observability.callbacks&#45;&gt;observability.parameter_callbacks -->
<g id="edge95" class="edge">
<title>observability.callbacks&#45;&gt;observability.parameter_callbacks</title>
<path fill="none" stroke="#7d8597" d="M967.89,-1184.49C987.05,-1144.56 1033.87,-1050.95 1061.48,-1029.64 1066.4,-1025.85 1071.84,-1022.58 1077.54,-1019.78"/>
<polygon fill="#7d8597" stroke="#7d8597" points="1078.87,-1023.02 1086.65,-1015.82 1076.08,-1016.6 1078.87,-1023.02"/>
</g>
<!-- observability.prediction_callbacks -->
<g id="node42" class="node">
<title>observability.prediction_callbacks</title>
<ellipse fill="#f7f7f7" stroke="#6c757d" cx="1157.49" cy="-1256.64" rx="95.12" ry="18"/>
<text text-anchor="middle" x="1157.49" y="-1252.77" font-family="Helvetica,sans-Serif" font-size="10.00">observability.prediction_callbacks</text>
</g>
<!-- observability.callbacks&#45;&gt;observability.prediction_callbacks -->
<g id="edge96" class="edge">
<title>observability.callbacks&#45;&gt;observability.prediction_callbacks</title>
<path fill="none" stroke="#7d8597" d="M1006.55,-1215.58C1031.89,-1222.52 1063.52,-1231.18 1091.19,-1238.76"/>
<polygon fill="#7d8597" stroke="#7d8597" points="1089.94,-1242.05 1100.51,-1241.31 1091.79,-1235.3 1089.94,-1242.05"/>
</g>
<!-- observability.system_callbacks -->
<g id="node45" class="node">
<title>observability.system_callbacks</title>
<ellipse fill="#f7f7f7" stroke="#6c757d" cx="1157.49" cy="-1202.64" rx="89.35" ry="18"/>
<text text-anchor="middle" x="1157.49" y="-1198.77" font-family="Helvetica,sans-Serif" font-size="10.00">observability.system_callbacks</text>
</g>
<!-- observability.callbacks&#45;&gt;observability.system_callbacks -->
<g id="edge97" class="edge">
<title>observability.callbacks&#45;&gt;observability.system_callbacks</title>
<path fill="none" stroke="#7d8597" d="M1025.8,-1202.64C1035.73,-1202.64 1046.16,-1202.64 1056.6,-1202.64"/>
<polygon fill="#7d8597" stroke="#7d8597" points="1056.4,-1206.14 1066.4,-1202.64 1056.4,-1199.14 1056.4,-1206.14"/>
</g>
<!-- observability.utils -->
<g id="node47" class="node">
<title>observability.utils</title>
<ellipse fill="#f7f7f7" stroke="#6c757d" cx="1382.83" cy="-1302.64" rx="53.4" ry="18"/>
<text text-anchor="middle" x="1382.83" y="-1298.77" font-family="Helvetica,sans-Serif" font-size="10.00">observability.utils</text>
</g>
<!-- observability.callbacks&#45;&gt;observability.utils -->
<g id="edge98" class="edge">
<title>observability.callbacks&#45;&gt;observability.utils</title>
<path fill="none" stroke="#7d8597" d="M974.98,-1220.32C993.46,-1239.8 1026.17,-1270.16 1061.48,-1283.64 1146.91,-1316.27 1254.49,-1314.87 1320.69,-1309.66"/>
<polygon fill="#7d8597" stroke="#7d8597" points="1320.98,-1313.15 1330.65,-1308.82 1320.39,-1306.18 1320.98,-1313.15"/>
</g>
<!-- observability.debug_callbacks&#45;&gt;config -->
<g id="edge99" class="edge">
<title>observability.debug_callbacks&#45;&gt;config</title>
<path fill="none" stroke="#7d8597" d="M1227.26,-1045.96C1236.93,-1042.07 1246.08,-1036.79 1253.49,-1029.64 1359.93,-926.95 1378.22,-735.51 1381.26,-662.23"/>
<polygon fill="#7d8597" stroke="#7d8597" points="1384.76,-662.36 1381.6,-652.25 1377.77,-662.12 1384.76,-662.36"/>
</g>
<!-- observability.debug_callbacks&#45;&gt;observability.logging_utils -->
<g id="edge100" class="edge">
<title>observability.debug_callbacks&#45;&gt;observability.logging_utils</title>
<path fill="none" stroke="#7d8597" d="M1210.85,-1071.18C1244.01,-1080.39 1286.99,-1092.32 1321.57,-1101.92"/>
<polygon fill="#7d8597" stroke="#7d8597" points="1320.44,-1105.24 1331.01,-1104.54 1322.31,-1098.49 1320.44,-1105.24"/>
</g>
<!-- observability.debug_callbacks&#45;&gt;observability.tensors -->
<g id="edge101" class="edge">
<title>observability.debug_callbacks&#45;&gt;observability.tensors</title>
<path fill="none" stroke="#7d8597" d="M1242.67,-1053.93C1308.45,-1054.6 1401,-1061.81 1476.17,-1091.64 1503.24,-1102.39 1529.34,-1122.84 1547.6,-1139.37"/>
<polygon fill="#7d8597" stroke="#7d8597" points="1545.1,-1141.83 1554.8,-1146.08 1549.87,-1136.7 1545.1,-1141.83"/>
</g>
<!-- observability.model_visualization -->
<g id="node40" class="node">
<title>observability.model_visualization</title>
<ellipse fill="#f7f7f7" stroke="#6c757d" cx="1382.83" cy="-1210.64" rx="93.34" ry="18"/>
<text text-anchor="middle" x="1382.83" y="-1206.77" font-family="Helvetica,sans-Serif" font-size="10.00">observability.model_visualization</text>
</g>
<!-- observability.parameter_callbacks&#45;&gt;config -->
<g id="edge102" class="edge">
<title>observability.parameter_callbacks&#45;&gt;config</title>
<path fill="none" stroke="#7d8597" d="M1223.64,-989.3C1234.58,-984.78 1245.09,-978.73 1253.49,-970.64 1343.55,-883.94 1371.16,-727.57 1378.98,-662.41"/>
<polygon fill="#7d8597" stroke="#7d8597" points="1382.45,-662.82 1380.09,-652.49 1375.5,-662.04 1382.45,-662.82"/>
</g>
<!-- observability.parameter_callbacks&#45;&gt;observability.logging_utils -->
<g id="edge103" class="edge">
<title>observability.parameter_callbacks&#45;&gt;observability.logging_utils</title>
<path fill="none" stroke="#7d8597" d="M1219.38,-1016.72C1230.96,-1020.3 1242.79,-1024.59 1253.49,-1029.64 1290.01,-1046.91 1327.48,-1074.22 1352.43,-1094.03"/>
<polygon fill="#7d8597" stroke="#7d8597" points="1350.2,-1096.73 1360.18,-1100.28 1354.59,-1091.28 1350.2,-1096.73"/>
</g>
<!-- observability.prediction_callbacks&#45;&gt;config -->
<g id="edge104" class="edge">
<title>observability.prediction_callbacks&#45;&gt;config</title>
<path fill="none" stroke="#7d8597" d="M1231.24,-1245.15C1239.56,-1241.32 1247.27,-1236.28 1253.49,-1229.64 1263.51,-1218.95 1352,-781.19 1375.9,-662.22"/>
<polygon fill="#7d8597" stroke="#7d8597" points="1379.29,-663.1 1377.83,-652.61 1372.43,-661.72 1379.29,-663.1"/>
</g>
<!-- observability.prediction_callbacks&#45;&gt;observability.logging_utils -->
<g id="edge105" class="edge">
<title>observability.prediction_callbacks&#45;&gt;observability.logging_utils</title>
<path fill="none" stroke="#7d8597" d="M1224.77,-1243.67C1234.87,-1240.07 1244.81,-1235.48 1253.49,-1229.64 1275.03,-1215.16 1270.67,-1201.53 1289.49,-1183.64 1306.03,-1167.92 1326.63,-1153.05 1344.17,-1141.51"/>
<polygon fill="#7d8597" stroke="#7d8597" points="1345.78,-1144.64 1352.28,-1136.28 1341.98,-1138.76 1345.78,-1144.64"/>
</g>
<!-- observability.prediction_callbacks&#45;&gt;observability.tensors -->
<g id="edge106" class="edge">
<title>observability.prediction_callbacks&#45;&gt;observability.tensors</title>
<path fill="none" stroke="#7d8597" d="M1243.47,-1264.64C1309.06,-1267.75 1400.99,-1265.33 1476.17,-1237.64 1503.67,-1227.52 1529.9,-1206.81 1548.1,-1190.03"/>
<polygon fill="#7d8597" stroke="#7d8597" points="1550.44,-1192.65 1555.27,-1183.22 1545.61,-1187.57 1550.44,-1192.65"/>
</g>
<!-- observability.prediction_callbacks&#45;&gt;observability.utils -->
<g id="edge107" class="edge">
<title>observability.prediction_callbacks&#45;&gt;observability.utils</title>
<path fill="none" stroke="#7d8597" d="M1223.39,-1270.01C1255.73,-1276.67 1294.47,-1284.65 1325.55,-1291.05"/>
<polygon fill="#7d8597" stroke="#7d8597" points="1324.64,-1294.44 1335.14,-1293.03 1326.05,-1287.58 1324.64,-1294.44"/>
</g>
<!-- observability.reporting -->
<g id="node43" class="node">
<title>observability.reporting</title>
<ellipse fill="#f7f7f7" stroke="#6c757d" cx="621.69" cy="-1508.64" rx="64.94" ry="18"/>
<text text-anchor="middle" x="621.69" y="-1504.77" font-family="Helvetica,sans-Serif" font-size="10.00">observability.reporting</text>
</g>
<!-- observability.reporting&#45;&gt;reporting -->
<g id="edge108" class="edge">
<title>observability.reporting&#45;&gt;reporting</title>
<path fill="none" stroke="#7d8597" d="M654.59,-1524.53C664.83,-1529.65 676.22,-1535.37 686.63,-1540.64 708.19,-1551.58 732.28,-1563.94 751.54,-1573.86"/>
<polygon fill="#7d8597" stroke="#7d8597" points="749.87,-1576.94 760.36,-1578.41 753.08,-1570.72 749.87,-1576.94"/>
</g>
<!-- observability.runtime&#45;&gt;config -->
<g id="edge109" class="edge">
<title>observability.runtime&#45;&gt;config</title>
<path fill="none" stroke="#7d8597" d="M1215.72,-1104.25C1229.57,-1100.23 1243.3,-1093.83 1253.49,-1083.64 1373.14,-964.03 1383.1,-741.38 1382.62,-661.83"/>
<polygon fill="#7d8597" stroke="#7d8597" points="1386.12,-662.21 1382.49,-652.26 1379.12,-662.3 1386.12,-662.21"/>
</g>
<!-- observability.runtime&#45;&gt;observability.utils -->
<g id="edge110" class="edge">
<title>observability.runtime&#45;&gt;observability.utils</title>
<path fill="none" stroke="#7d8597" d="M1188.47,-1126.46C1208.58,-1138.13 1234.72,-1155.44 1253.49,-1175.64 1275.17,-1198.99 1267.96,-1214.15 1289.49,-1237.64 1305.13,-1254.72 1326,-1269.88 1343.94,-1281.25"/>
<polygon fill="#7d8597" stroke="#7d8597" points="1341.91,-1284.11 1352.26,-1286.37 1345.58,-1278.15 1341.91,-1284.11"/>
</g>
<!-- observability.system_callbacks&#45;&gt;config -->
<g id="edge111" class="edge">
<title>observability.system_callbacks&#45;&gt;config</title>
<path fill="none" stroke="#7d8597" d="M1195,-1185.87C1215.09,-1174.86 1238.84,-1158.61 1253.49,-1137.64 1361.52,-983.02 1378.71,-745.24 1381.37,-662.36"/>
<polygon fill="#7d8597" stroke="#7d8597" points="1384.86,-662.67 1381.63,-652.58 1377.87,-662.48 1384.86,-662.67"/>
</g>
<!-- observability.system_callbacks&#45;&gt;observability.logging_utils -->
<g id="edge112" class="edge">
<title>observability.system_callbacks&#45;&gt;observability.logging_utils</title>
<path fill="none" stroke="#7d8597" d="M1208.94,-1187.55C1223.52,-1182.68 1239.32,-1176.9 1253.49,-1170.64 1270.23,-1163.25 1272.78,-1158.11 1289.49,-1150.64 1300.75,-1145.61 1313.07,-1140.85 1324.94,-1136.62"/>
<polygon fill="#7d8597" stroke="#7d8597" points="1325.93,-1139.98 1334.23,-1133.39 1323.63,-1133.37 1325.93,-1139.98"/>
</g>
<!-- observability.system_callbacks&#45;&gt;observability.model_visualization -->
<g id="edge113" class="edge">
<title>observability.system_callbacks&#45;&gt;observability.model_visualization</title>
<path fill="none" stroke="#7d8597" d="M1245.79,-1205.77C1256.81,-1206.17 1268.15,-1206.57 1279.37,-1206.97"/>
<polygon fill="#7d8597" stroke="#7d8597" points="1278.9,-1210.46 1289.02,-1207.32 1279.15,-1203.46 1278.9,-1210.46"/>
</g>
<!-- observability.system_callbacks&#45;&gt;observability.tensors -->
<g id="edge114" class="edge">
<title>observability.system_callbacks&#45;&gt;observability.tensors</title>
<path fill="none" stroke="#7d8597" d="M1228.73,-1191.44C1248.35,-1188.58 1269.72,-1185.74 1289.49,-1183.64 1361.31,-1176.04 1443.72,-1170.92 1501.11,-1167.93"/>
<polygon fill="#7d8597" stroke="#7d8597" points="1501.28,-1171.42 1511.09,-1167.42 1500.92,-1164.43 1501.28,-1171.42"/>
</g>
<!-- observability.system_callbacks&#45;&gt;observability.utils -->
<g id="edge115" class="edge">
<title>observability.system_callbacks&#45;&gt;observability.utils</title>
<path fill="none" stroke="#7d8597" d="M1216.02,-1216.59C1228.56,-1220.3 1241.63,-1224.67 1253.49,-1229.64 1287.09,-1243.73 1322.94,-1264.68 1348.18,-1280.53"/>
<polygon fill="#7d8597" stroke="#7d8597" points="1346.05,-1283.32 1356.37,-1285.73 1349.81,-1277.41 1346.05,-1283.32"/>
</g>
<!-- reporting.builders -->
<g id="node49" class="node">
<title>reporting.builders</title>
<ellipse fill="#f7f7f7" stroke="#6c757d" cx="1157.49" cy="-1776.64" rx="53.4" ry="18"/>
<text text-anchor="middle" x="1157.49" y="-1772.77" font-family="Helvetica,sans-Serif" font-size="10.00">reporting.builders</text>
</g>
<!-- reporting&#45;&gt;reporting.builders -->
<g id="edge116" class="edge">
<title>reporting&#45;&gt;reporting.builders</title>
<path fill="none" stroke="#4f5d75" stroke-dasharray="5,2" d="M797.71,-1610.94C811.67,-1641.23 843.93,-1701.38 891.17,-1730.64 952.33,-1768.54 1035.84,-1777.49 1092.72,-1778.61"/>
<polygon fill="#4f5d75" stroke="#4f5d75" points="1092.53,-1782.11 1102.57,-1778.72 1092.61,-1775.11 1092.53,-1782.11"/>
</g>
<!-- reporting.exports -->
<g id="node50" class="node">
<title>reporting.exports</title>
<ellipse fill="#f7f7f7" stroke="#6c757d" cx="958.32" cy="-1703.64" rx="52.51" ry="18"/>
<text text-anchor="middle" x="958.32" y="-1699.77" font-family="Helvetica,sans-Serif" font-size="10.00">reporting.exports</text>
</g>
<!-- reporting&#45;&gt;reporting.exports -->
<g id="edge117" class="edge">
<title>reporting&#45;&gt;reporting.exports</title>
<path fill="none" stroke="#4f5d75" stroke-dasharray="5,2" d="M808.35,-1610.95C827.7,-1629.39 859.62,-1657.74 891.17,-1676.64 897.1,-1680.2 903.59,-1683.49 910.11,-1686.46"/>
<polygon fill="#4f5d75" stroke="#4f5d75" points="908.35,-1689.51 918.92,-1690.25 911.12,-1683.08 908.35,-1689.51"/>
</g>
<!-- reporting.plotly_reports -->
<g id="node51" class="node">
<title>reporting.plotly_reports</title>
<ellipse fill="#f7f7f7" stroke="#6c757d" cx="1157.49" cy="-1402.64" rx="68.05" ry="18"/>
<text text-anchor="middle" x="1157.49" y="-1398.77" font-family="Helvetica,sans-Serif" font-size="10.00">reporting.plotly_reports</text>
</g>
<!-- reporting&#45;&gt;reporting.plotly_reports -->
<g id="edge118" class="edge">
<title>reporting&#45;&gt;reporting.plotly_reports</title>
<path fill="none" stroke="#4f5d75" stroke-dasharray="5,2" d="M816.1,-1585.52C860.8,-1572.77 953.9,-1543.59 1025.48,-1503.64 1064.29,-1481.99 1104.05,-1449.61 1129.43,-1427.38"/>
<polygon fill="#4f5d75" stroke="#4f5d75" points="1131.49,-1430.23 1136.65,-1420.98 1126.85,-1424.99 1131.49,-1430.23"/>
</g>
<!-- reporting.structured_exports -->
<g id="node55" class="node">
<title>reporting.structured_exports</title>
<ellipse fill="#f7f7f7" stroke="#6c757d" cx="1157.49" cy="-1348.64" rx="81.36" ry="18"/>
<text text-anchor="middle" x="1157.49" y="-1344.77" font-family="Helvetica,sans-Serif" font-size="10.00">reporting.structured_exports</text>
</g>
<!-- reporting&#45;&gt;reporting.structured_exports -->
<g id="edge119" class="edge">
<title>reporting&#45;&gt;reporting.structured_exports</title>
<path fill="none" stroke="#4f5d75" stroke-dasharray="5,2" d="M807.07,-1574.37C847.37,-1532.59 952.82,-1429.57 1061.48,-1375.64 1069.82,-1371.51 1078.89,-1367.91 1088.01,-1364.81"/>
<polygon fill="#4f5d75" stroke="#4f5d75" points="1088.79,-1368.24 1097.25,-1361.86 1086.66,-1361.57 1088.79,-1368.24"/>
</g>
<!-- reporting.tensorboard -->
<g id="node56" class="node">
<title>reporting.tensorboard</title>
<ellipse fill="#f7f7f7" stroke="#6c757d" cx="958.32" cy="-1649.64" rx="63.61" ry="18"/>
<text text-anchor="middle" x="958.32" y="-1645.77" font-family="Helvetica,sans-Serif" font-size="10.00">reporting.tensorboard</text>
</g>
<!-- reporting&#45;&gt;reporting.tensorboard -->
<g id="edge120" class="edge">
<title>reporting&#45;&gt;reporting.tensorboard</title>
<path fill="none" stroke="#4f5d75" stroke-dasharray="5,2" d="M816.06,-1601.55C839.98,-1609.69 876.04,-1621.97 905.75,-1632.08"/>
<polygon fill="#4f5d75" stroke="#4f5d75" points="904.34,-1635.3 914.93,-1635.21 906.6,-1628.68 904.34,-1635.3"/>
</g>
<!-- reporting.types -->
<g id="node57" class="node">
<title>reporting.types</title>
<ellipse fill="#f7f7f7" stroke="#6c757d" cx="1574" cy="-1543.64" rx="47.63" ry="18"/>
<text text-anchor="middle" x="1574" y="-1539.77" font-family="Helvetica,sans-Serif" font-size="10.00">reporting.types</text>
</g>
<!-- reporting&#45;&gt;reporting.types -->
<g id="edge121" class="edge">
<title>reporting&#45;&gt;reporting.types</title>
<path fill="none" stroke="#4f5d75" stroke-dasharray="5,2" d="M816.14,-1590.09C890.35,-1582.98 1108.13,-1562.78 1289.49,-1552.64 1367.46,-1548.29 1457.62,-1545.88 1514.95,-1544.67"/>
<polygon fill="#4f5d75" stroke="#4f5d75" points="1514.87,-1548.17 1524.8,-1544.47 1514.73,-1541.17 1514.87,-1548.17"/>
</g>
<!-- reporting.builders&#45;&gt;evaluation -->
<g id="edge122" class="edge">
<title>reporting.builders&#45;&gt;evaluation</title>
<path fill="none" stroke="#7d8597" d="M1182.3,-1792.7C1207.62,-1808.72 1249.44,-1832.26 1289.49,-1841.64 1374.05,-1861.47 1476.73,-1852.07 1532.38,-1844.31"/>
<polygon fill="#7d8597" stroke="#7d8597" points="1532.63,-1847.81 1542.02,-1842.9 1531.62,-1840.88 1532.63,-1847.81"/>
</g>
<!-- reporting.prediction_rows -->
<g id="node52" class="node">
<title>reporting.prediction_rows</title>
<ellipse fill="#f7f7f7" stroke="#6c757d" cx="1382.83" cy="-1646.64" rx="73.81" ry="18"/>
<text text-anchor="middle" x="1382.83" y="-1642.77" font-family="Helvetica,sans-Serif" font-size="10.00">reporting.prediction_rows</text>
</g>
<!-- reporting.builders&#45;&gt;reporting.prediction_rows -->
<g id="edge123" class="edge">
<title>reporting.builders&#45;&gt;reporting.prediction_rows</title>
<path fill="none" stroke="#7d8597" d="M1185.43,-1760.96C1224.8,-1738.05 1298.25,-1695.29 1343.32,-1669.06"/>
<polygon fill="#7d8597" stroke="#7d8597" points="1344.84,-1672.22 1351.72,-1664.17 1341.32,-1666.18 1344.84,-1672.22"/>
</g>
<!-- reporting.report_tables -->
<g id="node53" class="node">
<title>reporting.report_tables</title>
<ellipse fill="#f7f7f7" stroke="#6c757d" cx="1382.83" cy="-1814.64" rx="66.71" ry="18"/>
<text text-anchor="middle" x="1382.83" y="-1810.77" font-family="Helvetica,sans-Serif" font-size="10.00">reporting.report_tables</text>
</g>
<!-- reporting.builders&#45;&gt;reporting.report_tables -->
<g id="edge124" class="edge">
<title>reporting.builders&#45;&gt;reporting.report_tables</title>
<path fill="none" stroke="#7d8597" d="M1205.85,-1784.7C1237.39,-1790.07 1279.32,-1797.2 1314.34,-1803.16"/>
<polygon fill="#7d8597" stroke="#7d8597" points="1313.5,-1806.57 1323.95,-1804.8 1314.68,-1799.67 1313.5,-1806.57"/>
</g>
<!-- reporting.report_text -->
<g id="node54" class="node">
<title>reporting.report_text</title>
<ellipse fill="#f7f7f7" stroke="#6c757d" cx="1382.83" cy="-1906.64" rx="60.94" ry="18"/>
<text text-anchor="middle" x="1382.83" y="-1902.77" font-family="Helvetica,sans-Serif" font-size="10.00">reporting.report_text</text>
</g>
<!-- reporting.builders&#45;&gt;reporting.report_text -->
<g id="edge125" class="edge">
<title>reporting.builders&#45;&gt;reporting.report_text</title>
<path fill="none" stroke="#7d8597" d="M1177.18,-1793.6C1201.52,-1814.95 1246.08,-1851.61 1289.49,-1874.64 1301.08,-1880.8 1314.1,-1886.15 1326.62,-1890.63"/>
<polygon fill="#7d8597" stroke="#7d8597" points="1325.42,-1893.92 1336.01,-1893.85 1327.69,-1887.3 1325.42,-1893.92"/>
</g>
<!-- reporting.builders&#45;&gt;reporting.types -->
<g id="edge126" class="edge">
<title>reporting.builders&#45;&gt;reporting.types</title>
<path fill="none" stroke="#7d8597" d="M1207.87,-1770.18C1274.18,-1759.49 1393.24,-1733.11 1476.17,-1673.64 1513.65,-1646.77 1542.82,-1601.03 1558.97,-1571.59"/>
<polygon fill="#7d8597" stroke="#7d8597" points="1561.99,-1573.36 1563.6,-1562.89 1555.81,-1570.07 1561.99,-1573.36"/>
</g>
<!-- reporting.exports&#45;&gt;config -->
<g id="edge127" class="edge">
<title>reporting.exports&#45;&gt;config</title>
<path fill="none" stroke="#7d8597" d="M1003.02,-1693.93C1011.76,-1689.98 1019.95,-1684.43 1025.48,-1676.64 1115.77,-1549.45 960,-1094.1 1061.48,-975.64 1118.19,-909.45 1186.14,-990.98 1253.49,-935.64 1340.39,-864.25 1369.53,-723.46 1378.36,-662.24"/>
<polygon fill="#7d8597" stroke="#7d8597" points="1381.79,-662.98 1379.66,-652.6 1374.85,-662.04 1381.79,-662.98"/>
</g>
<!-- reporting.exports&#45;&gt;evaluation -->
<g id="edge128" class="edge">
<title>reporting.exports&#45;&gt;evaluation</title>
<path fill="none" stroke="#7d8597" d="M1010.52,-1706.49C1104.85,-1712.91 1311.51,-1732.56 1476.17,-1787.64 1495.97,-1794.27 1516.69,-1804.47 1533.86,-1813.94"/>
<polygon fill="#7d8597" stroke="#7d8597" points="1531.78,-1816.78 1542.21,-1818.65 1535.22,-1810.68 1531.78,-1816.78"/>
</g>
<!-- reporting.exports&#45;&gt;reporting.builders -->
<g id="edge129" class="edge">
<title>reporting.exports&#45;&gt;reporting.builders</title>
<path fill="none" stroke="#7d8597" d="M992.73,-1717.61C1012.59,-1725.77 1038.35,-1736.11 1061.48,-1744.64 1076.33,-1750.12 1092.62,-1755.74 1107.45,-1760.72"/>
<polygon fill="#7d8597" stroke="#7d8597" points="1105.92,-1763.9 1116.51,-1763.74 1108.13,-1757.26 1105.92,-1763.9"/>
</g>
<!-- reporting.exports&#45;&gt;reporting.types -->
<g id="edge130" class="edge">
<title>reporting.exports&#45;&gt;reporting.types</title>
<path fill="none" stroke="#7d8597" d="M1000.04,-1692.39C1062.18,-1675.42 1184.52,-1642.81 1289.49,-1619.64 1371.92,-1601.45 1395.35,-1609.02 1476.17,-1584.64 1495.56,-1578.79 1516.34,-1570.31 1533.65,-1562.58"/>
<polygon fill="#7d8597" stroke="#7d8597" points="1534.92,-1565.85 1542.57,-1558.52 1532.02,-1559.48 1534.92,-1565.85"/>
</g>
<!-- reporting.plotly_reports&#45;&gt;config -->
<g id="edge131" class="edge">
<title>reporting.plotly_reports&#45;&gt;config</title>
<path fill="none" stroke="#7d8597" d="M1221.23,-1395.86C1233.48,-1391.75 1245.11,-1385.4 1253.49,-1375.64 1294.95,-1327.4 1279.21,-1154.42 1289.49,-1091.64 1316.24,-928.28 1358.87,-734.34 1375.18,-661.87"/>
<polygon fill="#7d8597" stroke="#7d8597" points="1378.53,-662.92 1377.32,-652.4 1371.7,-661.38 1378.53,-662.92"/>
</g>
<!-- reporting.plotly_reports&#45;&gt;observability.utils -->
<g id="edge132" class="edge">
<title>reporting.plotly_reports&#45;&gt;observability.utils</title>
<path fill="none" stroke="#7d8597" d="M1209.06,-1390.7C1223.64,-1386.61 1239.41,-1381.55 1253.49,-1375.64 1287.09,-1361.56 1322.94,-1340.61 1348.18,-1324.76"/>
<polygon fill="#7d8597" stroke="#7d8597" points="1349.81,-1327.88 1356.37,-1319.56 1346.05,-1321.97 1349.81,-1327.88"/>
</g>
<!-- reporting.plotly_reports&#45;&gt;reporting.types -->
<g id="edge133" class="edge">
<title>reporting.plotly_reports&#45;&gt;reporting.types</title>
<path fill="none" stroke="#7d8597" d="M1221.81,-1408.78C1287.73,-1416.92 1392.81,-1434.94 1476.17,-1472.64 1502.17,-1484.4 1528.04,-1503.88 1546.5,-1519.47"/>
<polygon fill="#7d8597" stroke="#7d8597" points="1544.18,-1522.09 1554.04,-1525.99 1548.76,-1516.8 1544.18,-1522.09"/>
</g>
<!-- reporting.prediction_rows&#45;&gt;evaluation -->
<g id="edge134" class="edge">
<title>reporting.prediction_rows&#45;&gt;evaluation</title>
<path fill="none" stroke="#7d8597" d="M1438.81,-1658.79C1451.97,-1663.49 1465.34,-1669.91 1476.17,-1678.64 1519.41,-1713.52 1548.24,-1773.25 1562.52,-1808.73"/>
<polygon fill="#7d8597" stroke="#7d8597" points="1559.21,-1809.87 1566.09,-1817.92 1565.73,-1807.34 1559.21,-1809.87"/>
</g>
<!-- reporting.prediction_rows&#45;&gt;observability.tensors -->
<g id="edge135" class="edge">
<title>reporting.prediction_rows&#45;&gt;observability.tensors</title>
<path fill="none" stroke="#7d8597" d="M1391.01,-1628.34C1419.75,-1555.12 1526.55,-1282.99 1561.7,-1193.43"/>
<polygon fill="#7d8597" stroke="#7d8597" points="1564.86,-1194.97 1565.26,-1184.38 1558.34,-1192.41 1564.86,-1194.97"/>
</g>
<!-- reporting.prediction_rows&#45;&gt;reporting.types -->
<g id="edge136" class="edge">
<title>reporting.prediction_rows&#45;&gt;reporting.types</title>
<path fill="none" stroke="#7d8597" d="M1431.94,-1633C1446.53,-1628.07 1462.35,-1621.9 1476.17,-1614.64 1501.12,-1601.55 1526.72,-1582.49 1545.32,-1567.42"/>
<polygon fill="#7d8597" stroke="#7d8597" points="1547.46,-1570.19 1552.95,-1561.13 1543.01,-1564.79 1547.46,-1570.19"/>
</g>
<!-- reporting.report_tables&#45;&gt;evaluation -->
<g id="edge137" class="edge">
<title>reporting.report_tables&#45;&gt;evaluation</title>
<path fill="none" stroke="#7d8597" d="M1444.46,-1822.02C1473.14,-1825.5 1506.62,-1829.57 1532.22,-1832.69"/>
<polygon fill="#7d8597" stroke="#7d8597" points="1531.53,-1836.13 1541.88,-1833.86 1532.37,-1829.18 1531.53,-1836.13"/>
</g>
<!-- reporting.report_text&#45;&gt;evaluation -->
<g id="edge138" class="edge">
<title>reporting.report_text&#45;&gt;evaluation</title>
<path fill="none" stroke="#7d8597" d="M1423.92,-1893.06C1440.18,-1887.47 1459.11,-1880.86 1476.17,-1874.64 1494.93,-1867.81 1515.62,-1859.95 1533.05,-1853.23"/>
<polygon fill="#7d8597" stroke="#7d8597" points="1533.95,-1856.64 1542.01,-1849.77 1531.42,-1850.11 1533.95,-1856.64"/>
</g>
<!-- reporting.structured_exports&#45;&gt;config -->
<g id="edge139" class="edge">
<title>reporting.structured_exports&#45;&gt;config</title>
<path fill="none" stroke="#7d8597" d="M1195.03,-1332.47C1215.39,-1321.57 1239.4,-1305.24 1253.49,-1283.64 1300.93,-1210.93 1272.93,-1176.87 1289.49,-1091.64 1321.07,-929.14 1360.84,-734.69 1375.79,-661.98"/>
<polygon fill="#7d8597" stroke="#7d8597" points="1379.16,-662.97 1377.74,-652.47 1372.3,-661.56 1379.16,-662.97"/>
</g>
<!-- reporting.structured_exports&#45;&gt;observability.utils -->
<g id="edge140" class="edge">
<title>reporting.structured_exports&#45;&gt;observability.utils</title>
<path fill="none" stroke="#7d8597" d="M1218.34,-1336.32C1251.63,-1329.46 1292.81,-1320.98 1325.51,-1314.24"/>
<polygon fill="#7d8597" stroke="#7d8597" points="1326.13,-1317.69 1335.22,-1312.24 1324.72,-1310.83 1326.13,-1317.69"/>
</g>
<!-- reporting.structured_exports&#45;&gt;reporting.types -->
<g id="edge141" class="edge">
<title>reporting.structured_exports&#45;&gt;reporting.types</title>
<path fill="none" stroke="#7d8597" d="M1239.04,-1350.22C1307.01,-1354.97 1404.42,-1370.11 1476.17,-1415.64 1514.93,-1440.25 1543.91,-1486.2 1559.64,-1515.83"/>
<polygon fill="#7d8597" stroke="#7d8597" points="1556.46,-1517.3 1564.14,-1524.6 1562.69,-1514.1 1556.46,-1517.3"/>
</g>
<!-- reporting.tensorboard&#45;&gt;reporting.types -->
<g id="edge142" class="edge">
<title>reporting.tensorboard&#45;&gt;reporting.types</title>
<path fill="none" stroke="#7d8597" d="M1006.2,-1637.39C1023.51,-1633.07 1043.33,-1628.37 1061.48,-1624.64 1225.93,-1590.87 1422.6,-1563.27 1517.01,-1550.81"/>
<polygon fill="#7d8597" stroke="#7d8597" points="1517.32,-1554.3 1526.78,-1549.53 1516.41,-1547.36 1517.32,-1554.3"/>
</g>
<!-- train -->
<g id="node58" class="node">
<title>train</title>
<path fill="#e8f5e9" stroke="#2d6a4f" d="M508.75,-456.64C508.75,-456.64 478.75,-456.64 478.75,-456.64 472.75,-456.64 466.75,-450.64 466.75,-444.64 466.75,-444.64 466.75,-432.64 466.75,-432.64 466.75,-426.64 472.75,-420.64 478.75,-420.64 478.75,-420.64 508.75,-420.64 508.75,-420.64 514.75,-420.64 520.75,-426.64 520.75,-432.64 520.75,-432.64 520.75,-444.64 520.75,-444.64 520.75,-450.64 514.75,-456.64 508.75,-456.64"/>
<text text-anchor="middle" x="493.75" y="-434.77" font-family="Helvetica,sans-Serif" font-size="10.00">train</text>
</g>
<!-- train&#45;&gt;config -->
<g id="edge143" class="edge">
<title>train&#45;&gt;config</title>
<path fill="none" stroke="#7d8597" d="M521.07,-425.4C571.49,-401.27 685.8,-352.64 787.9,-352.64 787.9,-352.64 787.9,-352.64 959.32,-352.64 1093.03,-352.64 1144.97,-337.54 1253.49,-415.64 1319.62,-463.24 1357.43,-556.36 1373.15,-603.63"/>
<polygon fill="#7d8597" stroke="#7d8597" points="1369.73,-604.44 1376.12,-612.89 1376.4,-602.3 1369.73,-604.44"/>
</g>
<!-- train&#45;&gt;data.datamodule -->
<g id="edge144" class="edge">
<title>train&#45;&gt;data.datamodule</title>
<path fill="none" stroke="#7d8597" d="M500,-457.07C519.59,-525.82 588.49,-767.63 612.42,-851.63"/>
<polygon fill="#7d8597" stroke="#7d8597" points="609.03,-852.51 615.14,-861.17 615.77,-850.59 609.03,-852.51"/>
</g>
<!-- train&#45;&gt;environment -->
<g id="edge145" class="edge">
<title>train&#45;&gt;environment</title>
<path fill="none" stroke="#7d8597" d="M502.63,-420.19C523.92,-370.32 582.73,-232.55 608.42,-172.38"/>
<polygon fill="#7d8597" stroke="#7d8597" points="611.51,-174.05 612.22,-163.48 605.07,-171.31 611.51,-174.05"/>
</g>
<!-- train&#45;&gt;models.fused_model -->
<g id="edge146" class="edge">
<title>train&#45;&gt;models.fused_model</title>
<path fill="none" stroke="#7d8597" d="M521.02,-445.37C566.5,-457 661.08,-481.2 724.54,-497.44"/>
<polygon fill="#7d8597" stroke="#7d8597" points="723.6,-500.81 734.15,-499.89 725.33,-494.02 723.6,-500.81"/>
</g>
<!-- train&#45;&gt;observability -->
<g id="edge147" class="edge">
<title>train&#45;&gt;observability</title>
<path fill="none" stroke="#7d8597" d="M496.39,-457.1C502.16,-520.32 523.08,-733.88 556.75,-907.64 572.33,-988.06 598.43,-1081.15 611.96,-1127.41"/>
<polygon fill="#7d8597" stroke="#7d8597" points="608.59,-1128.33 614.77,-1136.93 615.3,-1126.35 608.59,-1128.33"/>
</g>
<!-- workflows -->
<g id="node60" class="node">
<title>workflows</title>
<polygon fill="#d9eaf4" stroke="#0b3954" points="60.25,-465.64 57.25,-469.64 36.25,-469.64 33.25,-465.64 0,-465.64 0,-429.64 60.25,-429.64 60.25,-465.64"/>
<text text-anchor="middle" x="30.12" y="-443.77" font-family="Helvetica,sans-Serif" font-size="10.00">workflows</text>
</g>
<!-- workflows&#45;&gt;workflows.cli -->
<g id="edge148" class="edge">
<title>workflows&#45;&gt;workflows.cli</title>
<path fill="none" stroke="#4f5d75" stroke-dasharray="5,2" d="M44.28,-429.21C61.53,-405.04 91.95,-362.41 111.98,-334.35"/>
<polygon fill="#4f5d75" stroke="#4f5d75" points="114.75,-336.49 117.71,-326.31 109.05,-332.42 114.75,-336.49"/>
</g>
<!-- workflows&#45;&gt;workflows.helpers -->
<g id="edge149" class="edge">
<title>workflows&#45;&gt;workflows.helpers</title>
<path fill="none" stroke="#4f5d75" stroke-dasharray="5,2" d="M60.47,-437.2C118.54,-416.54 249.03,-370.1 324.83,-343.12"/>
<polygon fill="#4f5d75" stroke="#4f5d75" points="325.93,-346.45 334.18,-339.8 323.59,-339.85 325.93,-346.45"/>
</g>
<!-- workflows&#45;&gt;workflows.training -->
<g id="edge150" class="edge">
<title>workflows&#45;&gt;workflows.training</title>
<path fill="none" stroke="#4f5d75" stroke-dasharray="5,2" d="M60.55,-464.64C71.48,-470.4 84.16,-476.42 96.25,-480.64 127.72,-491.64 164.16,-499.39 193.84,-504.51"/>
<polygon fill="#4f5d75" stroke="#4f5d75" points="192.93,-507.9 203.37,-506.09 194.08,-501 192.93,-507.9"/>
</g>
<!-- workflows&#45;&gt;workflows.types -->
<g id="edge151" class="edge">
<title>workflows&#45;&gt;workflows.types</title>
<path fill="none" stroke="#4f5d75" stroke-dasharray="5,2" d="M60.69,-451.19C110.77,-456.29 215.1,-463 300,-442.64 314.52,-439.16 329.47,-432.86 342.58,-426.26"/>
<polygon fill="#4f5d75" stroke="#4f5d75" points="344.1,-429.42 351.32,-421.66 340.84,-423.22 344.1,-429.42"/>
</g>
<!-- workflows.cli&#45;&gt;config -->
<g id="edge152" class="edge">
<title>workflows.cli&#45;&gt;config</title>
<path fill="none" stroke="#7d8597" d="M169.41,-299.61C217.54,-290.74 306.07,-276.64 382.37,-276.64 382.37,-276.64 382.37,-276.64 959.32,-276.64 1024.86,-276.64 1200.85,-258.61 1253.49,-297.64 1353.8,-372.04 1375.71,-535.42 1380.49,-602.74"/>
<polygon fill="#7d8597" stroke="#7d8597" points="1376.99,-602.88 1381.11,-612.64 1383.98,-602.44 1376.99,-602.88"/>
</g>
<!-- workflows.cli&#45;&gt;defaults -->
<g id="edge153" class="edge">
<title>workflows.cli&#45;&gt;defaults</title>
<path fill="none" stroke="#7d8597" d="M158.36,-288.32C171.62,-279.29 188.64,-268.99 205.25,-262.64 251.47,-244.97 308.29,-236.92 344.9,-233.35"/>
<polygon fill="#7d8597" stroke="#7d8597" points="344.89,-236.86 354.54,-232.47 344.26,-229.89 344.89,-236.86"/>
</g>
<!-- workflows.cli&#45;&gt;environment -->
<g id="edge154" class="edge">
<title>workflows.cli&#45;&gt;environment</title>
<path fill="none" stroke="#7d8597" d="M148.3,-288.36C161.71,-272.46 182.88,-249.68 205.25,-234.64 309.74,-164.39 343.28,-150.35 466.75,-125.64 503.17,-118.36 545.08,-124.16 575.96,-131.06"/>
<polygon fill="#7d8597" stroke="#7d8597" points="574.8,-134.38 585.34,-133.28 576.41,-127.57 574.8,-134.38"/>
</g>
<!-- workflows.cli&#45;&gt;workflows.helpers -->
<g id="edge155" class="edge">
<title>workflows.cli&#45;&gt;workflows.helpers</title>
<path fill="none" stroke="#7d8597" d="M169.64,-308.95C210.14,-311.56 276.6,-315.84 324.47,-318.92"/>
<polygon fill="#7d8597" stroke="#7d8597" points="324.19,-322.41 334.39,-319.56 324.64,-315.42 324.19,-322.41"/>
</g>
<!-- workflows.cli&#45;&gt;workflows.training -->
<g id="edge156" class="edge">
<title>workflows.cli&#45;&gt;workflows.training</title>
<path fill="none" stroke="#7d8597" d="M144.21,-324.93C164.88,-361.04 211.05,-441.74 235.59,-484.62"/>
<polygon fill="#7d8597" stroke="#7d8597" points="232.43,-486.15 240.44,-493.09 238.51,-482.67 232.43,-486.15"/>
</g>
<!-- workflows.cli&#45;&gt;workflows.types -->
<g id="edge157" class="edge">
<title>workflows.cli&#45;&gt;workflows.types</title>
<path fill="none" stroke="#7d8597" d="M169.64,-320.5C211.39,-336.62 280.75,-363.4 328.87,-381.98"/>
<polygon fill="#7d8597" stroke="#7d8597" points="327.4,-385.17 337.99,-385.51 329.92,-378.64 327.4,-385.17"/>
</g>
<!-- workflows.helpers&#45;&gt;config -->
<g id="edge158" class="edge">
<title>workflows.helpers&#45;&gt;config</title>
<path fill="none" stroke="#7d8597" d="M430.99,-320.13C478.64,-317.79 554.8,-314.64 620.69,-314.64 620.69,-314.64 620.69,-314.64 959.32,-314.64 1090.88,-314.64 1147.16,-270.17 1253.49,-347.64 1339.45,-410.28 1369.01,-544.06 1378.15,-603.34"/>
<polygon fill="#7d8597" stroke="#7d8597" points="1374.65,-603.58 1379.54,-612.98 1381.58,-602.58 1374.65,-603.58"/>
</g>
<!-- workflows.helpers&#45;&gt;environment -->
<g id="edge159" class="edge">
<title>workflows.helpers&#45;&gt;environment</title>
<path fill="none" stroke="#7d8597" d="M399.77,-304.27C409.67,-291.75 422.22,-274.46 430.75,-257.64 453.83,-212.14 425.89,-179.2 466.75,-148.64 497.49,-125.65 542.17,-126.88 575.48,-132.39"/>
<polygon fill="#7d8597" stroke="#7d8597" points="574.79,-135.82 585.26,-134.21 576.07,-128.94 574.79,-135.82"/>
</g>
<!-- workflows.helpers&#45;&gt;train -->
<g id="edge160" class="edge">
<title>workflows.helpers&#45;&gt;train</title>
<path fill="none" stroke="#7d8597" d="M401.55,-341.02C419.46,-360.2 447.72,-390.44 468.03,-412.19"/>
<polygon fill="#7d8597" stroke="#7d8597" points="465.24,-414.33 474.62,-419.24 470.36,-409.55 465.24,-414.33"/>
</g>
<!-- workflows.training&#45;&gt;config -->
<g id="edge161" class="edge">
<title>workflows.training&#45;&gt;config</title>
<path fill="none" stroke="#7d8597" d="M274.69,-531.02C314.42,-563.73 404.39,-628.64 492.75,-628.64 492.75,-628.64 492.75,-628.64 789.9,-628.64 999.36,-628.64 1250.5,-631.18 1344.18,-632.21"/>
<polygon fill="#7d8597" stroke="#7d8597" points="1344.02,-635.71 1354.06,-632.32 1344.1,-628.71 1344.02,-635.71"/>
</g>
<!-- workflows.training&#45;&gt;config.types -->
<g id="edge162" class="edge">
<title>workflows.training&#45;&gt;config.types</title>
<path fill="none" stroke="#7d8597" d="M261.75,-531.08C287.18,-585.66 370.92,-742.64 492.75,-742.64 492.75,-742.64 492.75,-742.64 789.9,-742.64 1053,-742.64 1118.72,-750.64 1381.83,-750.64 1381.83,-750.64 1381.83,-750.64 1575,-750.64 1675.46,-750.64 1703.82,-738.47 1793.72,-693.64 1882.92,-649.16 1970.19,-567.96 2010.89,-527.27"/>
<polygon fill="#7d8597" stroke="#7d8597" points="2013.24,-529.87 2017.79,-520.3 2008.27,-524.94 2013.24,-529.87"/>
</g>
<!-- workflows.training&#45;&gt;data.datamodule -->
<g id="edge163" class="edge">
<title>workflows.training&#45;&gt;data.datamodule</title>
<path fill="none" stroke="#7d8597" d="M254.86,-531.09C258.78,-575.54 274.61,-689.79 336,-756.64 397.83,-823.98 502.66,-856.52 566.39,-870.81"/>
<polygon fill="#7d8597" stroke="#7d8597" points="565.42,-874.18 575.93,-872.87 566.89,-867.34 565.42,-874.18"/>
</g>
<!-- workflows.training&#45;&gt;defaults -->
<g id="edge164" class="edge">
<title>workflows.training&#45;&gt;defaults</title>
<path fill="none" stroke="#7d8597" d="M258.85,-494.24C270.1,-455.95 298.65,-365.46 336,-295.64 342.95,-282.66 352.12,-269.25 360.47,-258.02"/>
<polygon fill="#7d8597" stroke="#7d8597" points="363.03,-260.42 366.3,-250.35 357.46,-256.18 363.03,-260.42"/>
</g>
<!-- workflows.training&#45;&gt;environment -->
<g id="edge165" class="edge">
<title>workflows.training&#45;&gt;environment</title>
<path fill="none" stroke="#7d8597" d="M280.65,-494.25C296.36,-484.08 316.78,-471.7 336,-462.64 376.34,-443.64 395.52,-456.98 430.75,-429.64 522.58,-358.4 584.72,-229.75 609.12,-172.48"/>
<polygon fill="#7d8597" stroke="#7d8597" points="612.28,-173.99 612.91,-163.42 605.82,-171.29 612.28,-173.99"/>
</g>
<!-- workflows.training&#45;&gt;evaluation -->
<g id="edge166" class="edge">
<title>workflows.training&#45;&gt;evaluation</title>
<path fill="none" stroke="#7d8597" d="M253.52,-531C253.3,-631.43 256.46,-1123.97 336,-1515.64 380.24,-1733.51 270.44,-1990.64 492.75,-1990.64 492.75,-1990.64 492.75,-1990.64 1158.49,-1990.64 1300.48,-1990.64 1351.36,-2024.37 1476.17,-1956.64 1513.95,-1936.14 1542.58,-1894.2 1558.58,-1865.99"/>
<polygon fill="#7d8597" stroke="#7d8597" points="1561.63,-1867.71 1563.36,-1857.26 1555.49,-1864.35 1561.63,-1867.71"/>
</g>
<!-- workflows.training&#45;&gt;reporting -->
<g id="edge167" class="edge">
<title>workflows.training&#45;&gt;reporting</title>
<path fill="none" stroke="#7d8597" d="M254,-530.87C256.74,-656.37 275.29,-1389.8 336,-1465.64 438.97,-1594.3 661.21,-1598.95 750.06,-1595.22"/>
<polygon fill="#7d8597" stroke="#7d8597" points="750.11,-1598.72 759.93,-1594.74 749.77,-1591.73 750.11,-1598.72"/>
</g>
<!-- workflows.training&#45;&gt;reporting.structured_exports -->
<g id="edge168" class="edge">
<title>workflows.training&#45;&gt;reporting.structured_exports</title>
<path fill="none" stroke="#7d8597" d="M254.61,-531.07C261.8,-656.14 311.04,-1375.64 492.75,-1375.64 492.75,-1375.64 492.75,-1375.64 789.9,-1375.64 887.62,-1375.64 999.61,-1365.98 1073.83,-1358.22"/>
<polygon fill="#7d8597" stroke="#7d8597" points="1073.87,-1361.73 1083.45,-1357.2 1073.13,-1354.77 1073.87,-1361.73"/>
</g>
<!-- workflows.training&#45;&gt;reporting.types -->
<g id="edge169" class="edge">
<title>workflows.training&#45;&gt;reporting.types</title>
<path fill="none" stroke="#7d8597" d="M254.28,-531.14C258.04,-632.32 278.92,-1119.23 336,-1256.64 378.65,-1359.33 381.55,-1451.64 492.75,-1451.64 492.75,-1451.64 492.75,-1451.64 789.9,-1451.64 1066.34,-1451.64 1393.95,-1508.89 1519.98,-1533.07"/>
<polygon fill="#7d8597" stroke="#7d8597" points="1519.21,-1536.49 1529.7,-1534.95 1520.54,-1529.62 1519.21,-1536.49"/>
</g>
<!-- workflows.training&#45;&gt;train -->
<g id="edge170" class="edge">
<title>workflows.training&#45;&gt;train</title>
<path fill="none" stroke="#7d8597" d="M300.23,-500.77C336.17,-491.31 386.95,-477.27 430.75,-462.64 438.97,-459.9 447.7,-456.7 455.94,-453.55"/>
<polygon fill="#7d8597" stroke="#7d8597" points="456.94,-456.92 464.99,-450.02 454.4,-450.39 456.94,-456.92"/>
</g>
<!-- workflows.training&#45;&gt;workflows.helpers -->
<g id="edge171" class="edge">
<title>workflows.training&#45;&gt;workflows.helpers</title>
<path fill="none" stroke="#7d8597" d="M263.31,-494.26C277.8,-467.34 306.57,-416.01 336,-375.64 342.45,-366.79 350.07,-357.65 357.25,-349.49"/>
<polygon fill="#7d8597" stroke="#7d8597" points="359.7,-352.01 363.77,-342.23 354.49,-347.33 359.7,-352.01"/>
</g>
<!-- workflows.training&#45;&gt;workflows.types -->
<g id="edge172" class="edge">
<title>workflows.training&#45;&gt;workflows.types</title>
<path fill="none" stroke="#7d8597" d="M283.11,-494.3C288.96,-490.12 294.87,-485.47 300,-480.64 318.9,-462.85 317.1,-452.44 336,-434.64 338.48,-432.31 341.15,-430.01 343.91,-427.79"/>
<polygon fill="#7d8597" stroke="#7d8597" points="345.82,-430.73 351.68,-421.9 341.6,-425.15 345.82,-430.73"/>
</g>
<!-- workflows.types&#45;&gt;environment -->
<g id="edge173" class="edge">
<title>workflows.types&#45;&gt;environment</title>
<path fill="none" stroke="#7d8597" d="M404.6,-384.27C413.88,-374.79 424.24,-362.52 430.75,-349.64 464.22,-283.43 415.75,-240.53 466.75,-186.64 494.68,-157.13 541.03,-147.31 575.59,-144.31"/>
<polygon fill="#7d8597" stroke="#7d8597" points="575.57,-147.82 585.3,-143.64 575.08,-140.84 575.57,-147.82"/>
</g>
<!-- workflows.types&#45;&gt;evaluation -->
<g id="edge174" class="edge">
<title>workflows.types&#45;&gt;evaluation</title>
<path fill="none" stroke="#7d8597" d="M385.2,-421.09C391.31,-551.75 432.9,-1337.95 556.75,-1535.64 753.5,-1849.71 926.24,-1860.17 1289.49,-1933.64 1370.81,-1950.09 1399.45,-1965.23 1476.17,-1933.64 1509.5,-1919.92 1537.43,-1888.57 1554.6,-1865.41"/>
<polygon fill="#7d8597" stroke="#7d8597" points="1557.44,-1867.46 1560.4,-1857.29 1551.74,-1863.39 1557.44,-1867.46"/>
</g>
<!-- workflows.types&#45;&gt;train -->
<g id="edge175" class="edge">
<title>workflows.types&#45;&gt;train</title>
<path fill="none" stroke="#7d8597" d="M427.21,-416.87C436.63,-420 446.53,-423.29 455.7,-426.34"/>
<polygon fill="#7d8597" stroke="#7d8597" points="454.42,-429.6 465.01,-429.43 456.62,-422.96 454.42,-429.6"/>
</g>
</g>
</svg>
