<?xml version="1.0" encoding="UTF-8" standalone="no"?>
<!DOCTYPE svg PUBLIC "-//W3C//DTD SVG 1.1//EN"
 "http://www.w3.org/Graphics/SVG/1.1/DTD/svg11.dtd">
<!-- Generated by graphviz version 12.2.1 (20241206.2353)
 -->
<!-- Title: dependencies Pages: 1 -->
<svg width="1928pt" height="1420pt"
 viewBox="0.00 0.00 1928.29 1420.02" xmlns="http://www.w3.org/2000/svg" xmlns:xlink="http://www.w3.org/1999/xlink">
<g id="graph0" class="graph" transform="scale(1 1) rotate(0) translate(4 1416.02)">
<title>dependencies</title>
<polygon fill="white" stroke="none" points="-4,4 -4,-1416.02 1924.29,-1416.02 1924.29,4 -4,4"/>
<text text-anchor="middle" x="960.15" y="-1394.72" font-family="Helvetica,sans-Serif" font-size="14.00">Production Module Dependency Graph</text>
<!-- config -->
<g id="node1" class="node">
<title>config</title>
<polygon fill="#d9eaf4" stroke="#0b3954" points="1349.31,-842 1346.31,-846 1325.31,-846 1322.31,-842 1295.31,-842 1295.31,-806 1349.31,-806 1349.31,-842"/>
<text text-anchor="middle" x="1322.31" y="-820.12" font-family="Helvetica,sans-Serif" font-size="10.00">config</text>
</g>
<!-- config.data -->
<g id="node2" class="node">
<title>config.data</title>
<ellipse fill="#f7f7f7" stroke="#6c757d" cx="1764.47" cy="-942" rx="37.87" ry="18"/>
<text text-anchor="middle" x="1764.47" y="-938.12" font-family="Helvetica,sans-Serif" font-size="10.00">config.data</text>
</g>
<!-- config&#45;&gt;config.data -->
<g id="edge1" class="edge">
<title>config&#45;&gt;config.data</title>
<path fill="none" stroke="#4f5d75" stroke-dasharray="5,2" d="M1346.28,-842.21C1367.55,-858.11 1400.68,-880.56 1433.01,-893 1528.38,-929.69 1648.99,-939.09 1714.93,-941.38"/>
<polygon fill="#4f5d75" stroke="#4f5d75" points="1714.59,-944.87 1724.69,-941.68 1714.8,-937.88 1714.59,-944.87"/>
</g>
<!-- config.model -->
<g id="node3" class="node">
<title>config.model</title>
<ellipse fill="#f7f7f7" stroke="#6c757d" cx="1638.98" cy="-820" rx="42.31" ry="18"/>
<text text-anchor="middle" x="1638.98" y="-816.12" font-family="Helvetica,sans-Serif" font-size="10.00">config.model</text>
</g>
<!-- config&#45;&gt;config.model -->
<g id="edge2" class="edge">
<title>config&#45;&gt;config.model</title>
<path fill="none" stroke="#4f5d75" stroke-dasharray="5,2" d="M1349.6,-823.67C1401.26,-823.01 1516.92,-821.54 1585.03,-820.67"/>
<polygon fill="#4f5d75" stroke="#4f5d75" points="1584.88,-824.18 1594.83,-820.55 1584.79,-817.18 1584.88,-824.18"/>
</g>
<!-- config.observability -->
<g id="node4" class="node">
<title>config.observability</title>
<ellipse fill="#f7f7f7" stroke="#6c757d" cx="1492.18" cy="-1146" rx="59.17" ry="18"/>
<text text-anchor="middle" x="1492.18" y="-1142.12" font-family="Helvetica,sans-Serif" font-size="10.00">config.observability</text>
</g>
<!-- config&#45;&gt;config.observability -->
<g id="edge3" class="edge">
<title>config&#45;&gt;config.observability</title>
<path fill="none" stroke="#4f5d75" stroke-dasharray="5,2" d="M1332.82,-842.23C1360.81,-895.92 1443.05,-1053.68 1476.64,-1118.11"/>
<polygon fill="#4f5d75" stroke="#4f5d75" points="1473.36,-1119.37 1481.08,-1126.62 1479.56,-1116.14 1473.36,-1119.37"/>
</g>
<!-- config.runtime -->
<g id="node5" class="node">
<title>config.runtime</title>
<ellipse fill="#f7f7f7" stroke="#6c757d" cx="1492.18" cy="-1200" rx="45.86" ry="18"/>
<text text-anchor="middle" x="1492.18" y="-1196.12" font-family="Helvetica,sans-Serif" font-size="10.00">config.runtime</text>
</g>
<!-- config&#45;&gt;config.runtime -->
<g id="edge4" class="edge">
<title>config&#45;&gt;config.runtime</title>
<path fill="none" stroke="#4f5d75" stroke-dasharray="5,2" d="M1324.05,-842.42C1327.25,-898.87 1344.19,-1071.81 1433.01,-1173 1436.55,-1177.02 1440.8,-1180.49 1445.39,-1183.46"/>
<polygon fill="#4f5d75" stroke="#4f5d75" points="1443.38,-1186.35 1453.82,-1188.16 1446.79,-1180.24 1443.38,-1186.35"/>
</g>
<!-- config.serde -->
<g id="node6" class="node">
<title>config.serde</title>
<ellipse fill="#f7f7f7" stroke="#6c757d" cx="1492.18" cy="-866" rx="40.97" ry="18"/>
<text text-anchor="middle" x="1492.18" y="-862.12" font-family="Helvetica,sans-Serif" font-size="10.00">config.serde</text>
</g>
<!-- config&#45;&gt;config.serde -->
<g id="edge5" class="edge">
<title>config&#45;&gt;config.serde</title>
<path fill="none" stroke="#4f5d75" stroke-dasharray="5,2" d="M1349.54,-830.56C1375,-836.93 1414.19,-846.74 1444.9,-854.42"/>
<polygon fill="#4f5d75" stroke="#4f5d75" points="1443.77,-857.75 1454.32,-856.78 1445.47,-850.95 1443.77,-857.75"/>
</g>
<!-- config.types -->
<g id="node7" class="node">
<title>config.types</title>
<ellipse fill="#f7f7f7" stroke="#6c757d" cx="1879.32" cy="-1083" rx="40.97" ry="18"/>
<text text-anchor="middle" x="1879.32" y="-1079.12" font-family="Helvetica,sans-Serif" font-size="10.00">config.types</text>
</g>
<!-- config&#45;&gt;config.types -->
<g id="edge6" class="edge">
<title>config&#45;&gt;config.types</title>
<path fill="none" stroke="#4f5d75" stroke-dasharray="5,2" d="M1339.51,-842.22C1359.59,-863.84 1395.73,-899.75 1433.01,-922 1566.98,-1001.95 1747.04,-1051.84 1831.23,-1072.3"/>
<polygon fill="#4f5d75" stroke="#4f5d75" points="1830.21,-1075.66 1840.75,-1074.58 1831.84,-1068.85 1830.21,-1075.66"/>
</g>
<!-- config.data&#45;&gt;config.types -->
<g id="edge7" class="edge">
<title>config.data&#45;&gt;config.types</title>
<path fill="none" stroke="#7d8597" d="M1785.06,-957.43C1790.9,-962.44 1797.13,-968.2 1802.34,-974 1825.48,-999.73 1847.59,-1032.74 1861.93,-1055.66"/>
<polygon fill="#7d8597" stroke="#7d8597" points="1858.93,-1057.45 1867.16,-1064.13 1864.88,-1053.78 1858.93,-1057.45"/>
</g>
<!-- utils.tft_utils -->
<g id="node46" class="node">
<title>utils.tft_utils</title>
<ellipse fill="#f7f7f7" stroke="#6c757d" cx="1879.32" cy="-820" rx="40.97" ry="18"/>
<text text-anchor="middle" x="1879.32" y="-816.12" font-family="Helvetica,sans-Serif" font-size="10.00">utils.tft_utils</text>
</g>
<!-- config.data&#45;&gt;utils.tft_utils -->
<g id="edge8" class="edge">
<title>config.data&#45;&gt;utils.tft_utils</title>
<path fill="none" stroke="#7d8597" d="M1780.93,-925.29C1800.06,-904.6 1832.85,-869.16 1855.04,-845.17"/>
<polygon fill="#7d8597" stroke="#7d8597" points="1857.44,-847.73 1861.66,-838.01 1852.3,-842.97 1857.44,-847.73"/>
</g>
<!-- config.model&#45;&gt;config.data -->
<g id="edge9" class="edge">
<title>config.model&#45;&gt;config.data</title>
<path fill="none" stroke="#7d8597" d="M1656.89,-836.71C1678.16,-857.72 1714.84,-893.96 1739.13,-917.95"/>
<polygon fill="#7d8597" stroke="#7d8597" points="1736.51,-920.28 1746.08,-924.82 1741.43,-915.3 1736.51,-920.28"/>
</g>
<!-- config.model&#45;&gt;utils.tft_utils -->
<g id="edge10" class="edge">
<title>config.model&#45;&gt;utils.tft_utils</title>
<path fill="none" stroke="#7d8597" d="M1681.77,-820C1722.12,-820 1783.34,-820 1826.72,-820"/>
<polygon fill="#7d8597" stroke="#7d8597" points="1826.65,-823.5 1836.65,-820 1826.65,-816.5 1826.65,-823.5"/>
</g>
<!-- config.observability&#45;&gt;config.types -->
<g id="edge11" class="edge">
<title>config.observability&#45;&gt;config.types</title>
<path fill="none" stroke="#7d8597" d="M1545.15,-1137.62C1584.96,-1131.19 1641.26,-1122.07 1690.6,-1114 1737.72,-1106.29 1791.48,-1097.4 1829.35,-1091.13"/>
<polygon fill="#7d8597" stroke="#7d8597" points="1829.78,-1094.6 1839.08,-1089.52 1828.64,-1087.7 1829.78,-1094.6"/>
</g>
<!-- config.runtime&#45;&gt;config.types -->
<g id="edge12" class="edge">
<title>config.runtime&#45;&gt;config.types</title>
<path fill="none" stroke="#7d8597" d="M1532.78,-1191.18C1592.14,-1177.53 1707.35,-1149.34 1802.34,-1116 1814.94,-1111.58 1828.38,-1106.03 1840.41,-1100.74"/>
<polygon fill="#7d8597" stroke="#7d8597" points="1841.48,-1104.1 1849.18,-1096.82 1838.62,-1097.71 1841.48,-1104.1"/>
</g>
<!-- config.serde&#45;&gt;config.data -->
<g id="edge13" class="edge">
<title>config.serde&#45;&gt;config.data</title>
<path fill="none" stroke="#7d8597" d="M1527.42,-875.63C1576.49,-889.42 1666.79,-914.81 1720.36,-929.88"/>
<polygon fill="#7d8597" stroke="#7d8597" points="1719.17,-933.18 1729.74,-932.52 1721.06,-926.44 1719.17,-933.18"/>
</g>
<!-- config.serde&#45;&gt;config.model -->
<g id="edge14" class="edge">
<title>config.serde&#45;&gt;config.model</title>
<path fill="none" stroke="#7d8597" d="M1526.04,-855.56C1545.93,-849.24 1571.58,-841.1 1593.3,-834.19"/>
<polygon fill="#7d8597" stroke="#7d8597" points="1594.33,-837.54 1602.81,-831.17 1592.21,-830.87 1594.33,-837.54"/>
</g>
<!-- config.serde&#45;&gt;utils.tft_utils -->
<g id="edge15" class="edge">
<title>config.serde&#45;&gt;utils.tft_utils</title>
<path fill="none" stroke="#7d8597" d="M1532.86,-863.07C1591.84,-858.44 1706.02,-848.46 1802.34,-834 1811.39,-832.64 1821.02,-831.01 1830.27,-829.35"/>
<polygon fill="#7d8597" stroke="#7d8597" points="1830.61,-832.85 1839.81,-827.6 1829.35,-825.96 1830.61,-832.85"/>
</g>
<!-- data.datamodule -->
<g id="node8" class="node">
<title>data.datamodule</title>
<path fill="#e8f5e9" stroke="#2d6a4f" d="M632.75,-617C632.75,-617 568.75,-617 568.75,-617 562.75,-617 556.75,-611 556.75,-605 556.75,-605 556.75,-593 556.75,-593 556.75,-587 562.75,-581 568.75,-581 568.75,-581 632.75,-581 632.75,-581 638.75,-581 644.75,-587 644.75,-593 644.75,-593 644.75,-605 644.75,-605 644.75,-611 638.75,-617 632.75,-617"/>
<text text-anchor="middle" x="600.75" y="-595.12" font-family="Helvetica,sans-Serif" font-size="10.00">data.datamodule</text>
</g>
<!-- data.datamodule&#45;&gt;config -->
<g id="edge16" class="edge">
<title>data.datamodule&#45;&gt;config</title>
<path fill="none" stroke="#7d8597" d="M630.82,-617.4C645.35,-625.92 663.49,-635.56 680.75,-642 752.6,-668.82 774.08,-664 849.29,-679 929.51,-695 1136.39,-711.86 1211.61,-744 1242.34,-757.13 1272.67,-780.25 1293.63,-798.27"/>
<polygon fill="#7d8597" stroke="#7d8597" points="1291.05,-800.66 1300.87,-804.63 1295.67,-795.4 1291.05,-800.66"/>
</g>
<!-- data.dataset -->
<g id="node9" class="node">
<title>data.dataset</title>
<path fill="#e8f5e9" stroke="#2d6a4f" d="M770.02,-540C770.02,-540 724.02,-540 724.02,-540 718.02,-540 712.02,-534 712.02,-528 712.02,-528 712.02,-516 712.02,-516 712.02,-510 718.02,-504 724.02,-504 724.02,-504 770.02,-504 770.02,-504 776.02,-504 782.02,-510 782.02,-516 782.02,-516 782.02,-528 782.02,-528 782.02,-534 776.02,-540 770.02,-540"/>
<text text-anchor="middle" x="747.02" y="-518.12" font-family="Helvetica,sans-Serif" font-size="10.00">data.dataset</text>
</g>
<!-- data.datamodule&#45;&gt;data.dataset -->
<g id="edge17" class="edge">
<title>data.datamodule&#45;&gt;data.dataset</title>
<path fill="none" stroke="#7d8597" d="M628.13,-580.7C643.17,-570.67 662.59,-558.41 680.75,-549 687.33,-545.59 694.45,-542.28 701.48,-539.22"/>
<polygon fill="#7d8597" stroke="#7d8597" points="702.39,-542.63 710.24,-535.52 699.67,-536.18 702.39,-542.63"/>
</g>
<!-- data.downloader -->
<g id="node10" class="node">
<title>data.downloader</title>
<path fill="#e8f5e9" stroke="#2d6a4f" d="M778.65,-594C778.65,-594 715.4,-594 715.4,-594 709.4,-594 703.4,-588 703.4,-582 703.4,-582 703.4,-570 703.4,-570 703.4,-564 709.4,-558 715.4,-558 715.4,-558 778.65,-558 778.65,-558 784.65,-558 790.65,-564 790.65,-570 790.65,-570 790.65,-582 790.65,-582 790.65,-588 784.65,-594 778.65,-594"/>
<text text-anchor="middle" x="747.02" y="-572.12" font-family="Helvetica,sans-Serif" font-size="10.00">data.downloader</text>
</g>
<!-- data.datamodule&#45;&gt;data.downloader -->
<g id="edge18" class="edge">
<title>data.datamodule&#45;&gt;data.downloader</title>
<path fill="none" stroke="#7d8597" d="M645.04,-592.1C659.86,-589.74 676.64,-587.06 692.19,-584.58"/>
<polygon fill="#7d8597" stroke="#7d8597" points="692.44,-588.09 701.77,-583.05 691.34,-581.17 692.44,-588.09"/>
</g>
<!-- data.indexing -->
<g id="node11" class="node">
<title>data.indexing</title>
<path fill="#e8f5e9" stroke="#2d6a4f" d="M941.32,-616C941.32,-616 891.57,-616 891.57,-616 885.57,-616 879.57,-610 879.57,-604 879.57,-604 879.57,-592 879.57,-592 879.57,-586 885.57,-580 891.57,-580 891.57,-580 941.32,-580 941.32,-580 947.32,-580 953.32,-586 953.32,-592 953.32,-592 953.32,-604 953.32,-604 953.32,-610 947.32,-616 941.32,-616"/>
<text text-anchor="middle" x="916.45" y="-594.12" font-family="Helvetica,sans-Serif" font-size="10.00">data.indexing</text>
</g>
<!-- data.datamodule&#45;&gt;data.indexing -->
<g id="edge19" class="edge">
<title>data.datamodule&#45;&gt;data.indexing</title>
<path fill="none" stroke="#7d8597" d="M645.2,-601.6C656.75,-602.18 669.22,-602.71 680.75,-603 739.64,-604.49 754.4,-604.44 813.29,-603 831.17,-602.56 850.8,-601.7 868.04,-600.8"/>
<polygon fill="#7d8597" stroke="#7d8597" points="868.22,-604.3 878.02,-600.27 867.85,-597.31 868.22,-604.3"/>
</g>
<!-- data.preprocessor -->
<g id="node12" class="node">
<title>data.preprocessor</title>
<path fill="#e8f5e9" stroke="#2d6a4f" d="M782.02,-448C782.02,-448 712.02,-448 712.02,-448 706.02,-448 700.02,-442 700.02,-436 700.02,-436 700.02,-424 700.02,-424 700.02,-418 706.02,-412 712.02,-412 712.02,-412 782.02,-412 782.02,-412 788.02,-412 794.02,-418 794.02,-424 794.02,-424 794.02,-436 794.02,-436 794.02,-442 788.02,-448 782.02,-448"/>
<text text-anchor="middle" x="747.02" y="-426.12" font-family="Helvetica,sans-Serif" font-size="10.00">data.preprocessor</text>
</g>
<!-- data.datamodule&#45;&gt;data.preprocessor -->
<g id="edge20" class="edge">
<title>data.datamodule&#45;&gt;data.preprocessor</title>
<path fill="none" stroke="#7d8597" d="M616.68,-580.52C625.45,-569.2 636.4,-554.21 644.75,-540 664.09,-507.08 654.07,-489.31 680.75,-462 683.65,-459.03 686.89,-456.29 690.33,-453.77"/>
<polygon fill="#7d8597" stroke="#7d8597" points="692.04,-456.83 698.53,-448.46 688.24,-450.96 692.04,-456.83"/>
</g>
<!-- data.schema -->
<g id="node13" class="node">
<title>data.schema</title>
<path fill="#e8f5e9" stroke="#2d6a4f" d="M1139.73,-616C1139.73,-616 1091.48,-616 1091.48,-616 1085.48,-616 1079.48,-610 1079.48,-604 1079.48,-604 1079.48,-592 1079.48,-592 1079.48,-586 1085.48,-580 1091.48,-580 1091.48,-580 1139.73,-580 1139.73,-580 1145.73,-580 1151.73,-586 1151.73,-592 1151.73,-592 1151.73,-604 1151.73,-604 1151.73,-610 1145.73,-616 1139.73,-616"/>
<text text-anchor="middle" x="1115.61" y="-594.12" font-family="Helvetica,sans-Serif" font-size="10.00">data.schema</text>
</g>
<!-- data.datamodule&#45;&gt;data.schema -->
<g id="edge21" class="edge">
<title>data.datamodule&#45;&gt;data.schema</title>
<path fill="none" stroke="#7d8597" d="M609.21,-580.92C620.53,-556.21 644.6,-512.94 680.75,-495 733.52,-468.82 754.87,-487.41 813.29,-495 890.93,-505.08 911.91,-508.55 983.61,-540 1000.99,-547.63 1002.6,-554.56 1019.61,-563 1035.08,-570.68 1052.68,-577.63 1068.5,-583.27"/>
<polygon fill="#7d8597" stroke="#7d8597" points="1067.08,-586.48 1077.68,-586.46 1069.38,-579.87 1067.08,-586.48"/>
</g>
<!-- data.transforms -->
<g id="node14" class="node">
<title>data.transforms</title>
<path fill="#e8f5e9" stroke="#2d6a4f" d="M946.57,-670C946.57,-670 886.32,-670 886.32,-670 880.32,-670 874.32,-664 874.32,-658 874.32,-658 874.32,-646 874.32,-646 874.32,-640 880.32,-634 886.32,-634 886.32,-634 946.57,-634 946.57,-634 952.57,-634 958.57,-640 958.57,-646 958.57,-646 958.57,-658 958.57,-658 958.57,-664 952.57,-670 946.57,-670"/>
<text text-anchor="middle" x="916.45" y="-648.12" font-family="Helvetica,sans-Serif" font-size="10.00">data.transforms</text>
</g>
<!-- data.datamodule&#45;&gt;data.transforms -->
<g id="edge22" class="edge">
<title>data.datamodule&#45;&gt;data.transforms</title>
<path fill="none" stroke="#7d8597" d="M645.06,-610.18C656.61,-612.95 669.11,-615.76 680.75,-618 742.94,-629.96 815.13,-639.82 862.85,-645.79"/>
<polygon fill="#7d8597" stroke="#7d8597" points="862.27,-649.24 872.63,-647 863.13,-642.3 862.27,-649.24"/>
</g>
<!-- data.datamodule&#45;&gt;utils.tft_utils -->
<g id="edge23" class="edge">
<title>data.datamodule&#45;&gt;utils.tft_utils</title>
<path fill="none" stroke="#7d8597" d="M602.49,-580.75C607.64,-480.36 646.33,0 915.45,0 915.45,0 915.45,0 1639.98,0 1808.15,0 1865.43,-644.02 1876.29,-790.57"/>
<polygon fill="#7d8597" stroke="#7d8597" points="1872.78,-790.49 1876.99,-800.21 1879.76,-789.99 1872.78,-790.49"/>
</g>
<!-- data.dataset&#45;&gt;data.indexing -->
<g id="edge24" class="edge">
<title>data.dataset&#45;&gt;data.indexing</title>
<path fill="none" stroke="#7d8597" d="M782.38,-535.8C792.4,-539.93 803.32,-544.55 813.29,-549 831.76,-557.24 851.87,-566.77 869.33,-575.22"/>
<polygon fill="#7d8597" stroke="#7d8597" points="867.38,-578.16 877.91,-579.39 870.44,-571.87 867.38,-578.16"/>
</g>
<!-- data.dataset&#45;&gt;data.schema -->
<g id="edge25" class="edge">
<title>data.dataset&#45;&gt;data.schema</title>
<path fill="none" stroke="#7d8597" d="M782.51,-529.15C848.71,-542.87 993.64,-572.92 1068.23,-588.38"/>
<polygon fill="#7d8597" stroke="#7d8597" points="1067.15,-591.74 1077.66,-590.34 1068.57,-584.88 1067.15,-591.74"/>
</g>
<!-- data.indexing&#45;&gt;config -->
<g id="edge26" class="edge">
<title>data.indexing&#45;&gt;config</title>
<path fill="none" stroke="#7d8597" d="M953.69,-608.27C973.15,-613.61 997.59,-620.03 1019.61,-625 1104.3,-644.11 1139.08,-613.28 1211.61,-661 1261.54,-693.85 1294.51,-758.08 1310.35,-795.36"/>
<polygon fill="#7d8597" stroke="#7d8597" points="1306.92,-796.23 1313.96,-804.15 1313.4,-793.57 1306.92,-796.23"/>
</g>
<!-- data.indexing&#45;&gt;data.schema -->
<g id="edge27" class="edge">
<title>data.indexing&#45;&gt;data.schema</title>
<path fill="none" stroke="#7d8597" d="M953.61,-598C985.67,-598 1032.7,-598 1067.65,-598"/>
<polygon fill="#7d8597" stroke="#7d8597" points="1067.49,-601.5 1077.49,-598 1067.49,-594.5 1067.49,-601.5"/>
</g>
<!-- data.preprocessor&#45;&gt;data.schema -->
<g id="edge28" class="edge">
<title>data.preprocessor&#45;&gt;data.schema</title>
<path fill="none" stroke="#7d8597" d="M794.31,-423.08C846.27,-418.01 930.28,-418.32 983.61,-462 1021.44,-492.99 984.87,-531.56 1019.61,-566 1032.68,-578.97 1051.18,-586.68 1068.38,-591.27"/>
<polygon fill="#7d8597" stroke="#7d8597" points="1067.42,-594.64 1077.96,-593.51 1069.02,-587.83 1067.42,-594.64"/>
</g>
<!-- data.schema&#45;&gt;config -->
<g id="edge29" class="edge">
<title>data.schema&#45;&gt;config</title>
<path fill="none" stroke="#7d8597" d="M1152.14,-603.57C1171.43,-608.06 1194.71,-616.03 1211.61,-630 1265.44,-674.47 1297.89,-752.64 1312.35,-794.91"/>
<polygon fill="#7d8597" stroke="#7d8597" points="1308.94,-795.74 1315.41,-804.14 1315.59,-793.54 1308.94,-795.74"/>
</g>
<!-- data.schema&#45;&gt;utils.tft_utils -->
<g id="edge30" class="edge">
<title>data.schema&#45;&gt;utils.tft_utils</title>
<path fill="none" stroke="#7d8597" d="M1137.77,-579.83C1199.81,-528.81 1387.2,-390.64 1551.35,-433 1619.83,-450.67 1639.62,-460.99 1690.6,-510 1779.87,-595.82 1842.83,-732.91 1867.17,-791.72"/>
<polygon fill="#7d8597" stroke="#7d8597" points="1863.81,-792.73 1870.82,-800.67 1870.29,-790.09 1863.81,-792.73"/>
</g>
<!-- data.transforms&#45;&gt;config -->
<g id="edge31" class="edge">
<title>data.transforms&#45;&gt;config</title>
<path fill="none" stroke="#7d8597" d="M959.07,-656.37C1029.49,-664.31 1168.7,-682.47 1211.61,-706 1251.15,-727.68 1284.39,-768.85 1303.59,-796.36"/>
<polygon fill="#7d8597" stroke="#7d8597" points="1300.65,-798.26 1309.16,-804.57 1306.44,-794.33 1300.65,-798.26"/>
</g>
<!-- data.transforms&#45;&gt;data.schema -->
<g id="edge32" class="edge">
<title>data.transforms&#45;&gt;data.schema</title>
<path fill="none" stroke="#7d8597" d="M958.78,-640.68C990.84,-631.9 1035.26,-619.73 1068.47,-610.64"/>
<polygon fill="#7d8597" stroke="#7d8597" points="1069.09,-614.1 1077.81,-608.08 1067.24,-607.34 1069.09,-614.1"/>
</g>
<!-- defaults -->
<g id="node15" class="node">
<title>defaults</title>
<path fill="#f4d35e" stroke="#7f6000" d="M398.38,-1152C398.38,-1152 368.38,-1152 368.38,-1152 362.38,-1152 356.38,-1146 356.38,-1140 356.38,-1140 356.38,-1128 356.38,-1128 356.38,-1122 362.38,-1116 368.38,-1116 368.38,-1116 398.38,-1116 398.38,-1116 404.38,-1116 410.38,-1122 410.38,-1128 410.38,-1128 410.38,-1140 410.38,-1140 410.38,-1146 404.38,-1152 398.38,-1152"/>
<text text-anchor="middle" x="383.38" y="-1130.12" font-family="Helvetica,sans-Serif" font-size="10.00">defaults</text>
</g>
<!-- defaults&#45;&gt;config -->
<g id="edge33" class="edge">
<title>defaults&#45;&gt;config</title>
<path fill="none" stroke="#7d8597" d="M410.55,-1132.4C451.08,-1130.07 531.46,-1126 599.75,-1126 599.75,-1126 599.75,-1126 917.45,-1126 1048.62,-1126 1106.25,-1180.14 1211.61,-1102 1253.39,-1071.01 1297.03,-918.01 1313.98,-853.15"/>
<polygon fill="#7d8597" stroke="#7d8597" points="1317.34,-854.13 1316.45,-843.57 1310.56,-852.38 1317.34,-854.13"/>
</g>
<!-- environment -->
<g id="node16" class="node">
<title>environment</title>
<polygon fill="#d9eaf4" stroke="#0b3954" points="635.38,-1201 632.38,-1205 611.38,-1205 608.38,-1201 566.12,-1201 566.12,-1165 635.38,-1165 635.38,-1201"/>
<text text-anchor="middle" x="600.75" y="-1179.12" font-family="Helvetica,sans-Serif" font-size="10.00">environment</text>
</g>
<!-- environment.detection -->
<g id="node17" class="node">
<title>environment.detection</title>
<ellipse fill="#f7f7f7" stroke="#6c757d" cx="747.02" cy="-1310" rx="66.27" ry="18"/>
<text text-anchor="middle" x="747.02" y="-1306.12" font-family="Helvetica,sans-Serif" font-size="10.00">environment.detection</text>
</g>
<!-- environment&#45;&gt;environment.detection -->
<g id="edge34" class="edge">
<title>environment&#45;&gt;environment.detection</title>
<path fill="none" stroke="#4f5d75" stroke-dasharray="5,2" d="M613.55,-1201.43C627.55,-1222.17 652.59,-1255.85 680.75,-1278 686.22,-1282.3 692.36,-1286.23 698.63,-1289.76"/>
<polygon fill="#4f5d75" stroke="#4f5d75" points="696.68,-1292.69 707.16,-1294.25 699.94,-1286.49 696.68,-1292.69"/>
</g>
<!-- environment.diagnostics -->
<g id="node18" class="node">
<title>environment.diagnostics</title>
<ellipse fill="#f7f7f7" stroke="#6c757d" cx="1115.61" cy="-1226" rx="72.04" ry="18"/>
<text text-anchor="middle" x="1115.61" y="-1222.12" font-family="Helvetica,sans-Serif" font-size="10.00">environment.diagnostics</text>
</g>
<!-- environment&#45;&gt;environment.diagnostics -->
<g id="edge35" class="edge">
<title>environment&#45;&gt;environment.diagnostics</title>
<path fill="none" stroke="#4f5d75" stroke-dasharray="5,2" d="M635.52,-1188.19C649.49,-1190.21 665.88,-1192.42 680.75,-1194 803.3,-1207.04 945.89,-1216.46 1033.18,-1221.57"/>
<polygon fill="#4f5d75" stroke="#4f5d75" points="1032.9,-1225.06 1043.09,-1222.15 1033.31,-1218.07 1032.9,-1225.06"/>
</g>
<!-- environment.profiles -->
<g id="node19" class="node">
<title>environment.profiles</title>
<ellipse fill="#f7f7f7" stroke="#6c757d" cx="1115.61" cy="-1172" rx="61.39" ry="18"/>
<text text-anchor="middle" x="1115.61" y="-1168.12" font-family="Helvetica,sans-Serif" font-size="10.00">environment.profiles</text>
</g>
<!-- environment&#45;&gt;environment.profiles -->
<g id="edge36" class="edge">
<title>environment&#45;&gt;environment.profiles</title>
<path fill="none" stroke="#4f5d75" stroke-dasharray="5,2" d="M635.8,-1182.27C718.42,-1180.5 930.98,-1175.94 1043.03,-1173.54"/>
<polygon fill="#4f5d75" stroke="#4f5d75" points="1042.77,-1177.04 1052.69,-1173.33 1042.62,-1170.04 1042.77,-1177.04"/>
</g>
<!-- environment.tuning -->
<g id="node20" class="node">
<title>environment.tuning</title>
<ellipse fill="#f7f7f7" stroke="#6c757d" cx="1115.61" cy="-1356" rx="58.28" ry="18"/>
<text text-anchor="middle" x="1115.61" y="-1352.12" font-family="Helvetica,sans-Serif" font-size="10.00">environment.tuning</text>
</g>
<!-- environment&#45;&gt;environment.tuning -->
<g id="edge37" class="edge">
<title>environment&#45;&gt;environment.tuning</title>
<path fill="none" stroke="#4f5d75" stroke-dasharray="5,2" d="M605.04,-1201.49C612.14,-1235.17 632.31,-1305.93 680.75,-1337 797.63,-1411.97 970.9,-1388.9 1058.92,-1370.06"/>
<polygon fill="#4f5d75" stroke="#4f5d75" points="1059.5,-1373.51 1068.51,-1367.94 1057.99,-1366.68 1059.5,-1373.51"/>
</g>
<!-- environment.types -->
<g id="node21" class="node">
<title>environment.types</title>
<ellipse fill="#f7f7f7" stroke="#6c757d" cx="1322.31" cy="-1264" rx="56.95" ry="18"/>
<text text-anchor="middle" x="1322.31" y="-1260.12" font-family="Helvetica,sans-Serif" font-size="10.00">environment.types</text>
</g>
<!-- environment&#45;&gt;environment.types -->
<g id="edge38" class="edge">
<title>environment&#45;&gt;environment.types</title>
<path fill="none" stroke="#4f5d75" stroke-dasharray="5,2" d="M635.73,-1198.57C649.45,-1204.26 665.6,-1210.22 680.75,-1214 885.01,-1264.91 1136.21,-1267.93 1254.15,-1266"/>
<polygon fill="#4f5d75" stroke="#4f5d75" points="1254.04,-1269.51 1263.97,-1265.82 1253.91,-1262.51 1254.04,-1269.51"/>
</g>
<!-- environment.detection&#45;&gt;environment.types -->
<g id="edge39" class="edge">
<title>environment.detection&#45;&gt;environment.types</title>
<path fill="none" stroke="#7d8597" d="M813.54,-1309.62C903.58,-1308.41 1070.47,-1303.71 1211.61,-1286 1229,-1283.82 1247.76,-1280.44 1264.77,-1276.98"/>
<polygon fill="#7d8597" stroke="#7d8597" points="1265.1,-1280.49 1274.17,-1275.02 1263.67,-1273.64 1265.1,-1280.49"/>
</g>
<!-- environment.diagnostics&#45;&gt;config.data -->
<g id="edge40" class="edge">
<title>environment.diagnostics&#45;&gt;config.data</title>
<path fill="none" stroke="#7d8597" d="M1173.3,-1214.97C1186.41,-1211.06 1199.93,-1205.86 1211.61,-1199 1231.12,-1187.54 1228.66,-1175.36 1247.61,-1163 1424.52,-1047.63 1503.38,-1088.75 1690.6,-991 1705.57,-983.18 1721.23,-972.96 1734.18,-963.87"/>
<polygon fill="#7d8597" stroke="#7d8597" points="1736.17,-966.75 1742.26,-958.08 1732.09,-961.06 1736.17,-966.75"/>
</g>
<!-- environment.diagnostics&#45;&gt;config.observability -->
<g id="edge41" class="edge">
<title>environment.diagnostics&#45;&gt;config.observability</title>
<path fill="none" stroke="#7d8597" d="M1171.48,-1214.28C1241.01,-1199.43 1360.41,-1173.93 1431.96,-1158.65"/>
<polygon fill="#7d8597" stroke="#7d8597" points="1432.49,-1162.12 1441.53,-1156.6 1431.02,-1155.27 1432.49,-1162.12"/>
</g>
<!-- environment.diagnostics&#45;&gt;config.runtime -->
<g id="edge42" class="edge">
<title>environment.diagnostics&#45;&gt;config.runtime</title>
<path fill="none" stroke="#7d8597" d="M1185.31,-1221.23C1257.29,-1216.24 1368.96,-1208.48 1435.59,-1203.86"/>
<polygon fill="#7d8597" stroke="#7d8597" points="1435.45,-1207.38 1445.18,-1203.19 1434.96,-1200.39 1435.45,-1207.38"/>
</g>
<!-- environment.diagnostics&#45;&gt;environment.types -->
<g id="edge43" class="edge">
<title>environment.diagnostics&#45;&gt;environment.types</title>
<path fill="none" stroke="#7d8597" d="M1174.45,-1236.74C1201.67,-1241.79 1234.12,-1247.81 1261.58,-1252.91"/>
<polygon fill="#7d8597" stroke="#7d8597" points="1260.66,-1256.3 1271.13,-1254.68 1261.94,-1249.42 1260.66,-1256.3"/>
</g>
<!-- environment.profiles&#45;&gt;config.data -->
<g id="edge44" class="edge">
<title>environment.profiles&#45;&gt;config.data</title>
<path fill="none" stroke="#7d8597" d="M1160.44,-1159.5C1176.82,-1154.24 1195.37,-1147.58 1211.61,-1140 1228.6,-1132.07 1230.63,-1125.96 1247.61,-1118 1415.62,-1039.18 1628.95,-977.84 1719.57,-953.45"/>
<polygon fill="#7d8597" stroke="#7d8597" points="1720.29,-956.88 1729.05,-950.91 1718.48,-950.12 1720.29,-956.88"/>
</g>
<!-- environment.profiles&#45;&gt;config.observability -->
<g id="edge45" class="edge">
<title>environment.profiles&#45;&gt;config.observability</title>
<path fill="none" stroke="#7d8597" d="M1157.09,-1158.36C1195.35,-1145.48 1247.01,-1128.1 1247.61,-1128 1313.14,-1117.29 1330.91,-1121.74 1397.01,-1128 1408.69,-1129.11 1421.08,-1130.97 1432.9,-1133.08"/>
<polygon fill="#7d8597" stroke="#7d8597" points="1432.05,-1136.49 1442.52,-1134.9 1433.34,-1129.61 1432.05,-1136.49"/>
</g>
<!-- environment.profiles&#45;&gt;config.runtime -->
<g id="edge46" class="edge">
<title>environment.profiles&#45;&gt;config.runtime</title>
<path fill="none" stroke="#7d8597" d="M1175.55,-1176.41C1246.78,-1181.73 1365.75,-1190.62 1435.49,-1195.84"/>
<polygon fill="#7d8597" stroke="#7d8597" points="1434.92,-1199.3 1445.16,-1196.56 1435.44,-1192.32 1434.92,-1199.3"/>
</g>
<!-- environment.profiles&#45;&gt;environment.types -->
<g id="edge47" class="edge">
<title>environment.profiles&#45;&gt;environment.types</title>
<path fill="none" stroke="#7d8597" d="M1164.8,-1183.11C1180.06,-1187.31 1196.8,-1192.64 1211.61,-1199 1238.47,-1210.55 1266.82,-1227.48 1287.97,-1241.17"/>
<polygon fill="#7d8597" stroke="#7d8597" points="1285.9,-1244 1296.17,-1246.56 1289.74,-1238.15 1285.9,-1244"/>
</g>
<!-- environment.tuning&#45;&gt;config.runtime -->
<g id="edge48" class="edge">
<title>environment.tuning&#45;&gt;config.runtime</title>
<path fill="none" stroke="#7d8597" d="M1172.68,-1351.87C1231.63,-1345.57 1325.56,-1329.85 1397.01,-1291 1426.77,-1274.82 1453.78,-1246.66 1471.16,-1225.94"/>
<polygon fill="#7d8597" stroke="#7d8597" points="1473.66,-1228.42 1477.27,-1218.46 1468.23,-1223.99 1473.66,-1228.42"/>
</g>
<!-- environment.tuning&#45;&gt;environment.types -->
<g id="edge49" class="edge">
<title>environment.tuning&#45;&gt;environment.types</title>
<path fill="none" stroke="#7d8597" d="M1158.83,-1343.54C1175.52,-1338.16 1194.71,-1331.4 1211.61,-1324 1236.9,-1312.93 1264.14,-1298.05 1285.15,-1285.87"/>
<polygon fill="#7d8597" stroke="#7d8597" points="1286.76,-1288.99 1293.62,-1280.91 1283.22,-1282.95 1286.76,-1288.99"/>
</g>
<!-- environment.types&#45;&gt;config.data -->
<g id="edge50" class="edge">
<title>environment.types&#45;&gt;config.data</title>
<path fill="none" stroke="#7d8597" d="M1379.51,-1262.9C1427.14,-1260.13 1496.27,-1251.68 1551.35,-1227 1624.09,-1194.41 1642.69,-1177.69 1690.6,-1114 1724.2,-1069.33 1745.59,-1006.85 1755.98,-970.79"/>
<polygon fill="#7d8597" stroke="#7d8597" points="1759.25,-972.09 1758.56,-961.52 1752.5,-970.21 1759.25,-972.09"/>
</g>
<!-- environment.types&#45;&gt;config.observability -->
<g id="edge51" class="edge">
<title>environment.types&#45;&gt;config.observability</title>
<path fill="none" stroke="#7d8597" d="M1341.2,-1246.66C1362.04,-1227.07 1398.08,-1195.07 1433.01,-1173 1437.04,-1170.46 1441.34,-1168.01 1445.71,-1165.7"/>
<polygon fill="#7d8597" stroke="#7d8597" points="1447.23,-1168.85 1454.61,-1161.25 1444.1,-1162.6 1447.23,-1168.85"/>
</g>
<!-- environment.types&#45;&gt;config.runtime -->
<g id="edge52" class="edge">
<title>environment.types&#45;&gt;config.runtime</title>
<path fill="none" stroke="#7d8597" d="M1359.74,-1250.11C1385.62,-1240.25 1420.48,-1226.95 1447.8,-1216.54"/>
<polygon fill="#7d8597" stroke="#7d8597" points="1448.73,-1219.93 1456.83,-1213.1 1446.24,-1213.39 1448.73,-1219.93"/>
</g>
<!-- evaluation -->
<g id="node22" class="node">
<title>evaluation</title>
<polygon fill="#d9eaf4" stroke="#0b3954" points="1145.73,-486 1142.73,-490 1121.73,-490 1118.73,-486 1085.48,-486 1085.48,-450 1145.73,-450 1145.73,-486"/>
<text text-anchor="middle" x="1115.61" y="-464.12" font-family="Helvetica,sans-Serif" font-size="10.00">evaluation</text>
</g>
<!-- evaluation.core -->
<g id="node23" class="node">
<title>evaluation.core</title>
<ellipse fill="#f7f7f7" stroke="#6c757d" cx="1492.18" cy="-606" rx="48.52" ry="18"/>
<text text-anchor="middle" x="1492.18" y="-602.12" font-family="Helvetica,sans-Serif" font-size="10.00">evaluation.core</text>
</g>
<!-- evaluation&#45;&gt;evaluation.core -->
<g id="edge53" class="edge">
<title>evaluation&#45;&gt;evaluation.core</title>
<path fill="none" stroke="#4f5d75" stroke-dasharray="5,2" d="M1145.87,-471.62C1166.42,-475.52 1193.39,-483.56 1211.61,-500 1240.26,-525.85 1216.36,-556.37 1247.61,-579 1302.35,-618.64 1382.93,-619.48 1436.22,-614.41"/>
<polygon fill="#4f5d75" stroke="#4f5d75" points="1436.41,-617.91 1445.98,-613.38 1435.66,-610.95 1436.41,-617.91"/>
</g>
<!-- evaluation.evaluator -->
<g id="node24" class="node">
<title>evaluation.evaluator</title>
<ellipse fill="#f7f7f7" stroke="#6c757d" cx="1322.31" cy="-552" rx="60.94" ry="18"/>
<text text-anchor="middle" x="1322.31" y="-548.12" font-family="Helvetica,sans-Serif" font-size="10.00">evaluation.evaluator</text>
</g>
<!-- evaluation&#45;&gt;evaluation.evaluator -->
<g id="edge54" class="edge">
<title>evaluation&#45;&gt;evaluation.evaluator</title>
<path fill="none" stroke="#4f5d75" stroke-dasharray="5,2" d="M1145.81,-476.33C1164.87,-482.13 1190.12,-490.51 1211.61,-500 1228.35,-507.4 1231.2,-511.9 1247.61,-520 1256.33,-524.3 1265.77,-528.64 1274.89,-532.66"/>
<polygon fill="#4f5d75" stroke="#4f5d75" points="1273.42,-535.84 1283.99,-536.63 1276.22,-529.43 1273.42,-535.84"/>
</g>
<!-- evaluation.grouping -->
<g id="node25" class="node">
<title>evaluation.grouping</title>
<ellipse fill="#f7f7f7" stroke="#6c757d" cx="1492.18" cy="-514" rx="59.17" ry="18"/>
<text text-anchor="middle" x="1492.18" y="-510.12" font-family="Helvetica,sans-Serif" font-size="10.00">evaluation.grouping</text>
</g>
<!-- evaluation&#45;&gt;evaluation.grouping -->
<g id="edge55" class="edge">
<title>evaluation&#45;&gt;evaluation.grouping</title>
<path fill="none" stroke="#4f5d75" stroke-dasharray="5,2" d="M1146,-471.61C1205.88,-478.96 1343.26,-495.83 1425.51,-505.93"/>
<polygon fill="#4f5d75" stroke="#4f5d75" points="1424.88,-509.38 1435.23,-507.13 1425.73,-502.44 1424.88,-509.38"/>
</g>
<!-- evaluation.metrics -->
<g id="node26" class="node">
<title>evaluation.metrics</title>
<ellipse fill="#f7f7f7" stroke="#6c757d" cx="1492.18" cy="-460" rx="56.51" ry="18"/>
<text text-anchor="middle" x="1492.18" y="-456.12" font-family="Helvetica,sans-Serif" font-size="10.00">evaluation.metrics</text>
</g>
<!-- evaluation&#45;&gt;evaluation.metrics -->
<g id="edge56" class="edge">
<title>evaluation&#45;&gt;evaluation.metrics</title>
<path fill="none" stroke="#4f5d75" stroke-dasharray="5,2" d="M1146,-467.37C1205.49,-466.1 1341.47,-463.2 1423.89,-461.44"/>
<polygon fill="#4f5d75" stroke="#4f5d75" points="1423.97,-464.94 1433.89,-461.22 1423.82,-457.94 1423.97,-464.94"/>
</g>
<!-- evaluation.types -->
<g id="node27" class="node">
<title>evaluation.types</title>
<ellipse fill="#f7f7f7" stroke="#6c757d" cx="1638.98" cy="-537" rx="51.63" ry="18"/>
<text text-anchor="middle" x="1638.98" y="-533.12" font-family="Helvetica,sans-Serif" font-size="10.00">evaluation.types</text>
</g>
<!-- evaluation&#45;&gt;evaluation.types -->
<g id="edge57" class="edge">
<title>evaluation&#45;&gt;evaluation.types</title>
<path fill="none" stroke="#4f5d75" stroke-dasharray="5,2" d="M1146.09,-456.04C1218.93,-428.45 1411.65,-367.54 1551.35,-433 1584.49,-448.53 1609.37,-483.66 1623.78,-508.79"/>
<polygon fill="#4f5d75" stroke="#4f5d75" points="1620.7,-510.45 1628.57,-517.53 1626.83,-507.08 1620.7,-510.45"/>
</g>
<!-- evaluation.core&#45;&gt;evaluation.types -->
<g id="edge58" class="edge">
<title>evaluation.core&#45;&gt;evaluation.types</title>
<path fill="none" stroke="#7d8597" d="M1523.19,-591.7C1544.59,-581.5 1573.63,-567.66 1597.15,-556.46"/>
<polygon fill="#7d8597" stroke="#7d8597" points="1598.63,-559.63 1606.15,-552.17 1595.62,-553.31 1598.63,-559.63"/>
</g>
<!-- evaluation.evaluator&#45;&gt;evaluation.core -->
<g id="edge59" class="edge">
<title>evaluation.evaluator&#45;&gt;evaluation.core</title>
<path fill="none" stroke="#7d8597" d="M1364.81,-565.35C1388.83,-573.07 1419.14,-582.83 1444.06,-590.84"/>
<polygon fill="#7d8597" stroke="#7d8597" points="1442.69,-594.08 1453.28,-593.81 1444.84,-587.41 1442.69,-594.08"/>
</g>
<!-- evaluation.evaluator&#45;&gt;evaluation.grouping -->
<g id="edge60" class="edge">
<title>evaluation.evaluator&#45;&gt;evaluation.grouping</title>
<path fill="none" stroke="#7d8597" d="M1371.42,-541.11C1390.46,-536.8 1412.53,-531.81 1432.49,-527.29"/>
<polygon fill="#7d8597" stroke="#7d8597" points="1433.2,-530.72 1442.18,-525.09 1431.65,-523.89 1433.2,-530.72"/>
</g>
<!-- evaluation.evaluator&#45;&gt;evaluation.metrics -->
<g id="edge61" class="edge">
<title>evaluation.evaluator&#45;&gt;evaluation.metrics</title>
<path fill="none" stroke="#7d8597" d="M1349.49,-535.48C1371.45,-521.87 1403.83,-502.37 1433.01,-487 1437.75,-484.5 1442.76,-481.99 1447.78,-479.56"/>
<polygon fill="#7d8597" stroke="#7d8597" points="1449.09,-482.81 1456.62,-475.36 1446.08,-476.49 1449.09,-482.81"/>
</g>
<!-- evaluation.evaluator&#45;&gt;evaluation.types -->
<g id="edge62" class="edge">
<title>evaluation.evaluator&#45;&gt;evaluation.types</title>
<path fill="none" stroke="#7d8597" d="M1382.87,-549.16C1438.21,-546.52 1520.29,-542.61 1576.3,-539.94"/>
<polygon fill="#7d8597" stroke="#7d8597" points="1576.16,-543.45 1585.98,-539.48 1575.82,-536.46 1576.16,-543.45"/>
</g>
<!-- evaluation.grouping&#45;&gt;evaluation.types -->
<g id="edge63" class="edge">
<title>evaluation.grouping&#45;&gt;evaluation.types</title>
<path fill="none" stroke="#7d8597" d="M1545.46,-522.3C1556.76,-524.1 1568.77,-526.01 1580.26,-527.83"/>
<polygon fill="#7d8597" stroke="#7d8597" points="1579.62,-531.27 1590.05,-529.39 1580.72,-524.36 1579.62,-531.27"/>
</g>
<!-- main -->
<g id="node28" class="node">
<title>main</title>
<path fill="#f4d35e" stroke="#7f6000" d="M45.12,-1030C45.12,-1030 15.12,-1030 15.12,-1030 9.13,-1030 3.12,-1024 3.12,-1018 3.12,-1018 3.12,-1006 3.12,-1006 3.12,-1000 9.12,-994 15.12,-994 15.12,-994 45.12,-994 45.12,-994 51.12,-994 57.12,-1000 57.12,-1006 57.12,-1006 57.12,-1018 57.12,-1018 57.12,-1024 51.12,-1030 45.12,-1030"/>
<text text-anchor="middle" x="30.12" y="-1008.12" font-family="Helvetica,sans-Serif" font-size="10.00">main</text>
</g>
<!-- main&#45;&gt;defaults -->
<g id="edge64" class="edge">
<title>main&#45;&gt;defaults</title>
<path fill="none" stroke="#7d8597" d="M49.46,-1030.09C79.19,-1058.03 141.05,-1110.56 205.25,-1131 251.66,-1145.78 308.43,-1143.42 344.98,-1139.47"/>
<polygon fill="#7d8597" stroke="#7d8597" points="345.08,-1142.98 354.6,-1138.33 344.26,-1136.03 345.08,-1142.98"/>
</g>
<!-- workflows.cli -->
<g id="node48" class="node">
<title>workflows.cli</title>
<path fill="#e8f5e9" stroke="#2d6a4f" d="M157.25,-1030C157.25,-1030 108.25,-1030 108.25,-1030 102.25,-1030 96.25,-1024 96.25,-1018 96.25,-1018 96.25,-1006 96.25,-1006 96.25,-1000 102.25,-994 108.25,-994 108.25,-994 157.25,-994 157.25,-994 163.25,-994 169.25,-1000 169.25,-1006 169.25,-1006 169.25,-1018 169.25,-1018 169.25,-1024 163.25,-1030 157.25,-1030"/>
<text text-anchor="middle" x="132.75" y="-1008.12" font-family="Helvetica,sans-Serif" font-size="10.00">workflows.cli</text>
</g>
<!-- main&#45;&gt;workflows.cli -->
<g id="edge65" class="edge">
<title>main&#45;&gt;workflows.cli</title>
<path fill="none" stroke="#7d8597" d="M57.56,-1012C65.93,-1012 75.43,-1012 84.79,-1012"/>
<polygon fill="#7d8597" stroke="#7d8597" points="84.52,-1015.5 94.52,-1012 84.52,-1008.5 84.52,-1015.5"/>
</g>
<!-- workflows.helpers -->
<g id="node49" class="node">
<title>workflows.helpers</title>
<path fill="#e8f5e9" stroke="#2d6a4f" d="M418.75,-970C418.75,-970 348,-970 348,-970 342,-970 336,-964 336,-958 336,-958 336,-946 336,-946 336,-940 342,-934 348,-934 348,-934 418.75,-934 418.75,-934 424.75,-934 430.75,-940 430.75,-946 430.75,-946 430.75,-958 430.75,-958 430.75,-964 424.75,-970 418.75,-970"/>
<text text-anchor="middle" x="383.38" y="-948.12" font-family="Helvetica,sans-Serif" font-size="10.00">workflows.helpers</text>
</g>
<!-- main&#45;&gt;workflows.helpers -->
<g id="edge66" class="edge">
<title>main&#45;&gt;workflows.helpers</title>
<path fill="none" stroke="#7d8597" d="M57.31,-1025.62C68.91,-1030.92 82.93,-1036.35 96.25,-1039 128.07,-1045.33 136.99,-1042.42 169.25,-1039 228.35,-1032.74 245.65,-1035.03 300,-1011 319.05,-1002.58 338.11,-989.32 353.08,-977.51"/>
<polygon fill="#7d8597" stroke="#7d8597" points="355.11,-980.37 360.67,-971.35 350.7,-974.93 355.11,-980.37"/>
</g>
<!-- workflows.training -->
<g id="node50" class="node">
<title>workflows.training</title>
<path fill="#e8f5e9" stroke="#2d6a4f" d="M288,-832C288,-832 217.25,-832 217.25,-832 211.25,-832 205.25,-826 205.25,-820 205.25,-820 205.25,-808 205.25,-808 205.25,-802 211.25,-796 217.25,-796 217.25,-796 288,-796 288,-796 294,-796 300,-802 300,-808 300,-808 300,-820 300,-820 300,-826 294,-832 288,-832"/>
<text text-anchor="middle" x="252.62" y="-810.12" font-family="Helvetica,sans-Serif" font-size="10.00">workflows.training</text>
</g>
<!-- main&#45;&gt;workflows.training -->
<g id="edge67" class="edge">
<title>main&#45;&gt;workflows.training</title>
<path fill="none" stroke="#7d8597" d="M50.99,-993.52C63.85,-981.61 80.97,-965.82 96.25,-952 139.9,-912.51 191.03,-867.3 222.37,-839.7"/>
<polygon fill="#7d8597" stroke="#7d8597" points="224.33,-842.64 229.52,-833.41 219.7,-837.39 224.33,-842.64"/>
</g>
<!-- workflows.types -->
<g id="node51" class="node">
<title>workflows.types</title>
<path fill="#e8f5e9" stroke="#2d6a4f" d="M415,-916C415,-916 351.75,-916 351.75,-916 345.75,-916 339.75,-910 339.75,-904 339.75,-904 339.75,-892 339.75,-892 339.75,-886 345.75,-880 351.75,-880 351.75,-880 415,-880 415,-880 421,-880 427,-886 427,-892 427,-892 427,-904 427,-904 427,-910 421,-916 415,-916"/>
<text text-anchor="middle" x="383.38" y="-894.12" font-family="Helvetica,sans-Serif" font-size="10.00">workflows.types</text>
</g>
<!-- main&#45;&gt;workflows.types -->
<g id="edge68" class="edge">
<title>main&#45;&gt;workflows.types</title>
<path fill="none" stroke="#7d8597" d="M57.54,-997.95C91.05,-980.65 151.01,-951.43 205.25,-934 245.69,-921.01 292.88,-911.69 328.38,-905.8"/>
<polygon fill="#7d8597" stroke="#7d8597" points="328.66,-909.29 337.98,-904.24 327.55,-902.38 328.66,-909.29"/>
</g>
<!-- models.fused_model -->
<g id="node29" class="node">
<title>models.fused_model</title>
<path fill="#e8f5e9" stroke="#2d6a4f" d="M788.02,-884C788.02,-884 706.02,-884 706.02,-884 700.02,-884 694.02,-878 694.02,-872 694.02,-872 694.02,-860 694.02,-860 694.02,-854 700.02,-848 706.02,-848 706.02,-848 788.02,-848 788.02,-848 794.02,-848 800.02,-854 800.02,-860 800.02,-860 800.02,-872 800.02,-872 800.02,-878 794.02,-884 788.02,-884"/>
<text text-anchor="middle" x="747.02" y="-862.12" font-family="Helvetica,sans-Serif" font-size="10.00">models.fused_model</text>
</g>
<!-- models.fused_model&#45;&gt;config -->
<g id="edge69" class="edge">
<title>models.fused_model&#45;&gt;config</title>
<path fill="none" stroke="#7d8597" d="M800.33,-861.84C855.01,-857.51 943.32,-850.6 1019.61,-845 1114.69,-838.01 1226.68,-830.37 1283.76,-826.52"/>
<polygon fill="#7d8597" stroke="#7d8597" points="1283.82,-830.02 1293.57,-825.86 1283.35,-823.04 1283.82,-830.02"/>
</g>
<!-- models.fused_model&#45;&gt;evaluation -->
<g id="edge70" class="edge">
<title>models.fused_model&#45;&gt;evaluation</title>
<path fill="none" stroke="#7d8597" d="M749.11,-847.71C753.08,-796.89 771.05,-652.4 849.29,-571 910.63,-507.18 1016.06,-482.24 1073.82,-473.02"/>
<polygon fill="#7d8597" stroke="#7d8597" points="1074.19,-476.5 1083.56,-471.55 1073.15,-469.58 1074.19,-476.5"/>
</g>
<!-- models.grn -->
<g id="node30" class="node">
<title>models.grn</title>
<path fill="#e8f5e9" stroke="#2d6a4f" d="M1135.61,-890C1135.61,-890 1095.61,-890 1095.61,-890 1089.61,-890 1083.61,-884 1083.61,-878 1083.61,-878 1083.61,-866 1083.61,-866 1083.61,-860 1089.61,-854 1095.61,-854 1095.61,-854 1135.61,-854 1135.61,-854 1141.61,-854 1147.61,-860 1147.61,-866 1147.61,-866 1147.61,-878 1147.61,-878 1147.61,-884 1141.61,-890 1135.61,-890"/>
<text text-anchor="middle" x="1115.61" y="-868.12" font-family="Helvetica,sans-Serif" font-size="10.00">models.grn</text>
</g>
<!-- models.fused_model&#45;&gt;models.grn -->
<g id="edge71" class="edge">
<title>models.fused_model&#45;&gt;models.grn</title>
<path fill="none" stroke="#7d8597" d="M800.15,-866.85C873.07,-868.05 1004.13,-870.19 1071.71,-871.3"/>
<polygon fill="#7d8597" stroke="#7d8597" points="1071.6,-874.8 1081.66,-871.46 1071.72,-867.8 1071.6,-874.8"/>
</g>
<!-- models.nn_head -->
<g id="node31" class="node">
<title>models.nn_head</title>
<path fill="#e8f5e9" stroke="#2d6a4f" d="M948.07,-800C948.07,-800 884.82,-800 884.82,-800 878.82,-800 872.82,-794 872.82,-788 872.82,-788 872.82,-776 872.82,-776 872.82,-770 878.82,-764 884.82,-764 884.82,-764 948.07,-764 948.07,-764 954.07,-764 960.07,-770 960.07,-776 960.07,-776 960.07,-788 960.07,-788 960.07,-794 954.07,-800 948.07,-800"/>
<text text-anchor="middle" x="916.45" y="-778.12" font-family="Helvetica,sans-Serif" font-size="10.00">models.nn_head</text>
</g>
<!-- models.fused_model&#45;&gt;models.nn_head -->
<g id="edge72" class="edge">
<title>models.fused_model&#45;&gt;models.nn_head</title>
<path fill="none" stroke="#7d8597" d="M783.53,-847.5C802.91,-837.48 827.36,-824.93 849.29,-814 855,-811.16 860.99,-808.2 866.95,-805.29"/>
<polygon fill="#7d8597" stroke="#7d8597" points="868.07,-808.64 875.53,-801.12 865.01,-802.35 868.07,-808.64"/>
</g>
<!-- models.tcn -->
<g id="node32" class="node">
<title>models.tcn</title>
<path fill="#e8f5e9" stroke="#2d6a4f" d="M936.45,-984C936.45,-984 896.45,-984 896.45,-984 890.45,-984 884.45,-978 884.45,-972 884.45,-972 884.45,-960 884.45,-960 884.45,-954 890.45,-948 896.45,-948 896.45,-948 936.45,-948 936.45,-948 942.45,-948 948.45,-954 948.45,-960 948.45,-960 948.45,-972 948.45,-972 948.45,-978 942.45,-984 936.45,-984"/>
<text text-anchor="middle" x="916.45" y="-962.12" font-family="Helvetica,sans-Serif" font-size="10.00">models.tcn</text>
</g>
<!-- models.fused_model&#45;&gt;models.tcn -->
<g id="edge73" class="edge">
<title>models.fused_model&#45;&gt;models.tcn</title>
<path fill="none" stroke="#7d8597" d="M770.31,-884.45C790.18,-900.29 820.48,-923.03 849.29,-939 856.91,-943.22 865.33,-947.16 873.53,-950.65"/>
<polygon fill="#7d8597" stroke="#7d8597" points="872.13,-953.86 882.71,-954.4 874.77,-947.38 872.13,-953.86"/>
</g>
<!-- models.tft -->
<g id="node33" class="node">
<title>models.tft</title>
<path fill="#e8f5e9" stroke="#2d6a4f" d="M934.2,-930C934.2,-930 898.7,-930 898.7,-930 892.7,-930 886.7,-924 886.7,-918 886.7,-918 886.7,-906 886.7,-906 886.7,-900 892.7,-894 898.7,-894 898.7,-894 934.2,-894 934.2,-894 940.2,-894 946.2,-900 946.2,-906 946.2,-906 946.2,-918 946.2,-918 946.2,-924 940.2,-930 934.2,-930"/>
<text text-anchor="middle" x="916.45" y="-908.12" font-family="Helvetica,sans-Serif" font-size="10.00">models.tft</text>
</g>
<!-- models.fused_model&#45;&gt;models.tft -->
<g id="edge74" class="edge">
<title>models.fused_model&#45;&gt;models.tft</title>
<path fill="none" stroke="#7d8597" d="M800.08,-880.3C824.38,-886.98 852.87,-894.81 875.45,-901.01"/>
<polygon fill="#7d8597" stroke="#7d8597" points="874.31,-904.33 884.88,-903.6 876.17,-897.58 874.31,-904.33"/>
</g>
<!-- models.grn&#45;&gt;config -->
<g id="edge75" class="edge">
<title>models.grn&#45;&gt;config</title>
<path fill="none" stroke="#7d8597" d="M1147.7,-864.71C1184.17,-856.16 1244.59,-841.99 1283.67,-832.83"/>
<polygon fill="#7d8597" stroke="#7d8597" points="1284.41,-836.25 1293.35,-830.56 1282.82,-829.43 1284.41,-836.25"/>
</g>
<!-- models.tcn&#45;&gt;config -->
<g id="edge76" class="edge">
<title>models.tcn&#45;&gt;config</title>
<path fill="none" stroke="#7d8597" d="M948.78,-967.41C1004.48,-968.67 1123.18,-965.68 1211.61,-924 1247.42,-907.12 1279.75,-874.49 1299.89,-851.09"/>
<polygon fill="#7d8597" stroke="#7d8597" points="1302.53,-853.39 1306.27,-843.48 1297.16,-848.9 1302.53,-853.39"/>
</g>
<!-- models.tft&#45;&gt;config -->
<g id="edge77" class="edge">
<title>models.tft&#45;&gt;config</title>
<path fill="none" stroke="#7d8597" d="M946.37,-915.84C1000.21,-921.88 1118.75,-929.97 1211.61,-899 1242.3,-888.76 1272.29,-867.23 1293.14,-849.86"/>
<polygon fill="#7d8597" stroke="#7d8597" points="1295.3,-852.61 1300.61,-843.45 1290.74,-847.3 1295.3,-852.61"/>
</g>
<!-- models.tft&#45;&gt;models.grn -->
<g id="edge78" class="edge">
<title>models.tft&#45;&gt;models.grn</title>
<path fill="none" stroke="#7d8597" d="M946.54,-906.1C979.64,-899.38 1034.01,-888.35 1071.92,-880.66"/>
<polygon fill="#7d8597" stroke="#7d8597" points="1072.52,-884.11 1081.63,-878.69 1071.13,-877.25 1072.52,-884.11"/>
</g>
<!-- observability -->
<g id="node34" class="node">
<title>observability</title>
<polygon fill="#d9eaf4" stroke="#0b3954" points="782.4,-291 779.4,-295 758.4,-295 755.4,-291 711.65,-291 711.65,-255 782.4,-255 782.4,-291"/>
<text text-anchor="middle" x="747.02" y="-269.12" font-family="Helvetica,sans-Serif" font-size="10.00">observability</text>
</g>
<!-- observability.callbacks -->
<g id="node35" class="node">
<title>observability.callbacks</title>
<ellipse fill="#f7f7f7" stroke="#6c757d" cx="916.45" cy="-246" rx="67.16" ry="18"/>
<text text-anchor="middle" x="916.45" y="-242.12" font-family="Helvetica,sans-Serif" font-size="10.00">observability.callbacks</text>
</g>
<!-- observability&#45;&gt;observability.callbacks -->
<g id="edge79" class="edge">
<title>observability&#45;&gt;observability.callbacks</title>
<path fill="none" stroke="#4f5d75" stroke-dasharray="5,2" d="M782.71,-267.41C801.23,-264.42 824.68,-260.64 846.71,-257.09"/>
<polygon fill="#4f5d75" stroke="#4f5d75" points="847.25,-260.54 856.57,-255.5 846.14,-253.63 847.25,-260.54"/>
</g>
<!-- observability.logging_utils -->
<g id="node37" class="node">
<title>observability.logging_utils</title>
<ellipse fill="#f7f7f7" stroke="#6c757d" cx="1322.31" cy="-268" rx="74.7" ry="18"/>
<text text-anchor="middle" x="1322.31" y="-264.12" font-family="Helvetica,sans-Serif" font-size="10.00">observability.logging_utils</text>
</g>
<!-- observability&#45;&gt;observability.logging_utils -->
<g id="edge80" class="edge">
<title>observability&#45;&gt;observability.logging_utils</title>
<path fill="none" stroke="#4f5d75" stroke-dasharray="5,2" d="M760.84,-254.87C778.41,-231.17 812.07,-189.66 849.29,-164 916.53,-117.65 939.44,-110.62 1019.61,-95 1103.37,-78.68 1141.79,-45.93 1211.61,-95 1250.26,-122.16 1222.2,-155.18 1247.61,-195 1259.19,-213.15 1276.02,-230.27 1290.68,-243.36"/>
<polygon fill="#4f5d75" stroke="#4f5d75" points="1288.02,-245.68 1297.86,-249.59 1292.6,-240.39 1288.02,-245.68"/>
</g>
<!-- observability.reporting -->
<g id="node40" class="node">
<title>observability.reporting</title>
<ellipse fill="#f7f7f7" stroke="#6c757d" cx="916.45" cy="-300" rx="64.94" ry="18"/>
<text text-anchor="middle" x="916.45" y="-296.12" font-family="Helvetica,sans-Serif" font-size="10.00">observability.reporting</text>
</g>
<!-- observability&#45;&gt;observability.reporting -->
<g id="edge81" class="edge">
<title>observability&#45;&gt;observability.reporting</title>
<path fill="none" stroke="#4f5d75" stroke-dasharray="5,2" d="M782.71,-278.59C801.64,-281.65 825.73,-285.53 848.18,-289.15"/>
<polygon fill="#4f5d75" stroke="#4f5d75" points="847.46,-292.58 857.89,-290.72 848.57,-285.67 847.46,-292.58"/>
</g>
<!-- observability.runtime -->
<g id="node41" class="node">
<title>observability.runtime</title>
<ellipse fill="#f7f7f7" stroke="#6c757d" cx="1115.61" cy="-122" rx="61.83" ry="18"/>
<text text-anchor="middle" x="1115.61" y="-118.12" font-family="Helvetica,sans-Serif" font-size="10.00">observability.runtime</text>
</g>
<!-- observability&#45;&gt;observability.runtime -->
<g id="edge82" class="edge">
<title>observability&#45;&gt;observability.runtime</title>
<path fill="none" stroke="#4f5d75" stroke-dasharray="5,2" d="M779.83,-254.56C799.5,-243.54 825.46,-229.65 849.29,-219 921.34,-186.81 1007.64,-156.76 1061.81,-138.88"/>
<polygon fill="#4f5d75" stroke="#4f5d75" points="1062.69,-142.28 1071.1,-135.83 1060.5,-135.63 1062.69,-142.28"/>
</g>
<!-- observability.callbacks&#45;&gt;config -->
<g id="edge83" class="edge">
<title>observability.callbacks&#45;&gt;config</title>
<path fill="none" stroke="#7d8597" d="M965.59,-258.65C972.47,-262.29 978.82,-266.98 983.61,-273 1045.84,-351.22 949.26,-423.99 1019.61,-495 1080.54,-556.51 1145,-472.68 1211.61,-528 1222.44,-536.99 1286.58,-722.3 1311.46,-795.05"/>
<polygon fill="#7d8597" stroke="#7d8597" points="1308.07,-795.95 1314.61,-804.28 1314.69,-793.68 1308.07,-795.95"/>
</g>
<!-- observability.debug_callbacks -->
<g id="node36" class="node">
<title>observability.debug_callbacks</title>
<ellipse fill="#f7f7f7" stroke="#6c757d" cx="1115.61" cy="-376" rx="85.8" ry="18"/>
<text text-anchor="middle" x="1115.61" y="-372.12" font-family="Helvetica,sans-Serif" font-size="10.00">observability.debug_callbacks</text>
</g>
<!-- observability.callbacks&#45;&gt;observability.debug_callbacks -->
<g id="edge84" class="edge">
<title>observability.callbacks&#45;&gt;observability.debug_callbacks</title>
<path fill="none" stroke="#7d8597" d="M962.85,-259.24C970.38,-262.85 977.66,-267.37 983.61,-273 1010.75,-298.69 991.08,-324.85 1019.61,-349 1024.93,-353.51 1030.96,-357.27 1037.34,-360.4"/>
<polygon fill="#7d8597" stroke="#7d8597" points="1035.64,-363.48 1046.21,-364.22 1038.41,-357.05 1035.64,-363.48"/>
</g>
<!-- observability.parameter_callbacks -->
<g id="node38" class="node">
<title>observability.parameter_callbacks</title>
<ellipse fill="#f7f7f7" stroke="#6c757d" cx="1115.61" cy="-322" rx="96" ry="18"/>
<text text-anchor="middle" x="1115.61" y="-318.12" font-family="Helvetica,sans-Serif" font-size="10.00">observability.parameter_callbacks</text>
</g>
<!-- observability.callbacks&#45;&gt;observability.parameter_callbacks -->
<g id="edge85" class="edge">
<title>observability.callbacks&#45;&gt;observability.parameter_callbacks</title>
<path fill="none" stroke="#7d8597" d="M956.75,-260.82C965.7,-264.53 975.08,-268.69 983.61,-273 1000.34,-281.46 1002.43,-287.48 1019.61,-295 1027.3,-298.37 1035.54,-301.44 1043.82,-304.2"/>
<polygon fill="#7d8597" stroke="#7d8597" points="1042.66,-307.51 1053.25,-307.2 1044.78,-300.83 1042.66,-307.51"/>
</g>
<!-- observability.prediction_callbacks -->
<g id="node39" class="node">
<title>observability.prediction_callbacks</title>
<ellipse fill="#f7f7f7" stroke="#6c757d" cx="1115.61" cy="-268" rx="95.12" ry="18"/>
<text text-anchor="middle" x="1115.61" y="-264.12" font-family="Helvetica,sans-Serif" font-size="10.00">observability.prediction_callbacks</text>
</g>
<!-- observability.callbacks&#45;&gt;observability.prediction_callbacks -->
<g id="edge86" class="edge">
<title>observability.callbacks&#45;&gt;observability.prediction_callbacks</title>
<path fill="none" stroke="#7d8597" d="M979.02,-252.87C992.61,-254.39 1007.31,-256.03 1021.83,-257.65"/>
<polygon fill="#7d8597" stroke="#7d8597" points="1021.06,-261.08 1031.38,-258.71 1021.83,-254.13 1021.06,-261.08"/>
</g>
<!-- observability.system_callbacks -->
<g id="node42" class="node">
<title>observability.system_callbacks</title>
<ellipse fill="#f7f7f7" stroke="#6c757d" cx="1115.61" cy="-214" rx="89.35" ry="18"/>
<text text-anchor="middle" x="1115.61" y="-210.12" font-family="Helvetica,sans-Serif" font-size="10.00">observability.system_callbacks</text>
</g>
<!-- observability.callbacks&#45;&gt;observability.system_callbacks -->
<g id="edge87" class="edge">
<title>observability.callbacks&#45;&gt;observability.system_callbacks</title>
<path fill="none" stroke="#7d8597" d="M974.74,-236.7C993.17,-233.71 1013.95,-230.34 1033.74,-227.13"/>
<polygon fill="#7d8597" stroke="#7d8597" points="1034.13,-230.61 1043.44,-225.55 1033.01,-223.7 1034.13,-230.61"/>
</g>
<!-- observability.utils -->
<g id="node44" class="node">
<title>observability.utils</title>
<ellipse fill="#f7f7f7" stroke="#6c757d" cx="1322.31" cy="-168" rx="53.4" ry="18"/>
<text text-anchor="middle" x="1322.31" y="-164.12" font-family="Helvetica,sans-Serif" font-size="10.00">observability.utils</text>
</g>
<!-- observability.callbacks&#45;&gt;observability.utils -->
<g id="edge88" class="edge">
<title>observability.callbacks&#45;&gt;observability.utils</title>
<path fill="none" stroke="#7d8597" d="M923.35,-227.75C935.3,-194.18 965.93,-123.49 1019.61,-95 1094.98,-54.99 1129.93,-70.31 1211.61,-95 1243.08,-104.52 1273.8,-126.36 1294.68,-143.68"/>
<polygon fill="#7d8597" stroke="#7d8597" points="1292.25,-146.21 1302.13,-150.04 1296.8,-140.89 1292.25,-146.21"/>
</g>
<!-- observability.debug_callbacks&#45;&gt;config -->
<g id="edge89" class="edge">
<title>observability.debug_callbacks&#45;&gt;config</title>
<path fill="none" stroke="#7d8597" d="M1152.6,-392.55C1172.77,-403.57 1196.78,-419.91 1211.61,-441 1248.08,-492.85 1230.48,-517.97 1247.61,-579 1269.59,-657.29 1297.82,-748.89 1312.13,-794.73"/>
<polygon fill="#7d8597" stroke="#7d8597" points="1308.76,-795.68 1315.08,-804.18 1315.44,-793.59 1308.76,-795.68"/>
</g>
<!-- observability.debug_callbacks&#45;&gt;observability.logging_utils -->
<g id="edge90" class="edge">
<title>observability.debug_callbacks&#45;&gt;observability.logging_utils</title>
<path fill="none" stroke="#7d8597" d="M1179.67,-363.71C1190.82,-360 1201.94,-355.19 1211.61,-349 1232.32,-335.74 1228.41,-322.35 1247.61,-307 1255.83,-300.43 1265.33,-294.44 1274.71,-289.24"/>
<polygon fill="#7d8597" stroke="#7d8597" points="1276.24,-292.39 1283.44,-284.62 1272.97,-286.2 1276.24,-292.39"/>
</g>
<!-- observability.tensors -->
<g id="node43" class="node">
<title>observability.tensors</title>
<ellipse fill="#f7f7f7" stroke="#6c757d" cx="1322.31" cy="-334" rx="61.83" ry="18"/>
<text text-anchor="middle" x="1322.31" y="-330.12" font-family="Helvetica,sans-Serif" font-size="10.00">observability.tensors</text>
</g>
<!-- observability.debug_callbacks&#45;&gt;observability.tensors -->
<g id="edge91" class="edge">
<title>observability.debug_callbacks&#45;&gt;observability.tensors</title>
<path fill="none" stroke="#7d8597" d="M1178.3,-363.34C1204.04,-358.06 1233.88,-351.94 1259.62,-346.66"/>
<polygon fill="#7d8597" stroke="#7d8597" points="1260.17,-350.12 1269.27,-344.68 1258.77,-343.26 1260.17,-350.12"/>
</g>
<!-- observability.parameter_callbacks&#45;&gt;config -->
<g id="edge92" class="edge">
<title>observability.parameter_callbacks&#45;&gt;config</title>
<path fill="none" stroke="#7d8597" d="M1190.65,-333.62C1198.56,-337.44 1205.81,-342.45 1211.61,-349 1280.19,-426.47 1224.65,-478.11 1247.61,-579 1265.65,-658.29 1295.58,-749.46 1311.17,-794.98"/>
<polygon fill="#7d8597" stroke="#7d8597" points="1307.83,-796.05 1314.4,-804.36 1314.45,-793.76 1307.83,-796.05"/>
</g>
<!-- observability.parameter_callbacks&#45;&gt;observability.logging_utils -->
<g id="edge93" class="edge">
<title>observability.parameter_callbacks&#45;&gt;observability.logging_utils</title>
<path fill="none" stroke="#7d8597" d="M1172.81,-307.17C1199.76,-300.07 1232.1,-291.53 1259.71,-284.25"/>
<polygon fill="#7d8597" stroke="#7d8597" points="1260.58,-287.64 1269.36,-281.7 1258.8,-280.87 1260.58,-287.64"/>
</g>
<!-- observability.prediction_callbacks&#45;&gt;config -->
<g id="edge94" class="edge">
<title>observability.prediction_callbacks&#45;&gt;config</title>
<path fill="none" stroke="#7d8597" d="M1190.37,-279.23C1198.43,-283.11 1205.8,-288.24 1211.61,-295 1253.08,-343.24 1234.4,-516.77 1247.61,-579 1264.45,-658.34 1294.77,-749.15 1310.76,-794.7"/>
<polygon fill="#7d8597" stroke="#7d8597" points="1307.46,-795.84 1314.09,-804.1 1314.05,-793.5 1307.46,-795.84"/>
</g>
<!-- observability.prediction_callbacks&#45;&gt;observability.logging_utils -->
<g id="edge95" class="edge">
<title>observability.prediction_callbacks&#45;&gt;observability.logging_utils</title>
<path fill="none" stroke="#7d8597" d="M1211.17,-268C1219.43,-268 1227.76,-268 1235.94,-268"/>
<polygon fill="#7d8597" stroke="#7d8597" points="1235.86,-271.5 1245.86,-268 1235.86,-264.5 1235.86,-271.5"/>
</g>
<!-- observability.prediction_callbacks&#45;&gt;observability.tensors -->
<g id="edge96" class="edge">
<title>observability.prediction_callbacks&#45;&gt;observability.tensors</title>
<path fill="none" stroke="#7d8597" d="M1171.55,-282.96C1184.72,-286.73 1198.71,-290.88 1211.61,-295 1231.57,-301.38 1253.35,-308.98 1272.21,-315.78"/>
<polygon fill="#7d8597" stroke="#7d8597" points="1270.92,-319.03 1281.51,-319.15 1273.3,-312.45 1270.92,-319.03"/>
</g>
<!-- observability.prediction_callbacks&#45;&gt;observability.utils -->
<g id="edge97" class="edge">
<title>observability.prediction_callbacks&#45;&gt;observability.utils</title>
<path fill="none" stroke="#7d8597" d="M1176.92,-253.91C1188.67,-250.32 1200.71,-246.03 1211.61,-241 1240.44,-227.71 1270.24,-207.38 1291.5,-191.55"/>
<polygon fill="#7d8597" stroke="#7d8597" points="1293.56,-194.37 1299.42,-185.55 1289.33,-188.79 1293.56,-194.37"/>
</g>
<!-- observability.reporting&#45;&gt;config -->
<g id="edge98" class="edge">
<title>observability.reporting&#45;&gt;config</title>
<path fill="none" stroke="#7d8597" d="M929.17,-318.05C943.42,-340.54 967.55,-380.47 983.61,-417 1004.47,-464.48 981.26,-493.08 1019.61,-528 1084.26,-586.89 1144.22,-515.27 1211.61,-571 1247.93,-601.03 1293.27,-734.5 1312.27,-794.55"/>
<polygon fill="#7d8597" stroke="#7d8597" points="1308.93,-795.59 1315.26,-804.09 1315.61,-793.5 1308.93,-795.59"/>
</g>
<!-- observability.reporting&#45;&gt;evaluation -->
<g id="edge99" class="edge">
<title>observability.reporting&#45;&gt;evaluation</title>
<path fill="none" stroke="#7d8597" d="M958.99,-313.94C968.04,-318.54 976.91,-324.47 983.61,-332 1016.11,-368.55 984.87,-401.56 1019.61,-436 1034.14,-450.41 1055.36,-458.33 1074.07,-462.69"/>
<polygon fill="#7d8597" stroke="#7d8597" points="1073.33,-466.11 1083.82,-464.67 1074.72,-459.25 1073.33,-466.11"/>
</g>
<!-- observability.reporting&#45;&gt;observability.tensors -->
<g id="edge100" class="edge">
<title>observability.reporting&#45;&gt;observability.tensors</title>
<path fill="none" stroke="#7d8597" d="M957.59,-314.27C966.9,-318.9 976.23,-324.76 983.61,-332 1008.86,-356.78 989.46,-384.48 1019.61,-403 1092.32,-447.66 1130.17,-428.5 1211.61,-403 1230.2,-397.18 1231.24,-388.55 1247.61,-378 1259.04,-370.63 1271.69,-362.92 1283.23,-356.06"/>
<polygon fill="#7d8597" stroke="#7d8597" points="1284.9,-359.14 1291.73,-351.04 1281.34,-353.11 1284.9,-359.14"/>
</g>
<!-- observability.reporting&#45;&gt;observability.utils -->
<g id="edge101" class="edge">
<title>observability.reporting&#45;&gt;observability.utils</title>
<path fill="none" stroke="#7d8597" d="M962.73,-287.15C970.36,-283.49 977.7,-278.85 983.61,-273 1013.04,-243.83 985.85,-211.03 1019.61,-187 1056.51,-160.73 1180.85,-161.25 1257.91,-164.37"/>
<polygon fill="#7d8597" stroke="#7d8597" points="1257.73,-167.87 1267.88,-164.81 1258.04,-160.88 1257.73,-167.87"/>
</g>
<!-- observability.runtime&#45;&gt;config -->
<g id="edge102" class="edge">
<title>observability.runtime&#45;&gt;config</title>
<path fill="none" stroke="#7d8597" d="M1152,-136.73C1173.03,-147.43 1198.15,-164.08 1211.61,-187 1255.92,-262.42 1230.93,-493.13 1247.61,-579 1263.08,-658.62 1293.98,-749.31 1310.43,-794.77"/>
<polygon fill="#7d8597" stroke="#7d8597" points="1307.14,-795.96 1313.85,-804.15 1313.71,-793.56 1307.14,-795.96"/>
</g>
<!-- observability.runtime&#45;&gt;observability.utils -->
<g id="edge103" class="edge">
<title>observability.runtime&#45;&gt;observability.utils</title>
<path fill="none" stroke="#7d8597" d="M1165.64,-133.02C1195.87,-139.81 1234.72,-148.54 1266.04,-155.58"/>
<polygon fill="#7d8597" stroke="#7d8597" points="1265.21,-158.98 1275.74,-157.76 1266.75,-152.15 1265.21,-158.98"/>
</g>
<!-- observability.system_callbacks&#45;&gt;config -->
<g id="edge104" class="edge">
<title>observability.system_callbacks&#45;&gt;config</title>
<path fill="none" stroke="#7d8597" d="M1189.1,-224.46C1197.69,-228.43 1205.54,-233.79 1211.61,-241 1260.27,-298.77 1232.67,-504.96 1247.61,-579 1263.66,-658.51 1294.31,-749.24 1310.57,-794.74"/>
<polygon fill="#7d8597" stroke="#7d8597" points="1307.27,-795.91 1313.95,-804.13 1313.86,-793.53 1307.27,-795.91"/>
</g>
<!-- observability.system_callbacks&#45;&gt;observability.logging_utils -->
<g id="edge105" class="edge">
<title>observability.system_callbacks&#45;&gt;observability.logging_utils</title>
<path fill="none" stroke="#7d8597" d="M1171.46,-228.47C1198.65,-235.64 1231.57,-244.33 1259.63,-251.73"/>
<polygon fill="#7d8597" stroke="#7d8597" points="1258.5,-255.05 1269.06,-254.22 1260.28,-248.28 1258.5,-255.05"/>
</g>
<!-- observability.system_callbacks&#45;&gt;observability.tensors -->
<g id="edge106" class="edge">
<title>observability.system_callbacks&#45;&gt;observability.tensors</title>
<path fill="none" stroke="#7d8597" d="M1182.79,-226.23C1193.02,-229.93 1203.02,-234.74 1211.61,-241 1234.92,-257.99 1226.21,-275.66 1247.61,-295 1255.66,-302.27 1265.32,-308.63 1274.95,-313.99"/>
<polygon fill="#7d8597" stroke="#7d8597" points="1273.08,-316.96 1283.57,-318.5 1276.33,-310.76 1273.08,-316.96"/>
</g>
<!-- observability.system_callbacks&#45;&gt;observability.utils -->
<g id="edge107" class="edge">
<title>observability.system_callbacks&#45;&gt;observability.utils</title>
<path fill="none" stroke="#7d8597" d="M1176.64,-200.51C1204.95,-194.15 1238.5,-186.61 1266.16,-180.39"/>
<polygon fill="#7d8597" stroke="#7d8597" points="1266.76,-183.85 1275.75,-178.24 1265.22,-177.02 1266.76,-183.85"/>
</g>
<!-- train -->
<g id="node45" class="node">
<title>train</title>
<path fill="#e8f5e9" stroke="#2d6a4f" d="M508.75,-902C508.75,-902 478.75,-902 478.75,-902 472.75,-902 466.75,-896 466.75,-890 466.75,-890 466.75,-878 466.75,-878 466.75,-872 472.75,-866 478.75,-866 478.75,-866 508.75,-866 508.75,-866 514.75,-866 520.75,-872 520.75,-878 520.75,-878 520.75,-890 520.75,-890 520.75,-896 514.75,-902 508.75,-902"/>
<text text-anchor="middle" x="493.75" y="-880.12" font-family="Helvetica,sans-Serif" font-size="10.00">train</text>
</g>
<!-- train&#45;&gt;config -->
<g id="edge108" class="edge">
<title>train&#45;&gt;config</title>
<path fill="none" stroke="#7d8597" d="M514.49,-902.34C554.73,-937.73 650.55,-1012 746.02,-1012 746.02,-1012 746.02,-1012 917.45,-1012 1050.29,-1012 1097.22,-1026.54 1211.61,-959 1255.07,-933.34 1288.54,-883.66 1306.54,-852.25"/>
<polygon fill="#7d8597" stroke="#7d8597" points="1309.5,-854.12 1311.31,-843.68 1303.38,-850.71 1309.5,-854.12"/>
</g>
<!-- train&#45;&gt;data.datamodule -->
<g id="edge109" class="edge">
<title>train&#45;&gt;data.datamodule</title>
<path fill="none" stroke="#7d8597" d="M501.48,-865.74C519.22,-817.59 567.37,-686.89 588.99,-628.21"/>
<polygon fill="#7d8597" stroke="#7d8597" points="592.25,-629.49 592.42,-618.9 585.68,-627.07 592.25,-629.49"/>
</g>
<!-- train&#45;&gt;environment -->
<g id="edge110" class="edge">
<title>train&#45;&gt;environment</title>
<path fill="none" stroke="#7d8597" d="M501.16,-902.25C518.77,-952.4 568,-1092.6 589.5,-1153.8"/>
<polygon fill="#7d8597" stroke="#7d8597" points="586.17,-1154.9 592.79,-1163.18 592.78,-1152.58 586.17,-1154.9"/>
</g>
<!-- train&#45;&gt;models.fused_model -->
<g id="edge111" class="edge">
<title>train&#45;&gt;models.fused_model</title>
<path fill="none" stroke="#7d8597" d="M521.17,-882.11C559.12,-879.39 630.24,-874.29 682.37,-870.56"/>
<polygon fill="#7d8597" stroke="#7d8597" points="682.61,-874.05 692.34,-869.85 682.11,-867.07 682.61,-874.05"/>
</g>
<!-- train&#45;&gt;observability -->
<g id="edge112" class="edge">
<title>train&#45;&gt;observability</title>
<path fill="none" stroke="#7d8597" d="M496.03,-865.75C499.97,-816.63 514.32,-678.15 556.75,-572 600.24,-463.21 683.97,-350.57 723.85,-300.2"/>
<polygon fill="#7d8597" stroke="#7d8597" points="726.55,-302.43 730.05,-292.43 721.08,-298.06 726.55,-302.43"/>
</g>
<!-- workflows -->
<g id="node47" class="node">
<title>workflows</title>
<polygon fill="#d9eaf4" stroke="#0b3954" points="60.25,-908 57.25,-912 36.25,-912 33.25,-908 0,-908 0,-872 60.25,-872 60.25,-908"/>
<text text-anchor="middle" x="30.12" y="-886.12" font-family="Helvetica,sans-Serif" font-size="10.00">workflows</text>
</g>
<!-- workflows&#45;&gt;workflows.cli -->
<g id="edge113" class="edge">
<title>workflows&#45;&gt;workflows.cli</title>
<path fill="none" stroke="#4f5d75" stroke-dasharray="5,2" d="M46.19,-908.26C62.94,-928.57 90.15,-961.57 109.39,-984.89"/>
<polygon fill="#4f5d75" stroke="#4f5d75" points="106.56,-986.96 115.62,-992.44 111.96,-982.5 106.56,-986.96"/>
</g>
<!-- workflows&#45;&gt;workflows.helpers -->
<g id="edge114" class="edge">
<title>workflows&#45;&gt;workflows.helpers</title>
<path fill="none" stroke="#4f5d75" stroke-dasharray="5,2" d="M60.47,-895.18C118.42,-905.41 248.49,-928.37 324.37,-941.76"/>
<polygon fill="#4f5d75" stroke="#4f5d75" points="323.66,-945.19 334.12,-943.48 324.88,-938.3 323.66,-945.19"/>
</g>
<!-- workflows&#45;&gt;workflows.training -->
<g id="edge115" class="edge">
<title>workflows&#45;&gt;workflows.training</title>
<path fill="none" stroke="#4f5d75" stroke-dasharray="5,2" d="M48.76,-871.65C60.98,-860.09 78.23,-845.91 96.25,-838 126.83,-824.58 163.68,-818.5 193.81,-815.82"/>
<polygon fill="#4f5d75" stroke="#4f5d75" points="193.8,-819.33 203.5,-815.07 193.26,-812.35 193.8,-819.33"/>
</g>
<!-- workflows&#45;&gt;workflows.types -->
<g id="edge116" class="edge">
<title>workflows&#45;&gt;workflows.types</title>
<path fill="none" stroke="#4f5d75" stroke-dasharray="5,2" d="M60.63,-887.29C110.18,-883.21 213.23,-876.68 300,-884 309.15,-884.77 318.8,-886.02 328.16,-887.46"/>
<polygon fill="#4f5d75" stroke="#4f5d75" points="327.44,-890.88 337.88,-889.04 328.57,-883.98 327.44,-890.88"/>
</g>
<!-- workflows.cli&#45;&gt;config -->
<g id="edge117" class="edge">
<title>workflows.cli&#45;&gt;config</title>
<path fill="none" stroke="#7d8597" d="M169.35,-1030.2C216.71,-1052.69 303.61,-1088 382.38,-1088 382.38,-1088 382.38,-1088 917.45,-1088 1049.84,-1088 1104.68,-1119.06 1211.61,-1041 1274.95,-994.76 1304.13,-901.37 1315.37,-853.6"/>
<polygon fill="#7d8597" stroke="#7d8597" points="1318.76,-854.5 1317.52,-843.98 1311.93,-852.97 1318.76,-854.5"/>
</g>
<!-- workflows.cli&#45;&gt;defaults -->
<g id="edge118" class="edge">
<title>workflows.cli&#45;&gt;defaults</title>
<path fill="none" stroke="#7d8597" d="M143.09,-1030.49C154.68,-1051.41 176.48,-1084.79 205.25,-1102 248.2,-1127.69 306.74,-1133.76 344.55,-1134.71"/>
<polygon fill="#7d8597" stroke="#7d8597" points="344.5,-1138.21 354.54,-1134.83 344.58,-1131.21 344.5,-1138.21"/>
</g>
<!-- workflows.cli&#45;&gt;environment -->
<g id="edge119" class="edge">
<title>workflows.cli&#45;&gt;environment</title>
<path fill="none" stroke="#7d8597" d="M139.47,-1030.06C148.82,-1056.5 169.94,-1105.38 205.25,-1131 311.04,-1207.75 475.93,-1199.46 554.79,-1189.9"/>
<polygon fill="#7d8597" stroke="#7d8597" points="554.81,-1193.43 564.28,-1188.69 553.92,-1186.49 554.81,-1193.43"/>
</g>
<!-- workflows.cli&#45;&gt;workflows.helpers -->
<g id="edge120" class="edge">
<title>workflows.cli&#45;&gt;workflows.helpers</title>
<path fill="none" stroke="#7d8597" d="M169.68,-1009.61C203.75,-1006.69 256.11,-1000.51 300,-988 311.84,-984.63 324.2,-979.91 335.64,-975.01"/>
<polygon fill="#7d8597" stroke="#7d8597" points="336.73,-978.35 344.46,-971.1 333.9,-971.95 336.73,-978.35"/>
</g>
<!-- workflows.cli&#45;&gt;workflows.training -->
<g id="edge121" class="edge">
<title>workflows.cli&#45;&gt;workflows.training</title>
<path fill="none" stroke="#7d8597" d="M144.63,-993.73C165.33,-958.95 210.51,-883.07 235.02,-841.9"/>
<polygon fill="#7d8597" stroke="#7d8597" points="237.89,-843.91 240,-833.53 231.88,-840.33 237.89,-843.91"/>
</g>
<!-- workflows.cli&#45;&gt;workflows.types -->
<g id="edge122" class="edge">
<title>workflows.cli&#45;&gt;workflows.types</title>
<path fill="none" stroke="#7d8597" d="M169.64,-995.55C212.36,-975.96 283.97,-943.12 332.17,-921.02"/>
<polygon fill="#7d8597" stroke="#7d8597" points="333.37,-924.32 341.01,-916.97 330.46,-917.96 333.37,-924.32"/>
</g>
<!-- workflows.helpers&#45;&gt;config -->
<g id="edge123" class="edge">
<title>workflows.helpers&#45;&gt;config</title>
<path fill="none" stroke="#7d8597" d="M424.63,-970.43C490.4,-998.82 625.68,-1050 746.02,-1050 746.02,-1050 746.02,-1050 917.45,-1050 1050.06,-1050 1101.48,-1073.88 1211.61,-1000 1264.93,-964.23 1297.19,-892.9 1311.87,-852.9"/>
<polygon fill="#7d8597" stroke="#7d8597" points="1315.09,-854.29 1315.12,-843.7 1308.49,-851.96 1315.09,-854.29"/>
</g>
<!-- workflows.helpers&#45;&gt;environment -->
<g id="edge124" class="edge">
<title>workflows.helpers&#45;&gt;environment</title>
<path fill="none" stroke="#7d8597" d="M401.28,-970.13C439.08,-1010.68 530.64,-1108.88 574.93,-1156.38"/>
<polygon fill="#7d8597" stroke="#7d8597" points="572.22,-1158.6 581.6,-1163.53 577.34,-1153.83 572.22,-1158.6"/>
</g>
<!-- workflows.helpers&#45;&gt;train -->
<g id="edge125" class="edge">
<title>workflows.helpers&#45;&gt;train</title>
<path fill="none" stroke="#7d8597" d="M416.45,-933.65C421.27,-930.8 426.16,-927.85 430.75,-925 439.35,-919.66 448.51,-913.74 457.07,-908.1"/>
<polygon fill="#7d8597" stroke="#7d8597" points="458.76,-911.18 465.15,-902.73 454.89,-905.34 458.76,-911.18"/>
</g>
<!-- workflows.training&#45;&gt;config -->
<g id="edge126" class="edge">
<title>workflows.training&#45;&gt;config</title>
<path fill="none" stroke="#7d8597" d="M287.34,-795.52C332.65,-772.45 416.33,-736 492.75,-736 492.75,-736 492.75,-736 748.02,-736 952.29,-736 1192.81,-791.26 1283.86,-814.2"/>
<polygon fill="#7d8597" stroke="#7d8597" points="1282.94,-817.57 1293.49,-816.65 1284.66,-810.79 1282.94,-817.57"/>
</g>
<!-- workflows.training&#45;&gt;data.datamodule -->
<g id="edge127" class="edge">
<title>workflows.training&#45;&gt;data.datamodule</title>
<path fill="none" stroke="#7d8597" d="M266.41,-795.75C281.27,-775.6 307.42,-743.21 336,-722 401.8,-673.16 490.09,-636.84 545.96,-616.77"/>
<polygon fill="#7d8597" stroke="#7d8597" points="547,-620.12 555.26,-613.48 544.67,-613.52 547,-620.12"/>
</g>
<!-- workflows.training&#45;&gt;defaults -->
<g id="edge128" class="edge">
<title>workflows.training&#45;&gt;defaults</title>
<path fill="none" stroke="#7d8597" d="M260.92,-832.12C282.24,-885.13 344.65,-1040.23 370.72,-1105.03"/>
<polygon fill="#7d8597" stroke="#7d8597" points="367.46,-1106.31 374.44,-1114.28 373.95,-1103.69 367.46,-1106.31"/>
</g>
<!-- workflows.training&#45;&gt;environment -->
<g id="edge129" class="edge">
<title>workflows.training&#45;&gt;environment</title>
<path fill="none" stroke="#7d8597" d="M300.28,-827.45C348.99,-841.74 419.82,-863.31 430.75,-871 444.16,-880.44 512.6,-973.77 520.75,-988 552.66,-1043.7 577.99,-1114.82 590.73,-1153.94"/>
<polygon fill="#7d8597" stroke="#7d8597" points="587.36,-1154.88 593.74,-1163.33 594.02,-1152.74 587.36,-1154.88"/>
</g>
<!-- workflows.training&#45;&gt;evaluation -->
<g id="edge130" class="edge">
<title>workflows.training&#45;&gt;evaluation</title>
<path fill="none" stroke="#7d8597" d="M254.24,-795.65C258.18,-709.13 287,-346 492.75,-346 492.75,-346 492.75,-346 748.02,-346 853.57,-346 893.88,-320.41 983.61,-376 1008.12,-391.19 997.21,-411.83 1019.61,-430 1035.48,-442.88 1056.29,-451.86 1074.38,-457.85"/>
<polygon fill="#7d8597" stroke="#7d8597" points="1073.2,-461.14 1083.78,-460.75 1075.26,-454.45 1073.2,-461.14"/>
</g>
<!-- workflows.training&#45;&gt;observability -->
<g id="edge131" class="edge">
<title>workflows.training&#45;&gt;observability</title>
<path fill="none" stroke="#7d8597" d="M253.99,-795.6C255.98,-715.48 268.12,-398.12 336,-332 434.78,-235.79 615.59,-250.6 700.15,-264.1"/>
<polygon fill="#7d8597" stroke="#7d8597" points="699.49,-267.54 709.93,-265.73 700.64,-260.63 699.49,-267.54"/>
</g>
<!-- workflows.training&#45;&gt;train -->
<g id="edge132" class="edge">
<title>workflows.training&#45;&gt;train</title>
<path fill="none" stroke="#7d8597" d="M300.39,-814.03C337.08,-815.52 388.79,-820.92 430.75,-838 442.82,-842.91 454.67,-850.73 464.72,-858.54"/>
<polygon fill="#7d8597" stroke="#7d8597" points="462.26,-861.05 472.22,-864.66 466.69,-855.63 462.26,-861.05"/>
</g>
<!-- workflows.training&#45;&gt;workflows.helpers -->
<g id="edge133" class="edge">
<title>workflows.training&#45;&gt;workflows.helpers</title>
<path fill="none" stroke="#7d8597" d="M263.99,-832.3C278.01,-855.89 304.88,-897.16 336,-925 336.76,-925.68 337.54,-926.35 338.33,-927.01"/>
<polygon fill="#7d8597" stroke="#7d8597" points="336.03,-929.66 346.15,-932.82 340.21,-924.04 336.03,-929.66"/>
</g>
<!-- workflows.training&#45;&gt;workflows.types -->
<g id="edge134" class="edge">
<title>workflows.training&#45;&gt;workflows.types</title>
<path fill="none" stroke="#7d8597" d="M281.88,-832.43C300.33,-844.47 324.63,-860.32 344.71,-873.43"/>
<polygon fill="#7d8597" stroke="#7d8597" points="342.63,-876.25 352.92,-878.78 346.46,-870.39 342.63,-876.25"/>
</g>
<!-- workflows.types&#45;&gt;environment -->
<g id="edge135" class="edge">
<title>workflows.types&#45;&gt;environment</title>
<path fill="none" stroke="#7d8597" d="M420.23,-916.22C424,-918.89 427.6,-921.83 430.75,-925 453.46,-947.9 447.29,-962.28 466.75,-988 487.42,-1015.32 500.16,-1015.63 520.75,-1043 547.83,-1078.99 572.16,-1125.24 586.45,-1154.51"/>
<polygon fill="#7d8597" stroke="#7d8597" points="583.27,-1155.98 590.76,-1163.48 589.58,-1152.95 583.27,-1155.98"/>
</g>
<!-- workflows.types&#45;&gt;evaluation -->
<g id="edge136" class="edge">
<title>workflows.types&#45;&gt;evaluation</title>
<path fill="none" stroke="#7d8597" d="M388.12,-879.7C405.01,-802.61 482.16,-503.6 680.75,-403 800.95,-342.11 852.3,-386.72 983.61,-417 988.34,-418.09 1037.89,-437.57 1074.66,-452.13"/>
<polygon fill="#7d8597" stroke="#7d8597" points="1073.13,-455.29 1083.72,-455.72 1075.71,-448.78 1073.13,-455.29"/>
</g>
<!-- workflows.types&#45;&gt;train -->
<g id="edge137" class="edge">
<title>workflows.types&#45;&gt;train</title>
<path fill="none" stroke="#7d8597" d="M427.21,-892.47C436.42,-891.28 446.1,-890.03 455.1,-888.86"/>
<polygon fill="#7d8597" stroke="#7d8597" points="455.48,-892.34 464.95,-887.59 454.58,-885.4 455.48,-892.34"/>
</g>
</g>
</svg>
