<?xml version="1.0" encoding="UTF-8" standalone="no"?>
<!DOCTYPE svg PUBLIC "-//W3C//DTD SVG 1.1//EN"
 "http://www.w3.org/Graphics/SVG/1.1/DTD/svg11.dtd">
<!-- Generated by graphviz version 12.2.1 (20241206.2353)
 -->
<!-- Title: dependencies Pages: 1 -->
<svg width="395pt" height="2524pt"
 viewBox="0.00 0.00 395.40 2524.00" xmlns="http://www.w3.org/2000/svg" xmlns:xlink="http://www.w3.org/1999/xlink">
<g id="graph0" class="graph" transform="scale(1 1) rotate(0) translate(4 2520)">
<title>dependencies</title>
<polygon fill="white" stroke="none" points="-4,4 -4,-2520 391.4,-2520 391.4,4 -4,4"/>
<text text-anchor="middle" x="193.7" y="-2498.7" font-family="Helvetica,sans-Serif" font-size="14.00">Test to Production Dependency Graph</text>
<!-- config -->
<g id="node1" class="node">
<title>config</title>
<polygon fill="#d9eaf4" stroke="#0b3954" points="339.7,-954 336.7,-958 315.7,-958 312.7,-954 285.7,-954 285.7,-918 339.7,-918 339.7,-954"/>
<text text-anchor="middle" x="312.7" y="-932.12" font-family="Helvetica,sans-Serif" font-size="10.00">config</text>
</g>
<!-- data.datamodule -->
<g id="node2" class="node">
<title>data.datamodule</title>
<path fill="#e8f5e9" stroke="#2d6a4f" d="M344.7,-1305C344.7,-1305 280.7,-1305 280.7,-1305 274.7,-1305 268.7,-1299 268.7,-1293 268.7,-1293 268.7,-1281 268.7,-1281 268.7,-1275 274.7,-1269 280.7,-1269 280.7,-1269 344.7,-1269 344.7,-1269 350.7,-1269 356.7,-1275 356.7,-1281 356.7,-1281 356.7,-1293 356.7,-1293 356.7,-1299 350.7,-1305 344.7,-1305"/>
<text text-anchor="middle" x="312.7" y="-1283.12" font-family="Helvetica,sans-Serif" font-size="10.00">data.datamodule</text>
</g>
<!-- data.dataset -->
<g id="node3" class="node">
<title>data.dataset</title>
<path fill="#e8f5e9" stroke="#2d6a4f" d="M335.7,-1521C335.7,-1521 289.7,-1521 289.7,-1521 283.7,-1521 277.7,-1515 277.7,-1509 277.7,-1509 277.7,-1497 277.7,-1497 277.7,-1491 283.7,-1485 289.7,-1485 289.7,-1485 335.7,-1485 335.7,-1485 341.7,-1485 347.7,-1491 347.7,-1497 347.7,-1497 347.7,-1509 347.7,-1509 347.7,-1515 341.7,-1521 335.7,-1521"/>
<text text-anchor="middle" x="312.7" y="-1499.12" font-family="Helvetica,sans-Serif" font-size="10.00">data.dataset</text>
</g>
<!-- data.downloader -->
<g id="node4" class="node">
<title>data.downloader</title>
<path fill="#e8f5e9" stroke="#2d6a4f" d="M344.33,-1386C344.33,-1386 281.08,-1386 281.08,-1386 275.08,-1386 269.08,-1380 269.08,-1374 269.08,-1374 269.08,-1362 269.08,-1362 269.08,-1356 275.08,-1350 281.08,-1350 281.08,-1350 344.33,-1350 344.33,-1350 350.33,-1350 356.33,-1356 356.33,-1362 356.33,-1362 356.33,-1374 356.33,-1374 356.33,-1380 350.33,-1386 344.33,-1386"/>
<text text-anchor="middle" x="312.7" y="-1364.12" font-family="Helvetica,sans-Serif" font-size="10.00">data.downloader</text>
</g>
<!-- data.indexing -->
<g id="node5" class="node">
<title>data.indexing</title>
<path fill="#e8f5e9" stroke="#2d6a4f" d="M337.58,-1602C337.58,-1602 287.83,-1602 287.83,-1602 281.83,-1602 275.83,-1596 275.83,-1590 275.83,-1590 275.83,-1578 275.83,-1578 275.83,-1572 281.83,-1566 287.83,-1566 287.83,-1566 337.58,-1566 337.58,-1566 343.58,-1566 349.58,-1572 349.58,-1578 349.58,-1578 349.58,-1590 349.58,-1590 349.58,-1596 343.58,-1602 337.58,-1602"/>
<text text-anchor="middle" x="312.7" y="-1580.12" font-family="Helvetica,sans-Serif" font-size="10.00">data.indexing</text>
</g>
<!-- data.preprocessor -->
<g id="node6" class="node">
<title>data.preprocessor</title>
<path fill="#e8f5e9" stroke="#2d6a4f" d="M347.7,-1467C347.7,-1467 277.7,-1467 277.7,-1467 271.7,-1467 265.7,-1461 265.7,-1455 265.7,-1455 265.7,-1443 265.7,-1443 265.7,-1437 271.7,-1431 277.7,-1431 277.7,-1431 347.7,-1431 347.7,-1431 353.7,-1431 359.7,-1437 359.7,-1443 359.7,-1443 359.7,-1455 359.7,-1455 359.7,-1461 353.7,-1467 347.7,-1467"/>
<text text-anchor="middle" x="312.7" y="-1445.12" font-family="Helvetica,sans-Serif" font-size="10.00">data.preprocessor</text>
</g>
<!-- data.schema -->
<g id="node7" class="node">
<title>data.schema</title>
<path fill="#e8f5e9" stroke="#2d6a4f" d="M336.83,-1656C336.83,-1656 288.58,-1656 288.58,-1656 282.58,-1656 276.58,-1650 276.58,-1644 276.58,-1644 276.58,-1632 276.58,-1632 276.58,-1626 282.58,-1620 288.58,-1620 288.58,-1620 336.83,-1620 336.83,-1620 342.83,-1620 348.83,-1626 348.83,-1632 348.83,-1632 348.83,-1644 348.83,-1644 348.83,-1650 342.83,-1656 336.83,-1656"/>
<text text-anchor="middle" x="312.7" y="-1634.12" font-family="Helvetica,sans-Serif" font-size="10.00">data.schema</text>
</g>
<!-- data.statistics -->
<g id="node8" class="node">
<title>data.statistics</title>
<path fill="#e8f5e9" stroke="#2d6a4f" d="M339.45,-1791C339.45,-1791 285.95,-1791 285.95,-1791 279.95,-1791 273.95,-1785 273.95,-1779 273.95,-1779 273.95,-1767 273.95,-1767 273.95,-1761 279.95,-1755 285.95,-1755 285.95,-1755 339.45,-1755 339.45,-1755 345.45,-1755 351.45,-1761 351.45,-1767 351.45,-1767 351.45,-1779 351.45,-1779 351.45,-1785 345.45,-1791 339.45,-1791"/>
<text text-anchor="middle" x="312.7" y="-1769.12" font-family="Helvetica,sans-Serif" font-size="10.00">data.statistics</text>
</g>
<!-- data.transforms -->
<g id="node9" class="node">
<title>data.transforms</title>
<path fill="#e8f5e9" stroke="#2d6a4f" d="M342.83,-1710C342.83,-1710 282.58,-1710 282.58,-1710 276.58,-1710 270.58,-1704 270.58,-1698 270.58,-1698 270.58,-1686 270.58,-1686 270.58,-1680 276.58,-1674 282.58,-1674 282.58,-1674 342.83,-1674 342.83,-1674 348.83,-1674 354.83,-1680 354.83,-1686 354.83,-1686 354.83,-1698 354.83,-1698 354.83,-1704 348.83,-1710 342.83,-1710"/>
<text text-anchor="middle" x="312.7" y="-1688.12" font-family="Helvetica,sans-Serif" font-size="10.00">data.transforms</text>
</g>
<!-- defaults -->
<g id="node10" class="node">
<title>defaults</title>
<path fill="#f4d35e" stroke="#7f6000" d="M327.7,-306C327.7,-306 297.7,-306 297.7,-306 291.7,-306 285.7,-300 285.7,-294 285.7,-294 285.7,-282 285.7,-282 285.7,-276 291.7,-270 297.7,-270 297.7,-270 327.7,-270 327.7,-270 333.7,-270 339.7,-276 339.7,-282 339.7,-282 339.7,-294 339.7,-294 339.7,-300 333.7,-306 327.7,-306"/>
<text text-anchor="middle" x="312.7" y="-284.12" font-family="Helvetica,sans-Serif" font-size="10.00">defaults</text>
</g>
<!-- environment -->
<g id="node11" class="node">
<title>environment</title>
<polygon fill="#d9eaf4" stroke="#0b3954" points="347.33,-441 344.33,-445 323.33,-445 320.33,-441 278.08,-441 278.08,-405 347.33,-405 347.33,-441"/>
<text text-anchor="middle" x="312.7" y="-419.12" font-family="Helvetica,sans-Serif" font-size="10.00">environment</text>
</g>
<!-- evaluation -->
<g id="node12" class="node">
<title>evaluation</title>
<polygon fill="#d9eaf4" stroke="#0b3954" points="342.83,-1845 339.83,-1849 318.83,-1849 315.83,-1845 282.58,-1845 282.58,-1809 342.83,-1809 342.83,-1845"/>
<text text-anchor="middle" x="312.7" y="-1823.12" font-family="Helvetica,sans-Serif" font-size="10.00">evaluation</text>
</g>
<!-- evaluation.metrics -->
<g id="node13" class="node">
<title>evaluation.metrics</title>
<ellipse fill="#f7f7f7" stroke="#6c757d" cx="312.7" cy="-1881" rx="56.51" ry="18"/>
<text text-anchor="middle" x="312.7" y="-1877.12" font-family="Helvetica,sans-Serif" font-size="10.00">evaluation.metrics</text>
</g>
<!-- main -->
<g id="node14" class="node">
<title>main</title>
<path fill="#f4d35e" stroke="#7f6000" d="M327.7,-144C327.7,-144 297.7,-144 297.7,-144 291.7,-144 285.7,-138 285.7,-132 285.7,-132 285.7,-120 285.7,-120 285.7,-114 291.7,-108 297.7,-108 297.7,-108 327.7,-108 327.7,-108 333.7,-108 339.7,-114 339.7,-120 339.7,-120 339.7,-132 339.7,-132 339.7,-138 333.7,-144 327.7,-144"/>
<text text-anchor="middle" x="312.7" y="-122.12" font-family="Helvetica,sans-Serif" font-size="10.00">main</text>
</g>
<!-- models.fused_model -->
<g id="node15" class="node">
<title>models.fused_model</title>
<path fill="#e8f5e9" stroke="#2d6a4f" d="M353.7,-495C353.7,-495 271.7,-495 271.7,-495 265.7,-495 259.7,-489 259.7,-483 259.7,-483 259.7,-471 259.7,-471 259.7,-465 265.7,-459 271.7,-459 271.7,-459 353.7,-459 353.7,-459 359.7,-459 365.7,-465 365.7,-471 365.7,-471 365.7,-483 365.7,-483 365.7,-489 359.7,-495 353.7,-495"/>
<text text-anchor="middle" x="312.7" y="-473.12" font-family="Helvetica,sans-Serif" font-size="10.00">models.fused_model</text>
</g>
<!-- models.grn -->
<g id="node16" class="node">
<title>models.grn</title>
<path fill="#e8f5e9" stroke="#2d6a4f" d="M332.7,-1143C332.7,-1143 292.7,-1143 292.7,-1143 286.7,-1143 280.7,-1137 280.7,-1131 280.7,-1131 280.7,-1119 280.7,-1119 280.7,-1113 286.7,-1107 292.7,-1107 292.7,-1107 332.7,-1107 332.7,-1107 338.7,-1107 344.7,-1113 344.7,-1119 344.7,-1119 344.7,-1131 344.7,-1131 344.7,-1137 338.7,-1143 332.7,-1143"/>
<text text-anchor="middle" x="312.7" y="-1121.12" font-family="Helvetica,sans-Serif" font-size="10.00">models.grn</text>
</g>
<!-- observability -->
<g id="node17" class="node">
<title>observability</title>
<polygon fill="#d9eaf4" stroke="#0b3954" points="348.08,-866 345.08,-870 324.08,-870 321.08,-866 277.33,-866 277.33,-830 348.08,-830 348.08,-866"/>
<text text-anchor="middle" x="312.7" y="-844.12" font-family="Helvetica,sans-Serif" font-size="10.00">observability</text>
</g>
<!-- observability.callbacks -->
<g id="node18" class="node">
<title>observability.callbacks</title>
<ellipse fill="#f7f7f7" stroke="#6c757d" cx="312.7" cy="-767" rx="67.16" ry="18"/>
<text text-anchor="middle" x="312.7" y="-763.12" font-family="Helvetica,sans-Serif" font-size="10.00">observability.callbacks</text>
</g>
<!-- observability.logging_utils -->
<g id="node19" class="node">
<title>observability.logging_utils</title>
<ellipse fill="#f7f7f7" stroke="#6c757d" cx="312.7" cy="-585" rx="74.7" ry="18"/>
<text text-anchor="middle" x="312.7" y="-581.12" font-family="Helvetica,sans-Serif" font-size="10.00">observability.logging_utils</text>
</g>
<!-- observability.reporting -->
<g id="node20" class="node">
<title>observability.reporting</title>
<ellipse fill="#f7f7f7" stroke="#6c757d" cx="312.7" cy="-639" rx="64.94" ry="18"/>
<text text-anchor="middle" x="312.7" y="-635.12" font-family="Helvetica,sans-Serif" font-size="10.00">observability.reporting</text>
</g>
<!-- observability.runtime -->
<g id="node21" class="node">
<title>observability.runtime</title>
<ellipse fill="#f7f7f7" stroke="#6c757d" cx="312.7" cy="-700" rx="61.83" ry="18"/>
<text text-anchor="middle" x="312.7" y="-696.12" font-family="Helvetica,sans-Serif" font-size="10.00">observability.runtime</text>
</g>
<!-- reporting -->
<g id="node22" class="node">
<title>reporting</title>
<polygon fill="#d9eaf4" stroke="#0b3954" points="339.7,-90 336.7,-94 315.7,-94 312.7,-90 285.7,-90 285.7,-54 339.7,-54 339.7,-90"/>
<text text-anchor="middle" x="312.7" y="-68.12" font-family="Helvetica,sans-Serif" font-size="10.00">reporting</text>
</g>
<!-- reporting.builders -->
<g id="node23" class="node">
<title>reporting.builders</title>
<ellipse fill="#f7f7f7" stroke="#6c757d" cx="312.7" cy="-18" rx="53.4" ry="18"/>
<text text-anchor="middle" x="312.7" y="-14.12" font-family="Helvetica,sans-Serif" font-size="10.00">reporting.builders</text>
</g>
<!-- tests -->
<g id="node24" class="node">
<title>tests</title>
<polygon fill="#d9eaf4" stroke="#0b3954" points="128,-1953 125,-1957 104,-1957 101,-1953 74,-1953 74,-1917 128,-1917 128,-1953"/>
<text text-anchor="middle" x="101" y="-1931.12" font-family="Helvetica,sans-Serif" font-size="10.00">tests</text>
</g>
<!-- tests.config -->
<g id="node25" class="node">
<title>tests.config</title>
<polygon fill="#d9eaf4" stroke="#0b3954" points="134.5,-2007 131.5,-2011 110.5,-2011 107.5,-2007 67.5,-2007 67.5,-1971 134.5,-1971 134.5,-2007"/>
<text text-anchor="middle" x="101" y="-1985.12" font-family="Helvetica,sans-Serif" font-size="10.00">tests.config</text>
</g>
<!-- tests.config.test_data_config -->
<g id="node26" class="node">
<title>tests.config.test_data_config</title>
<path fill="#ece4ff" stroke="#5e548e" d="M160,-1251C160,-1251 42,-1251 42,-1251 36,-1251 30,-1245 30,-1239 30,-1239 30,-1227 30,-1227 30,-1221 36,-1215 42,-1215 42,-1215 160,-1215 160,-1215 166,-1215 172,-1221 172,-1227 172,-1227 172,-1239 172,-1239 172,-1245 166,-1251 160,-1251"/>
<text text-anchor="middle" x="101" y="-1229.12" font-family="Helvetica,sans-Serif" font-size="10.00">tests.config.test_data_config</text>
</g>
<!-- tests.config.test_data_config&#45;&gt;config -->
<g id="edge1" class="edge">
<title>tests.config.test_data_config&#45;&gt;config</title>
<path fill="none" stroke="#7d8597" stroke-dasharray="5,2" d="M172.25,-1223.55C183.19,-1219.54 193.63,-1213.9 202,-1206 238.8,-1171.28 219.5,-1145.09 238,-1098 256.78,-1050.2 282.24,-996.18 297.79,-964.17"/>
<polygon fill="#7d8597" stroke="#7d8597" points="300.76,-966.08 302,-955.55 294.47,-963 300.76,-966.08"/>
</g>
<!-- utils.tft_utils -->
<g id="node70" class="node">
<title>utils.tft_utils</title>
<ellipse fill="#f7f7f7" stroke="#6c757d" cx="312.7" cy="-1206" rx="40.97" ry="18"/>
<text text-anchor="middle" x="312.7" y="-1202.12" font-family="Helvetica,sans-Serif" font-size="10.00">utils.tft_utils</text>
</g>
<!-- tests.config.test_data_config&#45;&gt;utils.tft_utils -->
<g id="edge2" class="edge">
<title>tests.config.test_data_config&#45;&gt;utils.tft_utils</title>
<path fill="none" stroke="#7d8597" stroke-dasharray="5,2" d="M172.41,-1223.93C201.64,-1220.17 234.88,-1215.89 261.56,-1212.46"/>
<polygon fill="#7d8597" stroke="#7d8597" points="261.97,-1215.93 271.44,-1211.18 261.08,-1208.99 261.97,-1215.93"/>
</g>
<!-- tests.config.test_defaults -->
<g id="node27" class="node">
<title>tests.config.test_defaults</title>
<path fill="#ece4ff" stroke="#5e548e" d="M152.12,-279C152.12,-279 49.88,-279 49.88,-279 43.88,-279 37.88,-273 37.88,-267 37.88,-267 37.88,-255 37.88,-255 37.88,-249 43.88,-243 49.88,-243 49.88,-243 152.12,-243 152.12,-243 158.12,-243 164.12,-249 164.12,-255 164.12,-255 164.12,-267 164.12,-267 164.12,-273 158.12,-279 152.12,-279"/>
<text text-anchor="middle" x="101" y="-257.12" font-family="Helvetica,sans-Serif" font-size="10.00">tests.config.test_defaults</text>
</g>
<!-- tests.config.test_defaults&#45;&gt;defaults -->
<g id="edge3" class="edge">
<title>tests.config.test_defaults&#45;&gt;defaults</title>
<path fill="none" stroke="#7d8597" stroke-dasharray="5,2" d="M164.35,-269.03C199.95,-273.61 243.42,-279.21 273.88,-283.13"/>
<polygon fill="#7d8597" stroke="#7d8597" points="273.41,-286.6 283.78,-284.4 274.3,-279.66 273.41,-286.6"/>
</g>
<!-- tests.config.test_model_config -->
<g id="node28" class="node">
<title>tests.config.test_model_config</title>
<path fill="#ece4ff" stroke="#5e548e" d="M163.75,-1197C163.75,-1197 38.25,-1197 38.25,-1197 32.25,-1197 26.25,-1191 26.25,-1185 26.25,-1185 26.25,-1173 26.25,-1173 26.25,-1167 32.25,-1161 38.25,-1161 38.25,-1161 163.75,-1161 163.75,-1161 169.75,-1161 175.75,-1167 175.75,-1173 175.75,-1173 175.75,-1185 175.75,-1185 175.75,-1191 169.75,-1197 163.75,-1197"/>
<text text-anchor="middle" x="101" y="-1175.12" font-family="Helvetica,sans-Serif" font-size="10.00">tests.config.test_model_config</text>
</g>
<!-- tests.config.test_model_config&#45;&gt;config -->
<g id="edge4" class="edge">
<title>tests.config.test_model_config&#45;&gt;config</title>
<path fill="none" stroke="#7d8597" stroke-dasharray="5,2" d="M176.2,-1166.64C185.49,-1162.95 194.39,-1158.18 202,-1152 217.91,-1139.07 273.23,-1020.51 298.69,-964.75"/>
<polygon fill="#7d8597" stroke="#7d8597" points="301.78,-966.41 302.74,-955.86 295.41,-963.51 301.78,-966.41"/>
</g>
<!-- tests.config.test_model_config&#45;&gt;utils.tft_utils -->
<g id="edge5" class="edge">
<title>tests.config.test_model_config&#45;&gt;utils.tft_utils</title>
<path fill="none" stroke="#7d8597" stroke-dasharray="5,2" d="M176.23,-1188.56C204.53,-1192.2 236.1,-1196.27 261.63,-1199.55"/>
<polygon fill="#7d8597" stroke="#7d8597" points="261.04,-1203.01 271.41,-1200.81 261.93,-1196.06 261.04,-1203.01"/>
</g>
<!-- tests.config.test_runtime_config -->
<g id="node29" class="node">
<title>tests.config.test_runtime_config</title>
<path fill="#ece4ff" stroke="#5e548e" d="M166.75,-1089C166.75,-1089 35.25,-1089 35.25,-1089 29.25,-1089 23.25,-1083 23.25,-1077 23.25,-1077 23.25,-1065 23.25,-1065 23.25,-1059 29.25,-1053 35.25,-1053 35.25,-1053 166.75,-1053 166.75,-1053 172.75,-1053 178.75,-1059 178.75,-1065 178.75,-1065 178.75,-1077 178.75,-1077 178.75,-1083 172.75,-1089 166.75,-1089"/>
<text text-anchor="middle" x="101" y="-1067.12" font-family="Helvetica,sans-Serif" font-size="10.00">tests.config.test_runtime_config</text>
</g>
<!-- tests.config.test_runtime_config&#45;&gt;config -->
<g id="edge6" class="edge">
<title>tests.config.test_runtime_config&#45;&gt;config</title>
<path fill="none" stroke="#7d8597" stroke-dasharray="5,2" d="M179.25,-1054.51C187.17,-1051.55 194.9,-1048.07 202,-1044 238.18,-1023.25 271.02,-987.66 291.14,-963.04"/>
<polygon fill="#7d8597" stroke="#7d8597" points="293.76,-965.37 297.27,-955.38 288.29,-961 293.76,-965.37"/>
</g>
<!-- tests.conftest -->
<g id="node30" class="node">
<title>tests.conftest</title>
<path fill="#ece4ff" stroke="#5e548e" d="M127,-1035C127,-1035 75,-1035 75,-1035 69,-1035 63,-1029 63,-1023 63,-1023 63,-1011 63,-1011 63,-1005 69,-999 75,-999 75,-999 127,-999 127,-999 133,-999 139,-1005 139,-1011 139,-1011 139,-1023 139,-1023 139,-1029 133,-1035 127,-1035"/>
<text text-anchor="middle" x="101" y="-1013.12" font-family="Helvetica,sans-Serif" font-size="10.00">tests.conftest</text>
</g>
<!-- tests.conftest&#45;&gt;config -->
<g id="edge7" class="edge">
<title>tests.conftest&#45;&gt;config</title>
<path fill="none" stroke="#7d8597" stroke-dasharray="5,2" d="M139.11,-1008.8C158.19,-1004.13 181.64,-997.68 202,-990 227.15,-980.52 254.25,-967.21 275.23,-956.17"/>
<polygon fill="#7d8597" stroke="#7d8597" points="276.78,-959.31 283.96,-951.52 273.49,-953.13 276.78,-959.31"/>
</g>
<!-- tests.data -->
<g id="node31" class="node">
<title>tests.data</title>
<polygon fill="#d9eaf4" stroke="#0b3954" points="130.75,-2061 127.75,-2065 106.75,-2065 103.75,-2061 71.25,-2061 71.25,-2025 130.75,-2025 130.75,-2061"/>
<text text-anchor="middle" x="101" y="-2039.12" font-family="Helvetica,sans-Serif" font-size="10.00">tests.data</text>
</g>
<!-- tests.data.test_datamodule -->
<g id="node32" class="node">
<title>tests.data.test_datamodule</title>
<path fill="#ece4ff" stroke="#5e548e" d="M156.25,-1359C156.25,-1359 45.75,-1359 45.75,-1359 39.75,-1359 33.75,-1353 33.75,-1347 33.75,-1347 33.75,-1335 33.75,-1335 33.75,-1329 39.75,-1323 45.75,-1323 45.75,-1323 156.25,-1323 156.25,-1323 162.25,-1323 168.25,-1329 168.25,-1335 168.25,-1335 168.25,-1347 168.25,-1347 168.25,-1353 162.25,-1359 156.25,-1359"/>
<text text-anchor="middle" x="101" y="-1337.12" font-family="Helvetica,sans-Serif" font-size="10.00">tests.data.test_datamodule</text>
</g>
<!-- tests.data.test_datamodule&#45;&gt;config -->
<g id="edge8" class="edge">
<title>tests.data.test_datamodule&#45;&gt;config</title>
<path fill="none" stroke="#7d8597" stroke-dasharray="5,2" d="M168.73,-1334.25C181.27,-1330.1 193.19,-1323.73 202,-1314 267.34,-1241.87 209.61,-1191.09 238,-1098 252.9,-1049.14 279.29,-995.83 296.12,-964.19"/>
<polygon fill="#7d8597" stroke="#7d8597" points="299.05,-966.13 300.71,-955.66 292.89,-962.81 299.05,-966.13"/>
</g>
<!-- tests.data.test_datamodule&#45;&gt;data.datamodule -->
<g id="edge9" class="edge">
<title>tests.data.test_datamodule&#45;&gt;data.datamodule</title>
<path fill="none" stroke="#7d8597" stroke-dasharray="5,2" d="M168.64,-1323.84C197.31,-1316.46 230.4,-1307.94 257.52,-1300.95"/>
<polygon fill="#7d8597" stroke="#7d8597" points="258.09,-1304.42 266.9,-1298.54 256.35,-1297.64 258.09,-1304.42"/>
</g>
<!-- tests.data.test_datamodule&#45;&gt;data.downloader -->
<g id="edge10" class="edge">
<title>tests.data.test_datamodule&#45;&gt;data.downloader</title>
<path fill="none" stroke="#7d8597" stroke-dasharray="5,2" d="M168.64,-1349.58C197.29,-1353.27 230.34,-1357.52 257.46,-1361.02"/>
<polygon fill="#7d8597" stroke="#7d8597" points="256.82,-1364.46 267.19,-1362.27 257.72,-1357.52 256.82,-1364.46"/>
</g>
<!-- tests.data.test_datamodule&#45;&gt;data.schema -->
<g id="edge11" class="edge">
<title>tests.data.test_datamodule&#45;&gt;data.schema</title>
<path fill="none" stroke="#7d8597" stroke-dasharray="5,2" d="M168.61,-1347.55C181.23,-1351.69 193.21,-1358.13 202,-1368 274.57,-1449.57 169.06,-1526.34 238,-1611 245.02,-1619.63 255.06,-1625.5 265.48,-1629.49"/>
<polygon fill="#7d8597" stroke="#7d8597" points="264.33,-1632.8 274.92,-1632.55 266.49,-1626.14 264.33,-1632.8"/>
</g>
<!-- tests.data.test_dataset -->
<g id="node33" class="node">
<title>tests.data.test_dataset</title>
<path fill="#ece4ff" stroke="#5e548e" d="M147.25,-1629C147.25,-1629 54.75,-1629 54.75,-1629 48.75,-1629 42.75,-1623 42.75,-1617 42.75,-1617 42.75,-1605 42.75,-1605 42.75,-1599 48.75,-1593 54.75,-1593 54.75,-1593 147.25,-1593 147.25,-1593 153.25,-1593 159.25,-1599 159.25,-1605 159.25,-1605 159.25,-1617 159.25,-1617 159.25,-1623 153.25,-1629 147.25,-1629"/>
<text text-anchor="middle" x="101" y="-1607.12" font-family="Helvetica,sans-Serif" font-size="10.00">tests.data.test_dataset</text>
</g>
<!-- tests.data.test_dataset&#45;&gt;data.dataset -->
<g id="edge12" class="edge">
<title>tests.data.test_dataset&#45;&gt;data.dataset</title>
<path fill="none" stroke="#7d8597" stroke-dasharray="5,2" d="M159.68,-1599.42C173.91,-1595.49 188.83,-1590.42 202,-1584 219.98,-1575.24 221.93,-1568.91 238,-1557 250.79,-1547.52 264.89,-1537.16 277.3,-1528.08"/>
<polygon fill="#7d8597" stroke="#7d8597" points="279.18,-1531.05 285.19,-1522.32 275.05,-1525.39 279.18,-1531.05"/>
</g>
<!-- tests.data.test_dataset&#45;&gt;data.indexing -->
<g id="edge13" class="edge">
<title>tests.data.test_dataset&#45;&gt;data.indexing</title>
<path fill="none" stroke="#7d8597" stroke-dasharray="5,2" d="M159.58,-1603.59C192.37,-1599.36 232.97,-1594.14 263.97,-1590.15"/>
<polygon fill="#7d8597" stroke="#7d8597" points="264.37,-1593.62 273.84,-1588.87 263.48,-1586.68 264.37,-1593.62"/>
</g>
<!-- tests.data.test_dataset&#45;&gt;data.schema -->
<g id="edge14" class="edge">
<title>tests.data.test_dataset&#45;&gt;data.schema</title>
<path fill="none" stroke="#7d8597" stroke-dasharray="5,2" d="M159.58,-1618.41C192.69,-1622.68 233.76,-1627.97 264.88,-1631.97"/>
<polygon fill="#7d8597" stroke="#7d8597" points="264.42,-1635.44 274.78,-1633.25 265.31,-1628.5 264.42,-1635.44"/>
</g>
<!-- tests.data.test_dataset&#45;&gt;data.transforms -->
<g id="edge15" class="edge">
<title>tests.data.test_dataset&#45;&gt;data.transforms</title>
<path fill="none" stroke="#7d8597" stroke-dasharray="5,2" d="M159.68,-1622.58C173.91,-1626.51 188.83,-1631.58 202,-1638 219.98,-1646.76 220.42,-1655.46 238,-1665 244.76,-1668.67 252.12,-1672.03 259.49,-1675.05"/>
<polygon fill="#7d8597" stroke="#7d8597" points="258.22,-1678.31 268.81,-1678.66 260.75,-1671.78 258.22,-1678.31"/>
</g>
<!-- tests.data.test_downloader -->
<g id="node34" class="node">
<title>tests.data.test_downloader</title>
<path fill="#ece4ff" stroke="#5e548e" d="M155.88,-1413C155.88,-1413 46.12,-1413 46.12,-1413 40.12,-1413 34.12,-1407 34.12,-1401 34.12,-1401 34.12,-1389 34.12,-1389 34.12,-1383 40.12,-1377 46.12,-1377 46.12,-1377 155.88,-1377 155.88,-1377 161.88,-1377 167.88,-1383 167.88,-1389 167.88,-1389 167.88,-1401 167.88,-1401 167.88,-1407 161.88,-1413 155.88,-1413"/>
<text text-anchor="middle" x="101" y="-1391.12" font-family="Helvetica,sans-Serif" font-size="10.00">tests.data.test_downloader</text>
</g>
<!-- tests.data.test_downloader&#45;&gt;data.downloader -->
<g id="edge16" class="edge">
<title>tests.data.test_downloader&#45;&gt;data.downloader</title>
<path fill="none" stroke="#7d8597" stroke-dasharray="5,2" d="M168.35,-1386.46C197.12,-1382.75 230.38,-1378.47 257.61,-1374.96"/>
<polygon fill="#7d8597" stroke="#7d8597" points="257.91,-1378.45 267.38,-1373.71 257.02,-1371.51 257.91,-1378.45"/>
</g>
<!-- tests.data.test_indexing -->
<g id="node35" class="node">
<title>tests.data.test_indexing</title>
<path fill="#ece4ff" stroke="#5e548e" d="M149.12,-1683C149.12,-1683 52.88,-1683 52.88,-1683 46.88,-1683 40.88,-1677 40.88,-1671 40.88,-1671 40.88,-1659 40.88,-1659 40.88,-1653 46.88,-1647 52.88,-1647 52.88,-1647 149.12,-1647 149.12,-1647 155.12,-1647 161.12,-1653 161.12,-1659 161.12,-1659 161.12,-1671 161.12,-1671 161.12,-1677 155.12,-1683 149.12,-1683"/>
<text text-anchor="middle" x="101" y="-1661.12" font-family="Helvetica,sans-Serif" font-size="10.00">tests.data.test_indexing</text>
</g>
<!-- tests.data.test_indexing&#45;&gt;data.indexing -->
<g id="edge17" class="edge">
<title>tests.data.test_indexing&#45;&gt;data.indexing</title>
<path fill="none" stroke="#7d8597" stroke-dasharray="5,2" d="M161.52,-1652.91C175.18,-1649.05 189.39,-1644.15 202,-1638 219.98,-1629.24 220.42,-1620.54 238,-1611 246.44,-1606.42 255.81,-1602.32 264.97,-1598.77"/>
<polygon fill="#7d8597" stroke="#7d8597" points="265.95,-1602.14 274.12,-1595.4 263.53,-1595.57 265.95,-1602.14"/>
</g>
<!-- tests.data.test_indexing&#45;&gt;data.schema -->
<g id="edge18" class="edge">
<title>tests.data.test_indexing&#45;&gt;data.schema</title>
<path fill="none" stroke="#7d8597" stroke-dasharray="5,2" d="M161.53,-1657.34C194.39,-1653.1 234.59,-1647.93 265.13,-1644"/>
<polygon fill="#7d8597" stroke="#7d8597" points="265.36,-1647.5 274.83,-1642.75 264.46,-1640.55 265.36,-1647.5"/>
</g>
<!-- tests.data.test_indexing&#45;&gt;data.transforms -->
<g id="edge19" class="edge">
<title>tests.data.test_indexing&#45;&gt;data.transforms</title>
<path fill="none" stroke="#7d8597" stroke-dasharray="5,2" d="M161.53,-1672.66C192.21,-1676.62 229.3,-1681.39 258.94,-1685.21"/>
<polygon fill="#7d8597" stroke="#7d8597" points="258.46,-1688.67 268.82,-1686.48 259.35,-1681.73 258.46,-1688.67"/>
</g>
<!-- tests.data.test_preprocessor -->
<g id="node36" class="node">
<title>tests.data.test_preprocessor</title>
<path fill="#ece4ff" stroke="#5e548e" d="M159.25,-1521C159.25,-1521 42.75,-1521 42.75,-1521 36.75,-1521 30.75,-1515 30.75,-1509 30.75,-1509 30.75,-1497 30.75,-1497 30.75,-1491 36.75,-1485 42.75,-1485 42.75,-1485 159.25,-1485 159.25,-1485 165.25,-1485 171.25,-1491 171.25,-1497 171.25,-1497 171.25,-1509 171.25,-1509 171.25,-1515 165.25,-1521 159.25,-1521"/>
<text text-anchor="middle" x="101" y="-1499.12" font-family="Helvetica,sans-Serif" font-size="10.00">tests.data.test_preprocessor</text>
</g>
<!-- tests.data.test_preprocessor&#45;&gt;data.preprocessor -->
<g id="edge20" class="edge">
<title>tests.data.test_preprocessor&#45;&gt;data.preprocessor</title>
<path fill="none" stroke="#7d8597" stroke-dasharray="5,2" d="M171.54,-1485.09C198.43,-1478.17 228.84,-1470.34 254.45,-1463.74"/>
<polygon fill="#7d8597" stroke="#7d8597" points="255.19,-1467.17 264,-1461.28 253.45,-1460.39 255.19,-1467.17"/>
</g>
<!-- tests.data.test_schema -->
<g id="node37" class="node">
<title>tests.data.test_schema</title>
<path fill="#ece4ff" stroke="#5e548e" d="M148.38,-1575C148.38,-1575 53.62,-1575 53.62,-1575 47.62,-1575 41.62,-1569 41.62,-1563 41.62,-1563 41.62,-1551 41.62,-1551 41.62,-1545 47.62,-1539 53.62,-1539 53.62,-1539 148.38,-1539 148.38,-1539 154.38,-1539 160.38,-1545 160.38,-1551 160.38,-1551 160.38,-1563 160.38,-1563 160.38,-1569 154.38,-1575 148.38,-1575"/>
<text text-anchor="middle" x="101" y="-1553.12" font-family="Helvetica,sans-Serif" font-size="10.00">tests.data.test_schema</text>
</g>
<!-- tests.data.test_schema&#45;&gt;data.schema -->
<g id="edge21" class="edge">
<title>tests.data.test_schema&#45;&gt;data.schema</title>
<path fill="none" stroke="#7d8597" stroke-dasharray="5,2" d="M160.73,-1568.87C174.64,-1572.76 189.15,-1577.74 202,-1584 219.98,-1592.76 220.42,-1601.46 238,-1611 246.61,-1615.67 256.19,-1619.85 265.53,-1623.44"/>
<polygon fill="#7d8597" stroke="#7d8597" points="264.28,-1626.71 274.87,-1626.86 266.68,-1620.14 264.28,-1626.71"/>
</g>
<!-- tests.data.test_schema&#45;&gt;utils.tft_utils -->
<g id="edge22" class="edge">
<title>tests.data.test_schema&#45;&gt;utils.tft_utils</title>
<path fill="none" stroke="#7d8597" stroke-dasharray="5,2" d="M160.67,-1552.88C176.15,-1548.96 191.45,-1542.03 202,-1530 281.81,-1438.97 176.22,-1364.11 238,-1260 246.6,-1245.51 260.75,-1233.75 274.36,-1224.94"/>
<polygon fill="#7d8597" stroke="#7d8597" points="276.06,-1228.01 282.8,-1219.84 272.43,-1222.02 276.06,-1228.01"/>
</g>
<!-- tests.data.test_statistics -->
<g id="node38" class="node">
<title>tests.data.test_statistics</title>
<path fill="#ece4ff" stroke="#5e548e" d="M151,-1791C151,-1791 51,-1791 51,-1791 45,-1791 39,-1785 39,-1779 39,-1779 39,-1767 39,-1767 39,-1761 45,-1755 51,-1755 51,-1755 151,-1755 151,-1755 157,-1755 163,-1761 163,-1767 163,-1767 163,-1779 163,-1779 163,-1785 157,-1791 151,-1791"/>
<text text-anchor="middle" x="101" y="-1769.12" font-family="Helvetica,sans-Serif" font-size="10.00">tests.data.test_statistics</text>
</g>
<!-- tests.data.test_statistics&#45;&gt;data.datamodule -->
<g id="edge23" class="edge">
<title>tests.data.test_statistics&#45;&gt;data.datamodule</title>
<path fill="none" stroke="#7d8597" stroke-dasharray="5,2" d="M163.36,-1768.56C178.02,-1764.54 192.24,-1757.64 202,-1746 260.06,-1676.77 193.61,-1419.7 238,-1341 244.51,-1329.46 254.62,-1319.7 265.28,-1311.79"/>
<polygon fill="#7d8597" stroke="#7d8597" points="267.21,-1314.71 273.47,-1306.17 263.25,-1308.94 267.21,-1314.71"/>
</g>
<!-- tests.data.test_statistics&#45;&gt;data.schema -->
<g id="edge24" class="edge">
<title>tests.data.test_statistics&#45;&gt;data.schema</title>
<path fill="none" stroke="#7d8597" stroke-dasharray="5,2" d="M163.31,-1765.53C177.21,-1761.5 191.07,-1755.36 202,-1746 231.92,-1720.38 209.22,-1691.91 238,-1665 245.75,-1657.75 255.6,-1652.42 265.56,-1648.5"/>
<polygon fill="#7d8597" stroke="#7d8597" points="266.57,-1651.85 274.88,-1645.28 264.29,-1645.24 266.57,-1651.85"/>
</g>
<!-- tests.data.test_statistics&#45;&gt;data.statistics -->
<g id="edge25" class="edge">
<title>tests.data.test_statistics&#45;&gt;data.statistics</title>
<path fill="none" stroke="#7d8597" stroke-dasharray="5,2" d="M163.22,-1773C194.7,-1773 232.57,-1773 262.19,-1773"/>
<polygon fill="#7d8597" stroke="#7d8597" points="262,-1776.5 272,-1773 262,-1769.5 262,-1776.5"/>
</g>
<!-- tests.data.test_statistics&#45;&gt;data.transforms -->
<g id="edge26" class="edge">
<title>tests.data.test_statistics&#45;&gt;data.transforms</title>
<path fill="none" stroke="#7d8597" stroke-dasharray="5,2" d="M163.41,-1758.43C176.31,-1754.82 189.72,-1750.63 202,-1746 224.67,-1737.45 248.92,-1725.8 268.85,-1715.5"/>
<polygon fill="#7d8597" stroke="#7d8597" points="270.27,-1718.71 277.5,-1710.97 267.02,-1712.51 270.27,-1718.71"/>
</g>
<!-- tests.data.test_transforms -->
<g id="node39" class="node">
<title>tests.data.test_transforms</title>
<path fill="#ece4ff" stroke="#5e548e" d="M154.38,-1737C154.38,-1737 47.62,-1737 47.62,-1737 41.63,-1737 35.62,-1731 35.62,-1725 35.62,-1725 35.62,-1713 35.62,-1713 35.62,-1707 41.62,-1701 47.62,-1701 47.62,-1701 154.38,-1701 154.38,-1701 160.38,-1701 166.38,-1707 166.38,-1713 166.38,-1713 166.38,-1725 166.38,-1725 166.38,-1731 160.38,-1737 154.38,-1737"/>
<text text-anchor="middle" x="101" y="-1715.12" font-family="Helvetica,sans-Serif" font-size="10.00">tests.data.test_transforms</text>
</g>
<!-- tests.data.test_transforms&#45;&gt;data.schema -->
<g id="edge27" class="edge">
<title>tests.data.test_transforms&#45;&gt;data.schema</title>
<path fill="none" stroke="#7d8597" stroke-dasharray="5,2" d="M166.8,-1705.37C178.8,-1701.78 191.01,-1697.36 202,-1692 219.98,-1683.24 220.42,-1674.54 238,-1665 246.61,-1660.33 256.19,-1656.15 265.53,-1652.56"/>
<polygon fill="#7d8597" stroke="#7d8597" points="266.68,-1655.86 274.87,-1649.14 264.28,-1649.29 266.68,-1655.86"/>
</g>
<!-- tests.data.test_transforms&#45;&gt;data.transforms -->
<g id="edge28" class="edge">
<title>tests.data.test_transforms&#45;&gt;data.transforms</title>
<path fill="none" stroke="#7d8597" stroke-dasharray="5,2" d="M166.63,-1710.68C196.24,-1706.87 230.91,-1702.4 258.92,-1698.8"/>
<polygon fill="#7d8597" stroke="#7d8597" points="259.12,-1702.3 268.59,-1697.55 258.22,-1695.36 259.12,-1702.3"/>
</g>
<!-- tests.environment -->
<g id="node40" class="node">
<title>tests.environment</title>
<polygon fill="#d9eaf4" stroke="#0b3954" points="148,-2115 145,-2119 124,-2119 121,-2115 54,-2115 54,-2079 148,-2079 148,-2115"/>
<text text-anchor="middle" x="101" y="-2093.12" font-family="Helvetica,sans-Serif" font-size="10.00">tests.environment</text>
</g>
<!-- tests.environment.test_diagnostics -->
<g id="node41" class="node">
<title>tests.environment.test_diagnostics</title>
<path fill="#ece4ff" stroke="#5e548e" d="M173.12,-495C173.12,-495 28.87,-495 28.87,-495 22.87,-495 16.88,-489 16.88,-483 16.88,-483 16.88,-471 16.88,-471 16.88,-465 22.88,-459 28.88,-459 28.88,-459 173.12,-459 173.12,-459 179.12,-459 185.12,-465 185.12,-471 185.12,-471 185.12,-483 185.12,-483 185.12,-489 179.12,-495 173.12,-495"/>
<text text-anchor="middle" x="101" y="-473.12" font-family="Helvetica,sans-Serif" font-size="10.00">tests.environment.test_diagnostics</text>
</g>
<!-- tests.environment.test_diagnostics&#45;&gt;config -->
<g id="edge29" class="edge">
<title>tests.environment.test_diagnostics&#45;&gt;config</title>
<path fill="none" stroke="#7d8597" stroke-dasharray="5,2" d="M185.52,-490.5C191.72,-494.07 197.36,-498.51 202,-504 255.48,-567.25 199.16,-801.84 238,-875 246.69,-891.37 261.8,-905.05 276.09,-915.29"/>
<polygon fill="#7d8597" stroke="#7d8597" points="273.79,-917.95 284.03,-920.66 277.71,-912.16 273.79,-917.95"/>
</g>
<!-- tests.environment.test_diagnostics&#45;&gt;environment -->
<g id="edge30" class="edge">
<title>tests.environment.test_diagnostics&#45;&gt;environment</title>
<path fill="none" stroke="#7d8597" stroke-dasharray="5,2" d="M173.58,-458.57C204.42,-450.63 239.53,-441.58 266.64,-434.6"/>
<polygon fill="#7d8597" stroke="#7d8597" points="267.45,-438.01 276.27,-432.13 265.71,-431.23 267.45,-438.01"/>
</g>
<!-- tests.environment.test_profiles -->
<g id="node42" class="node">
<title>tests.environment.test_profiles</title>
<path fill="#ece4ff" stroke="#5e548e" d="M164.12,-549C164.12,-549 37.88,-549 37.88,-549 31.87,-549 25.88,-543 25.88,-537 25.88,-537 25.88,-525 25.88,-525 25.88,-519 31.88,-513 37.88,-513 37.88,-513 164.12,-513 164.12,-513 170.12,-513 176.12,-519 176.12,-525 176.12,-525 176.12,-537 176.12,-537 176.12,-543 170.12,-549 164.12,-549"/>
<text text-anchor="middle" x="101" y="-527.12" font-family="Helvetica,sans-Serif" font-size="10.00">tests.environment.test_profiles</text>
</g>
<!-- tests.environment.test_profiles&#45;&gt;config -->
<g id="edge31" class="edge">
<title>tests.environment.test_profiles&#45;&gt;config</title>
<path fill="none" stroke="#7d8597" stroke-dasharray="5,2" d="M176.23,-540.07C186.04,-544.18 195.08,-549.95 202,-558 294.44,-665.52 170.49,-750.31 238,-875 246.82,-891.29 261.95,-904.97 276.22,-915.22"/>
<polygon fill="#7d8597" stroke="#7d8597" points="273.9,-917.88 284.14,-920.6 277.83,-912.09 273.9,-917.88"/>
</g>
<!-- tests.environment.test_profiles&#45;&gt;environment -->
<g id="edge32" class="edge">
<title>tests.environment.test_profiles&#45;&gt;environment</title>
<path fill="none" stroke="#7d8597" stroke-dasharray="5,2" d="M176.58,-517.39C185.61,-513.9 194.33,-509.51 202,-504 225.42,-487.16 215.34,-467.84 238,-450 246.58,-443.24 257.02,-438.07 267.3,-434.15"/>
<polygon fill="#7d8597" stroke="#7d8597" points="268.13,-437.57 276.45,-431 265.85,-430.95 268.13,-437.57"/>
</g>
<!-- tests.evaluation -->
<g id="node43" class="node">
<title>tests.evaluation</title>
<polygon fill="#d9eaf4" stroke="#0b3954" points="143.5,-2169 140.5,-2173 119.5,-2173 116.5,-2169 58.5,-2169 58.5,-2133 143.5,-2133 143.5,-2169"/>
<text text-anchor="middle" x="101" y="-2147.12" font-family="Helvetica,sans-Serif" font-size="10.00">tests.evaluation</text>
</g>
<!-- tests.evaluation.test_evaluator -->
<g id="node44" class="node">
<title>tests.evaluation.test_evaluator</title>
<path fill="#ece4ff" stroke="#5e548e" d="M163.75,-1845C163.75,-1845 38.25,-1845 38.25,-1845 32.25,-1845 26.25,-1839 26.25,-1833 26.25,-1833 26.25,-1821 26.25,-1821 26.25,-1815 32.25,-1809 38.25,-1809 38.25,-1809 163.75,-1809 163.75,-1809 169.75,-1809 175.75,-1815 175.75,-1821 175.75,-1821 175.75,-1833 175.75,-1833 175.75,-1839 169.75,-1845 163.75,-1845"/>
<text text-anchor="middle" x="101" y="-1823.12" font-family="Helvetica,sans-Serif" font-size="10.00">tests.evaluation.test_evaluator</text>
</g>
<!-- tests.evaluation.test_evaluator&#45;&gt;evaluation -->
<g id="edge33" class="edge">
<title>tests.evaluation.test_evaluator&#45;&gt;evaluation</title>
<path fill="none" stroke="#7d8597" stroke-dasharray="5,2" d="M176.23,-1827C208.04,-1827 243.98,-1827 270.85,-1827"/>
<polygon fill="#7d8597" stroke="#7d8597" points="270.62,-1830.5 280.62,-1827 270.62,-1823.5 270.62,-1830.5"/>
</g>
<!-- tests.evaluation.test_metrics -->
<g id="node45" class="node">
<title>tests.evaluation.test_metrics</title>
<path fill="#ece4ff" stroke="#5e548e" d="M160,-1899C160,-1899 42,-1899 42,-1899 36,-1899 30,-1893 30,-1887 30,-1887 30,-1875 30,-1875 30,-1869 36,-1863 42,-1863 42,-1863 160,-1863 160,-1863 166,-1863 172,-1869 172,-1875 172,-1875 172,-1887 172,-1887 172,-1893 166,-1899 160,-1899"/>
<text text-anchor="middle" x="101" y="-1877.12" font-family="Helvetica,sans-Serif" font-size="10.00">tests.evaluation.test_metrics</text>
</g>
<!-- tests.evaluation.test_metrics&#45;&gt;evaluation.metrics -->
<g id="edge34" class="edge">
<title>tests.evaluation.test_metrics&#45;&gt;evaluation.metrics</title>
<path fill="none" stroke="#7d8597" stroke-dasharray="5,2" d="M172.41,-1881C195.62,-1881 221.36,-1881 244.33,-1881"/>
<polygon fill="#7d8597" stroke="#7d8597" points="244.2,-1884.5 254.2,-1881 244.2,-1877.5 244.2,-1884.5"/>
</g>
<!-- tests.manual -->
<g id="node46" class="node">
<title>tests.manual</title>
<polygon fill="#d9eaf4" stroke="#0b3954" points="137.12,-2223 134.12,-2227 113.12,-2227 110.12,-2223 64.88,-2223 64.88,-2187 137.12,-2187 137.12,-2223"/>
<text text-anchor="middle" x="101" y="-2201.12" font-family="Helvetica,sans-Serif" font-size="10.00">tests.manual</text>
</g>
<!-- tests.manual.manual_data_smoke -->
<g id="node47" class="node">
<title>tests.manual.manual_data_smoke</title>
<path fill="#ece4ff" stroke="#5e548e" d="M171.62,-1305C171.62,-1305 30.38,-1305 30.38,-1305 24.38,-1305 18.38,-1299 18.38,-1293 18.38,-1293 18.38,-1281 18.38,-1281 18.38,-1275 24.38,-1269 30.38,-1269 30.38,-1269 171.62,-1269 171.62,-1269 177.62,-1269 183.62,-1275 183.62,-1281 183.62,-1281 183.62,-1293 183.62,-1293 183.62,-1299 177.62,-1305 171.62,-1305"/>
<text text-anchor="middle" x="101" y="-1283.12" font-family="Helvetica,sans-Serif" font-size="10.00">tests.manual.manual_data_smoke</text>
</g>
<!-- tests.manual.manual_data_smoke&#45;&gt;config -->
<g id="edge35" class="edge">
<title>tests.manual.manual_data_smoke&#45;&gt;config</title>
<path fill="none" stroke="#7d8597" stroke-dasharray="5,2" d="M183.87,-1273.39C190.58,-1269.85 196.78,-1265.46 202,-1260 252.97,-1206.69 214.6,-1167.95 238,-1098 254.2,-1049.56 280.21,-996.13 296.61,-964.35"/>
<polygon fill="#7d8597" stroke="#7d8597" points="299.55,-966.27 301.07,-955.78 293.35,-963.03 299.55,-966.27"/>
</g>
<!-- tests.manual.manual_data_smoke&#45;&gt;data.datamodule -->
<g id="edge36" class="edge">
<title>tests.manual.manual_data_smoke&#45;&gt;data.datamodule</title>
<path fill="none" stroke="#7d8597" stroke-dasharray="5,2" d="M183.98,-1287C208.53,-1287 234.84,-1287 257.17,-1287"/>
<polygon fill="#7d8597" stroke="#7d8597" points="256.93,-1290.5 266.93,-1287 256.93,-1283.5 256.93,-1290.5"/>
</g>
<!-- tests.manual.manual_data_smoke&#45;&gt;data.dataset -->
<g id="edge37" class="edge">
<title>tests.manual.manual_data_smoke&#45;&gt;data.dataset</title>
<path fill="none" stroke="#7d8597" stroke-dasharray="5,2" d="M183.87,-1300.61C190.58,-1304.15 196.78,-1308.54 202,-1314 252.97,-1367.31 189.41,-1420.51 238,-1476 245.54,-1484.61 256.07,-1490.48 266.81,-1494.48"/>
<polygon fill="#7d8597" stroke="#7d8597" points="265.49,-1497.73 276.08,-1497.42 267.61,-1491.06 265.49,-1497.73"/>
</g>
<!-- tests.manual.manual_real_data_validation -->
<g id="node48" class="node">
<title>tests.manual.manual_real_data_validation</title>
<path fill="#ece4ff" stroke="#5e548e" d="M188.12,-1467C188.12,-1467 13.88,-1467 13.88,-1467 7.87,-1467 1.88,-1461 1.88,-1455 1.88,-1455 1.88,-1443 1.88,-1443 1.88,-1437 7.88,-1431 13.88,-1431 13.88,-1431 188.12,-1431 188.12,-1431 194.13,-1431 200.12,-1437 200.12,-1443 200.12,-1443 200.12,-1455 200.12,-1455 200.12,-1461 194.12,-1467 188.12,-1467"/>
<text text-anchor="middle" x="101" y="-1445.12" font-family="Helvetica,sans-Serif" font-size="10.00">tests.manual.manual_real_data_validation</text>
</g>
<!-- tests.manual.manual_real_data_validation&#45;&gt;config -->
<g id="edge38" class="edge">
<title>tests.manual.manual_real_data_validation&#45;&gt;config</title>
<path fill="none" stroke="#7d8597" stroke-dasharray="5,2" d="M192.61,-1430.74C196.03,-1428.18 199.19,-1425.28 202,-1422 249.16,-1367.01 218.76,-1167.84 238,-1098 251.57,-1048.75 278.34,-995.56 295.61,-964.05"/>
<polygon fill="#7d8597" stroke="#7d8597" points="298.54,-965.99 300.34,-955.55 292.42,-962.59 298.54,-965.99"/>
</g>
<!-- tests.manual.manual_real_data_validation&#45;&gt;data.datamodule -->
<g id="edge39" class="edge">
<title>tests.manual.manual_real_data_validation&#45;&gt;data.datamodule</title>
<path fill="none" stroke="#7d8597" stroke-dasharray="5,2" d="M189.57,-1430.69C193.99,-1428.16 198.18,-1425.28 202,-1422 231.92,-1396.38 213.28,-1371.67 238,-1341 246.87,-1330 258.48,-1320.12 269.86,-1311.91"/>
<polygon fill="#7d8597" stroke="#7d8597" points="271.8,-1314.82 278.06,-1306.27 267.83,-1309.06 271.8,-1314.82"/>
</g>
<!-- tests.manual.manual_real_data_validation&#45;&gt;data.indexing -->
<g id="edge40" class="edge">
<title>tests.manual.manual_real_data_validation&#45;&gt;data.indexing</title>
<path fill="none" stroke="#7d8597" stroke-dasharray="5,2" d="M187.47,-1467.37C192.58,-1469.88 197.47,-1472.75 202,-1476 225.42,-1492.84 218.06,-1509.16 238,-1530 248.21,-1540.67 260.74,-1550.72 272.56,-1559.2"/>
<polygon fill="#7d8597" stroke="#7d8597" points="270.37,-1561.94 280.58,-1564.77 274.36,-1556.19 270.37,-1561.94"/>
</g>
<!-- tests.manual.manual_real_data_validation&#45;&gt;data.preprocessor -->
<g id="edge41" class="edge">
<title>tests.manual.manual_real_data_validation&#45;&gt;data.preprocessor</title>
<path fill="none" stroke="#7d8597" stroke-dasharray="5,2" d="M200.4,-1449C218.82,-1449 237.5,-1449 254.17,-1449"/>
<polygon fill="#7d8597" stroke="#7d8597" points="253.84,-1452.5 263.84,-1449 253.84,-1445.5 253.84,-1452.5"/>
</g>
<!-- tests.manual.manual_real_data_validation&#45;&gt;data.transforms -->
<g id="edge42" class="edge">
<title>tests.manual.manual_real_data_validation&#45;&gt;data.transforms</title>
<path fill="none" stroke="#7d8597" stroke-dasharray="5,2" d="M191.86,-1467.23C195.53,-1469.79 198.94,-1472.7 202,-1476 260.14,-1538.7 182.66,-1599.82 238,-1665 243.77,-1671.79 251.4,-1676.88 259.56,-1680.68"/>
<polygon fill="#7d8597" stroke="#7d8597" points="258.1,-1683.87 268.68,-1684.29 260.67,-1677.36 258.1,-1683.87"/>
</g>
<!-- tests.models -->
<g id="node49" class="node">
<title>tests.models</title>
<polygon fill="#d9eaf4" stroke="#0b3954" points="137.12,-2277 134.12,-2281 113.12,-2281 110.12,-2277 64.88,-2277 64.88,-2241 137.12,-2241 137.12,-2277"/>
<text text-anchor="middle" x="101" y="-2255.12" font-family="Helvetica,sans-Serif" font-size="10.00">tests.models</text>
</g>
<!-- tests.models.test_fused_model -->
<g id="node50" class="node">
<title>tests.models.test_fused_model</title>
<path fill="#ece4ff" stroke="#5e548e" d="M165.25,-927C165.25,-927 36.75,-927 36.75,-927 30.75,-927 24.75,-921 24.75,-915 24.75,-915 24.75,-903 24.75,-903 24.75,-897 30.75,-891 36.75,-891 36.75,-891 165.25,-891 165.25,-891 171.25,-891 177.25,-897 177.25,-903 177.25,-903 177.25,-915 177.25,-915 177.25,-921 171.25,-927 165.25,-927"/>
<text text-anchor="middle" x="101" y="-905.12" font-family="Helvetica,sans-Serif" font-size="10.00">tests.models.test_fused_model</text>
</g>
<!-- tests.models.test_fused_model&#45;&gt;config -->
<g id="edge43" class="edge">
<title>tests.models.test_fused_model&#45;&gt;config</title>
<path fill="none" stroke="#7d8597" stroke-dasharray="5,2" d="M177.71,-918.75C210.61,-922.98 247.68,-927.76 274.47,-931.21"/>
<polygon fill="#7d8597" stroke="#7d8597" points="273.78,-934.65 284.14,-932.45 274.67,-927.7 273.78,-934.65"/>
</g>
<!-- tests.models.test_fused_model&#45;&gt;models.fused_model -->
<g id="edge44" class="edge">
<title>tests.models.test_fused_model&#45;&gt;models.fused_model</title>
<path fill="none" stroke="#7d8597" stroke-dasharray="5,2" d="M177.35,-899.62C186.76,-895.52 195.39,-889.83 202,-882 256.42,-817.52 186.45,-570.8 238,-504 241.18,-499.88 245.04,-496.39 249.33,-493.44"/>
<polygon fill="#7d8597" stroke="#7d8597" points="250.98,-496.52 257.94,-488.53 247.52,-490.44 250.98,-496.52"/>
</g>
<!-- tests.models.test_fused_model&#45;&gt;utils.tft_utils -->
<g id="edge45" class="edge">
<title>tests.models.test_fused_model&#45;&gt;utils.tft_utils</title>
<path fill="none" stroke="#7d8597" stroke-dasharray="5,2" d="M177.36,-919.02C186.65,-923.05 195.24,-928.54 202,-936 267.34,-1008.13 186.98,-1069.12 238,-1152 246.83,-1166.35 261.02,-1178.09 274.61,-1186.91"/>
<polygon fill="#7d8597" stroke="#7d8597" points="272.65,-1189.82 283.01,-1192.03 276.29,-1183.84 272.65,-1189.82"/>
</g>
<!-- tests.models.test_grn -->
<g id="node51" class="node">
<title>tests.models.test_grn</title>
<path fill="#ece4ff" stroke="#5e548e" d="M144.25,-1143C144.25,-1143 57.75,-1143 57.75,-1143 51.75,-1143 45.75,-1137 45.75,-1131 45.75,-1131 45.75,-1119 45.75,-1119 45.75,-1113 51.75,-1107 57.75,-1107 57.75,-1107 144.25,-1107 144.25,-1107 150.25,-1107 156.25,-1113 156.25,-1119 156.25,-1119 156.25,-1131 156.25,-1131 156.25,-1137 150.25,-1143 144.25,-1143"/>
<text text-anchor="middle" x="101" y="-1121.12" font-family="Helvetica,sans-Serif" font-size="10.00">tests.models.test_grn</text>
</g>
<!-- tests.models.test_grn&#45;&gt;config -->
<g id="edge46" class="edge">
<title>tests.models.test_grn&#45;&gt;config</title>
<path fill="none" stroke="#7d8597" stroke-dasharray="5,2" d="M156.73,-1117.59C172.37,-1113.59 188.75,-1107.45 202,-1098 249.99,-1063.77 283.33,-1001.5 299.83,-964.94"/>
<polygon fill="#7d8597" stroke="#7d8597" points="303,-966.43 303.8,-955.86 296.58,-963.62 303,-966.43"/>
</g>
<!-- tests.models.test_grn&#45;&gt;models.grn -->
<g id="edge47" class="edge">
<title>tests.models.test_grn&#45;&gt;models.grn</title>
<path fill="none" stroke="#7d8597" stroke-dasharray="5,2" d="M156.55,-1125C191.57,-1125 236.4,-1125 268.85,-1125"/>
<polygon fill="#7d8597" stroke="#7d8597" points="268.7,-1128.5 278.7,-1125 268.7,-1121.5 268.7,-1128.5"/>
</g>
<!-- tests.observability -->
<g id="node52" class="node">
<title>tests.observability</title>
<polygon fill="#d9eaf4" stroke="#0b3954" points="148.75,-2331 145.75,-2335 124.75,-2335 121.75,-2331 53.25,-2331 53.25,-2295 148.75,-2295 148.75,-2331"/>
<text text-anchor="middle" x="101" y="-2309.12" font-family="Helvetica,sans-Serif" font-size="10.00">tests.observability</text>
</g>
<!-- tests.observability.support -->
<g id="node53" class="node">
<title>tests.observability.support</title>
<path fill="#ece4ff" stroke="#5e548e" d="M153.62,-2385C153.62,-2385 48.37,-2385 48.37,-2385 42.38,-2385 36.38,-2379 36.38,-2373 36.38,-2373 36.38,-2361 36.38,-2361 36.38,-2355 42.38,-2349 48.38,-2349 48.38,-2349 153.62,-2349 153.62,-2349 159.62,-2349 165.62,-2355 165.62,-2361 165.62,-2361 165.62,-2373 165.62,-2373 165.62,-2379 159.62,-2385 153.62,-2385"/>
<text text-anchor="middle" x="101" y="-2363.12" font-family="Helvetica,sans-Serif" font-size="10.00">tests.observability.support</text>
</g>
<!-- tests.observability.test_callbacks -->
<g id="node54" class="node">
<title>tests.observability.test_callbacks</title>
<path fill="#ece4ff" stroke="#5e548e" d="M169,-873C169,-873 33,-873 33,-873 27,-873 21,-867 21,-861 21,-861 21,-849 21,-849 21,-843 27,-837 33,-837 33,-837 169,-837 169,-837 175,-837 181,-843 181,-849 181,-849 181,-861 181,-861 181,-867 175,-873 169,-873"/>
<text text-anchor="middle" x="101" y="-851.12" font-family="Helvetica,sans-Serif" font-size="10.00">tests.observability.test_callbacks</text>
</g>
<!-- tests.observability.test_callbacks&#45;&gt;config -->
<g id="edge48" class="edge">
<title>tests.observability.test_callbacks&#45;&gt;config</title>
<path fill="none" stroke="#7d8597" stroke-dasharray="5,2" d="M176.78,-873.48C185.36,-876.1 193.92,-878.95 202,-882 227.15,-891.48 254.25,-904.79 275.23,-915.83"/>
<polygon fill="#7d8597" stroke="#7d8597" points="273.49,-918.87 283.96,-920.48 276.78,-912.69 273.49,-918.87"/>
</g>
<!-- tests.observability.test_callbacks&#45;&gt;observability.callbacks -->
<g id="edge49" class="edge">
<title>tests.observability.test_callbacks&#45;&gt;observability.callbacks</title>
<path fill="none" stroke="#7d8597" stroke-dasharray="5,2" d="M178,-836.58C186.2,-833.98 194.34,-831.11 202,-828 227.68,-817.58 254.92,-802.45 275.83,-789.87"/>
<polygon fill="#7d8597" stroke="#7d8597" points="277.56,-792.92 284.27,-784.72 273.91,-786.95 277.56,-792.92"/>
</g>
<!-- tests.observability.test_logging_utils -->
<g id="node55" class="node">
<title>tests.observability.test_logging_utils</title>
<path fill="#ece4ff" stroke="#5e548e" d="M175.38,-603C175.38,-603 26.63,-603 26.63,-603 20.62,-603 14.62,-597 14.62,-591 14.62,-591 14.62,-579 14.62,-579 14.62,-573 20.62,-567 26.62,-567 26.62,-567 175.38,-567 175.38,-567 181.38,-567 187.38,-573 187.38,-579 187.38,-579 187.38,-591 187.38,-591 187.38,-597 181.38,-603 175.38,-603"/>
<text text-anchor="middle" x="101" y="-581.12" font-family="Helvetica,sans-Serif" font-size="10.00">tests.observability.test_logging_utils</text>
</g>
<!-- tests.observability.test_logging_utils&#45;&gt;observability.logging_utils -->
<g id="edge50" class="edge">
<title>tests.observability.test_logging_utils&#45;&gt;observability.logging_utils</title>
<path fill="none" stroke="#7d8597" stroke-dasharray="5,2" d="M187.6,-585C200.47,-585 213.75,-585 226.62,-585"/>
<polygon fill="#7d8597" stroke="#7d8597" points="226.28,-588.5 236.28,-585 226.28,-581.5 226.28,-588.5"/>
</g>
<!-- tests.observability.test_package -->
<g id="node56" class="node">
<title>tests.observability.test_package</title>
<path fill="#ece4ff" stroke="#5e548e" d="M166.75,-657C166.75,-657 35.25,-657 35.25,-657 29.25,-657 23.25,-651 23.25,-645 23.25,-645 23.25,-633 23.25,-633 23.25,-627 29.25,-621 35.25,-621 35.25,-621 166.75,-621 166.75,-621 172.75,-621 178.75,-627 178.75,-633 178.75,-633 178.75,-645 178.75,-645 178.75,-651 172.75,-657 166.75,-657"/>
<text text-anchor="middle" x="101" y="-635.12" font-family="Helvetica,sans-Serif" font-size="10.00">tests.observability.test_package</text>
</g>
<!-- tests.observability.test_package&#45;&gt;observability -->
<g id="edge51" class="edge">
<title>tests.observability.test_package&#45;&gt;observability</title>
<path fill="none" stroke="#7d8597" stroke-dasharray="5,2" d="M179.13,-650.8C187.59,-654.6 195.48,-659.55 202,-666 244.01,-707.57 204.32,-745.44 238,-794 245.84,-805.3 256.82,-815.15 267.92,-823.22"/>
<polygon fill="#7d8597" stroke="#7d8597" points="265.73,-825.96 275.96,-828.72 269.69,-820.18 265.73,-825.96"/>
</g>
<!-- tests.observability.test_package&#45;&gt;observability.callbacks -->
<g id="edge52" class="edge">
<title>tests.observability.test_package&#45;&gt;observability.callbacks</title>
<path fill="none" stroke="#7d8597" stroke-dasharray="5,2" d="M179.17,-653.15C187.32,-656.55 195.13,-660.77 202,-666 227.05,-685.07 215.34,-705.14 238,-727 245.78,-734.5 255.24,-741.02 264.76,-746.48"/>
<polygon fill="#7d8597" stroke="#7d8597" points="262.83,-749.42 273.29,-751.08 266.15,-743.26 262.83,-749.42"/>
</g>
<!-- tests.observability.test_package&#45;&gt;observability.logging_utils -->
<g id="edge53" class="edge">
<title>tests.observability.test_package&#45;&gt;observability.logging_utils</title>
<path fill="none" stroke="#7d8597" stroke-dasharray="5,2" d="M173.58,-620.57C198.16,-614.24 225.47,-607.21 249.27,-601.08"/>
<polygon fill="#7d8597" stroke="#7d8597" points="250.01,-604.5 258.82,-598.62 248.26,-597.72 250.01,-604.5"/>
</g>
<!-- tests.observability.test_package&#45;&gt;observability.reporting -->
<g id="edge54" class="edge">
<title>tests.observability.test_package&#45;&gt;observability.reporting</title>
<path fill="none" stroke="#7d8597" stroke-dasharray="5,2" d="M179.19,-639C197.76,-639 217.58,-639 236.07,-639"/>
<polygon fill="#7d8597" stroke="#7d8597" points="235.88,-642.5 245.88,-639 235.88,-635.5 235.88,-642.5"/>
</g>
<!-- tests.observability.test_package&#45;&gt;observability.runtime -->
<g id="edge55" class="edge">
<title>tests.observability.test_package&#45;&gt;observability.runtime</title>
<path fill="none" stroke="#7d8597" stroke-dasharray="5,2" d="M171.76,-657.48C181.92,-660.28 192.24,-663.17 202,-666 220.63,-671.4 240.95,-677.61 258.98,-683.23"/>
<polygon fill="#7d8597" stroke="#7d8597" points="257.84,-686.54 268.43,-686.19 259.93,-679.86 257.84,-686.54"/>
</g>
<!-- tests.observability.test_runtime -->
<g id="node57" class="node">
<title>tests.observability.test_runtime</title>
<path fill="#ece4ff" stroke="#5e548e" d="M164.5,-819C164.5,-819 37.5,-819 37.5,-819 31.5,-819 25.5,-813 25.5,-807 25.5,-807 25.5,-795 25.5,-795 25.5,-789 31.5,-783 37.5,-783 37.5,-783 164.5,-783 164.5,-783 170.5,-783 176.5,-789 176.5,-795 176.5,-795 176.5,-807 176.5,-807 176.5,-813 170.5,-819 164.5,-819"/>
<text text-anchor="middle" x="101" y="-797.12" font-family="Helvetica,sans-Serif" font-size="10.00">tests.observability.test_runtime</text>
</g>
<!-- tests.observability.test_runtime&#45;&gt;config -->
<g id="edge56" class="edge">
<title>tests.observability.test_runtime&#45;&gt;config</title>
<path fill="none" stroke="#7d8597" stroke-dasharray="5,2" d="M176.76,-815.29C185.66,-818.67 194.31,-822.84 202,-828 223.86,-842.65 219.75,-856.05 238,-875 250.17,-887.64 264.84,-900.23 277.88,-910.67"/>
<polygon fill="#7d8597" stroke="#7d8597" points="275.38,-913.15 285.41,-916.58 279.71,-907.65 275.38,-913.15"/>
</g>
<!-- tests.observability.test_runtime&#45;&gt;observability.runtime -->
<g id="edge57" class="edge">
<title>tests.observability.test_runtime&#45;&gt;observability.runtime</title>
<path fill="none" stroke="#7d8597" stroke-dasharray="5,2" d="M176.8,-785.22C185.56,-782.1 194.15,-778.39 202,-774 221.2,-763.25 220.18,-752.91 238,-740 247.65,-733.01 258.66,-726.4 269.18,-720.64"/>
<polygon fill="#7d8597" stroke="#7d8597" points="270.52,-723.89 277.71,-716.11 267.24,-717.71 270.52,-723.89"/>
</g>
<!-- tests.reporting.test_reporting -->
<g id="node58" class="node">
<title>tests.reporting.test_reporting</title>
<path fill="#ece4ff" stroke="#5e548e" d="M159.25,-63C159.25,-63 42.75,-63 42.75,-63 36.75,-63 30.75,-57 30.75,-51 30.75,-51 30.75,-39 30.75,-39 30.75,-33 36.75,-27 42.75,-27 42.75,-27 159.25,-27 159.25,-27 165.25,-27 171.25,-33 171.25,-39 171.25,-39 171.25,-51 171.25,-51 171.25,-57 165.25,-63 159.25,-63"/>
<text text-anchor="middle" x="101" y="-41.12" font-family="Helvetica,sans-Serif" font-size="10.00">tests.reporting.test_reporting</text>
</g>
<!-- tests.reporting.test_reporting&#45;&gt;reporting -->
<g id="edge58" class="edge">
<title>tests.reporting.test_reporting&#45;&gt;reporting</title>
<path fill="none" stroke="#7d8597" stroke-dasharray="5,2" d="M171.54,-53.95C205.8,-58.36 245.76,-63.51 274.23,-67.18"/>
<polygon fill="#7d8597" stroke="#7d8597" points="273.43,-70.6 283.8,-68.41 274.32,-63.66 273.43,-70.6"/>
</g>
<!-- tests.reporting.test_reporting&#45;&gt;reporting.builders -->
<g id="edge59" class="edge">
<title>tests.reporting.test_reporting&#45;&gt;reporting.builders</title>
<path fill="none" stroke="#7d8597" stroke-dasharray="5,2" d="M171.54,-36.05C197.28,-32.73 226.24,-29 251.12,-25.8"/>
<polygon fill="#7d8597" stroke="#7d8597" points="251.27,-29.31 260.74,-24.56 250.38,-22.37 251.27,-29.31"/>
</g>
<!-- tests.support -->
<g id="node59" class="node">
<title>tests.support</title>
<path fill="#ece4ff" stroke="#5e548e" d="M125.5,-711C125.5,-711 76.5,-711 76.5,-711 70.5,-711 64.5,-705 64.5,-699 64.5,-699 64.5,-687 64.5,-687 64.5,-681 70.5,-675 76.5,-675 76.5,-675 125.5,-675 125.5,-675 131.5,-675 137.5,-681 137.5,-687 137.5,-687 137.5,-699 137.5,-699 137.5,-705 131.5,-711 125.5,-711"/>
<text text-anchor="middle" x="101" y="-689.12" font-family="Helvetica,sans-Serif" font-size="10.00">tests.support</text>
</g>
<!-- tests.support&#45;&gt;config -->
<g id="edge60" class="edge">
<title>tests.support&#45;&gt;config</title>
<path fill="none" stroke="#7d8597" stroke-dasharray="5,2" d="M137.57,-693.79C159.05,-696.18 185.39,-702.79 202,-720 251.11,-770.89 200.8,-814.85 238,-875 247.51,-890.38 262.26,-903.71 276.08,-913.96"/>
<polygon fill="#7d8597" stroke="#7d8597" points="273.99,-916.77 284.18,-919.67 278.02,-911.04 273.99,-916.77"/>
</g>
<!-- tests.support&#45;&gt;environment -->
<g id="edge61" class="edge">
<title>tests.support&#45;&gt;environment</title>
<path fill="none" stroke="#7d8597" stroke-dasharray="5,2" d="M137.95,-692.57C159.58,-690.32 185.94,-683.72 202,-666 267.34,-593.87 175.87,-524.91 238,-450 245.37,-441.11 255.94,-435.15 266.78,-431.15"/>
<polygon fill="#7d8597" stroke="#7d8597" points="267.66,-434.54 276.16,-428.22 265.57,-427.86 267.66,-434.54"/>
</g>
<!-- tests.training -->
<g id="node60" class="node">
<title>tests.training</title>
<polygon fill="#d9eaf4" stroke="#0b3954" points="137.12,-2439 134.12,-2443 113.12,-2443 110.12,-2439 64.88,-2439 64.88,-2403 137.12,-2403 137.12,-2439"/>
<text text-anchor="middle" x="101" y="-2417.12" font-family="Helvetica,sans-Serif" font-size="10.00">tests.training</text>
</g>
<!-- tests.training.test_trainer_construction -->
<g id="node61" class="node">
<title>tests.training.test_trainer_construction</title>
<path fill="#ece4ff" stroke="#5e548e" d="M180.25,-981C180.25,-981 21.75,-981 21.75,-981 15.75,-981 9.75,-975 9.75,-969 9.75,-969 9.75,-957 9.75,-957 9.75,-951 15.75,-945 21.75,-945 21.75,-945 180.25,-945 180.25,-945 186.25,-945 192.25,-951 192.25,-957 192.25,-957 192.25,-969 192.25,-969 192.25,-975 186.25,-981 180.25,-981"/>
<text text-anchor="middle" x="101" y="-959.12" font-family="Helvetica,sans-Serif" font-size="10.00">tests.training.test_trainer_construction</text>
</g>
<!-- tests.training.test_trainer_construction&#45;&gt;config -->
<g id="edge62" class="edge">
<title>tests.training.test_trainer_construction&#45;&gt;config</title>
<path fill="none" stroke="#7d8597" stroke-dasharray="5,2" d="M192.45,-951.35C221.15,-947.66 251.31,-943.78 274.12,-940.84"/>
<polygon fill="#7d8597" stroke="#7d8597" points="274.36,-944.34 283.83,-939.59 273.47,-937.39 274.36,-944.34"/>
</g>
<!-- tests.training.test_trainer_construction&#45;&gt;data.datamodule -->
<g id="edge63" class="edge">
<title>tests.training.test_trainer_construction&#45;&gt;data.datamodule</title>
<path fill="none" stroke="#7d8597" stroke-dasharray="5,2" d="M192.46,-981.39C195.92,-983.92 199.13,-986.78 202,-990 274.57,-1071.57 181.61,-1139.51 238,-1233 244.98,-1244.57 255.47,-1254.41 266.36,-1262.4"/>
<polygon fill="#7d8597" stroke="#7d8597" points="264.06,-1265.07 274.29,-1267.82 268.01,-1259.29 264.06,-1265.07"/>
</g>
<!-- tests.training.test_trainer_construction&#45;&gt;observability -->
<g id="edge64" class="edge">
<title>tests.training.test_trainer_construction&#45;&gt;observability</title>
<path fill="none" stroke="#7d8597" stroke-dasharray="5,2" d="M182.27,-944.53C189.08,-942.01 195.75,-939.18 202,-936 210.78,-931.54 252.05,-897.76 281.38,-873.38"/>
<polygon fill="#7d8597" stroke="#7d8597" points="283.45,-876.22 288.89,-867.13 278.97,-870.84 283.45,-876.22"/>
</g>
<!-- train -->
<g id="node69" class="node">
<title>train</title>
<path fill="#e8f5e9" stroke="#2d6a4f" d="M327.7,-549C327.7,-549 297.7,-549 297.7,-549 291.7,-549 285.7,-543 285.7,-537 285.7,-537 285.7,-525 285.7,-525 285.7,-519 291.7,-513 297.7,-513 297.7,-513 327.7,-513 327.7,-513 333.7,-513 339.7,-519 339.7,-525 339.7,-525 339.7,-537 339.7,-537 339.7,-543 333.7,-549 327.7,-549"/>
<text text-anchor="middle" x="312.7" y="-527.12" font-family="Helvetica,sans-Serif" font-size="10.00">train</text>
</g>
<!-- tests.training.test_trainer_construction&#45;&gt;train -->
<g id="edge65" class="edge">
<title>tests.training.test_trainer_construction&#45;&gt;train</title>
<path fill="none" stroke="#7d8597" stroke-dasharray="5,2" d="M192.67,-944.79C196.08,-942.22 199.22,-939.3 202,-936 256.42,-871.52 186.45,-624.8 238,-558 246.78,-546.62 260.84,-540.04 274.33,-536.23"/>
<polygon fill="#7d8597" stroke="#7d8597" points="274.99,-539.67 283.93,-533.98 273.4,-532.85 274.99,-539.67"/>
</g>
<!-- tests.training.test_trainer_execution -->
<g id="node62" class="node">
<title>tests.training.test_trainer_execution</title>
<path fill="#ece4ff" stroke="#5e548e" d="M174.62,-765C174.62,-765 27.38,-765 27.38,-765 21.38,-765 15.38,-759 15.38,-753 15.38,-753 15.38,-741 15.38,-741 15.38,-735 21.38,-729 27.38,-729 27.38,-729 174.62,-729 174.62,-729 180.62,-729 186.62,-735 186.62,-741 186.62,-741 186.62,-753 186.62,-753 186.62,-759 180.62,-765 174.62,-765"/>
<text text-anchor="middle" x="101" y="-743.12" font-family="Helvetica,sans-Serif" font-size="10.00">tests.training.test_trainer_execution</text>
</g>
<!-- tests.training.test_trainer_execution&#45;&gt;config -->
<g id="edge66" class="edge">
<title>tests.training.test_trainer_execution&#45;&gt;config</title>
<path fill="none" stroke="#7d8597" stroke-dasharray="5,2" d="M187.05,-763.34C192.45,-766.33 197.51,-769.85 202,-774 237,-806.35 210.66,-835.96 238,-875 248.22,-889.59 262.81,-902.66 276.32,-912.93"/>
<polygon fill="#7d8597" stroke="#7d8597" points="274.06,-915.62 284.21,-918.68 278.19,-909.96 274.06,-915.62"/>
</g>
<!-- tests.training.test_trainer_execution&#45;&gt;data.datamodule -->
<g id="edge67" class="edge">
<title>tests.training.test_trainer_execution&#45;&gt;data.datamodule</title>
<path fill="none" stroke="#7d8597" stroke-dasharray="5,2" d="M187.01,-761.23C192.64,-764.68 197.75,-768.88 202,-774 267.34,-852.73 188.2,-1143.63 238,-1233 244.45,-1244.57 254.54,-1254.34 265.2,-1262.26"/>
<polygon fill="#7d8597" stroke="#7d8597" points="263.17,-1265.11 273.4,-1267.87 267.13,-1259.33 263.17,-1265.11"/>
</g>
<!-- tests.training.test_trainer_execution&#45;&gt;models.fused_model -->
<g id="edge68" class="edge">
<title>tests.training.test_trainer_execution&#45;&gt;models.fused_model</title>
<path fill="none" stroke="#7d8597" stroke-dasharray="5,2" d="M186.99,-732.08C192.55,-728.78 197.65,-724.8 202,-720 267.34,-647.87 175.87,-578.91 238,-504 241.27,-500.06 245.17,-496.69 249.44,-493.82"/>
<polygon fill="#7d8597" stroke="#7d8597" points="250.97,-496.97 257.97,-489.02 247.53,-490.87 250.97,-496.97"/>
</g>
<!-- tests.training.test_trainer_execution&#45;&gt;train -->
<g id="edge69" class="edge">
<title>tests.training.test_trainer_execution&#45;&gt;train</title>
<path fill="none" stroke="#7d8597" stroke-dasharray="5,2" d="M186.71,-731.82C192.33,-728.58 197.53,-724.68 202,-720 252.97,-666.69 189.41,-613.49 238,-558 247.33,-547.35 261.22,-540.89 274.45,-536.99"/>
<polygon fill="#7d8597" stroke="#7d8597" points="274.96,-540.46 283.81,-534.63 273.26,-533.68 274.96,-540.46"/>
</g>
<!-- tests.workflows -->
<g id="node63" class="node">
<title>tests.workflows</title>
<polygon fill="#d9eaf4" stroke="#0b3954" points="143.5,-2493 140.5,-2497 119.5,-2497 116.5,-2493 58.5,-2493 58.5,-2457 143.5,-2457 143.5,-2493"/>
<text text-anchor="middle" x="101" y="-2471.12" font-family="Helvetica,sans-Serif" font-size="10.00">tests.workflows</text>
</g>
<!-- tests.workflows.test_benchmark_workflow -->
<g id="node64" class="node">
<title>tests.workflows.test_benchmark_workflow</title>
<path fill="#ece4ff" stroke="#5e548e" d="M190,-441C190,-441 12,-441 12,-441 6,-441 0,-435 0,-429 0,-429 0,-417 0,-417 0,-411 6,-405 12,-405 12,-405 190,-405 190,-405 196,-405 202,-411 202,-417 202,-417 202,-429 202,-429 202,-435 196,-441 190,-441"/>
<text text-anchor="middle" x="101" y="-419.12" font-family="Helvetica,sans-Serif" font-size="10.00">tests.workflows.test_benchmark_workflow</text>
</g>
<!-- tests.workflows.test_benchmark_workflow&#45;&gt;defaults -->
<g id="edge70" class="edge">
<title>tests.workflows.test_benchmark_workflow&#45;&gt;defaults</title>
<path fill="none" stroke="#7d8597" stroke-dasharray="5,2" d="M189.57,-404.69C193.99,-402.16 198.18,-399.28 202,-396 231.92,-370.38 209.22,-341.91 238,-315 248.08,-305.57 261.73,-299.37 274.54,-295.33"/>
<polygon fill="#7d8597" stroke="#7d8597" points="275.31,-298.75 284.01,-292.71 273.44,-292 275.31,-298.75"/>
</g>
<!-- tests.workflows.test_benchmark_workflow&#45;&gt;environment -->
<g id="edge71" class="edge">
<title>tests.workflows.test_benchmark_workflow&#45;&gt;environment</title>
<path fill="none" stroke="#7d8597" stroke-dasharray="5,2" d="M202.24,-423C224.64,-423 247.31,-423 266.17,-423"/>
<polygon fill="#7d8597" stroke="#7d8597" points="266.16,-426.5 276.16,-423 266.16,-419.5 266.16,-426.5"/>
</g>
<!-- tests.workflows.test_benchmark_workflow&#45;&gt;models.fused_model -->
<g id="edge72" class="edge">
<title>tests.workflows.test_benchmark_workflow&#45;&gt;models.fused_model</title>
<path fill="none" stroke="#7d8597" stroke-dasharray="5,2" d="M173.58,-441.43C197.86,-447.68 224.79,-454.62 248.37,-460.69"/>
<polygon fill="#7d8597" stroke="#7d8597" points="247.28,-464.03 257.84,-463.13 249.03,-457.25 247.28,-464.03"/>
</g>
<!-- tests.workflows.test_benchmark_workflow&#45;&gt;train -->
<g id="edge73" class="edge">
<title>tests.workflows.test_benchmark_workflow&#45;&gt;train</title>
<path fill="none" stroke="#7d8597" stroke-dasharray="5,2" d="M187.47,-441.37C192.58,-443.88 197.47,-446.75 202,-450 225.42,-466.84 215.34,-486.16 238,-504 248.68,-512.41 262.23,-518.37 274.79,-522.5"/>
<polygon fill="#7d8597" stroke="#7d8597" points="273.45,-525.75 284.03,-525.26 275.45,-519.05 273.45,-525.75"/>
</g>
<!-- workflows.training -->
<g id="node73" class="node">
<title>workflows.training</title>
<path fill="#e8f5e9" stroke="#2d6a4f" d="M348.08,-360C348.08,-360 277.33,-360 277.33,-360 271.33,-360 265.33,-354 265.33,-348 265.33,-348 265.33,-336 265.33,-336 265.33,-330 271.33,-324 277.33,-324 277.33,-324 348.08,-324 348.08,-324 354.08,-324 360.08,-330 360.08,-336 360.08,-336 360.08,-348 360.08,-348 360.08,-354 354.08,-360 348.08,-360"/>
<text text-anchor="middle" x="312.7" y="-338.12" font-family="Helvetica,sans-Serif" font-size="10.00">workflows.training</text>
</g>
<!-- tests.workflows.test_benchmark_workflow&#45;&gt;workflows.training -->
<g id="edge74" class="edge">
<title>tests.workflows.test_benchmark_workflow&#45;&gt;workflows.training</title>
<path fill="none" stroke="#7d8597" stroke-dasharray="5,2" d="M176.78,-404.52C185.36,-401.9 193.92,-399.05 202,-396 224.67,-387.45 248.92,-375.8 268.85,-365.5"/>
<polygon fill="#7d8597" stroke="#7d8597" points="270.27,-368.71 277.5,-360.97 267.02,-362.51 270.27,-368.71"/>
</g>
<!-- tests.workflows.test_cli -->
<g id="node65" class="node">
<title>tests.workflows.test_cli</title>
<path fill="#ece4ff" stroke="#5e548e" d="M148.75,-387C148.75,-387 53.25,-387 53.25,-387 47.25,-387 41.25,-381 41.25,-375 41.25,-375 41.25,-363 41.25,-363 41.25,-357 47.25,-351 53.25,-351 53.25,-351 148.75,-351 148.75,-351 154.75,-351 160.75,-357 160.75,-363 160.75,-363 160.75,-375 160.75,-375 160.75,-381 154.75,-387 148.75,-387"/>
<text text-anchor="middle" x="101" y="-365.12" font-family="Helvetica,sans-Serif" font-size="10.00">tests.workflows.test_cli</text>
</g>
<!-- tests.workflows.test_cli&#45;&gt;config -->
<g id="edge75" class="edge">
<title>tests.workflows.test_cli&#45;&gt;config</title>
<path fill="none" stroke="#7d8597" stroke-dasharray="5,2" d="M161.12,-372.73C176.61,-376.65 191.8,-383.67 202,-396 270.03,-478.25 188.97,-780.18 238,-875 246.57,-891.58 261.82,-905.36 276.24,-915.6"/>
<polygon fill="#7d8597" stroke="#7d8597" points="273.99,-918.31 284.25,-920.97 277.89,-912.5 273.99,-918.31"/>
</g>
<!-- tests.workflows.test_cli&#45;&gt;environment -->
<g id="edge76" class="edge">
<title>tests.workflows.test_cli&#45;&gt;environment</title>
<path fill="none" stroke="#7d8597" stroke-dasharray="5,2" d="M160.97,-384.19C194.53,-392.83 235.89,-403.48 266.79,-411.44"/>
<polygon fill="#7d8597" stroke="#7d8597" points="265.65,-414.75 276.2,-413.86 267.39,-407.98 265.65,-414.75"/>
</g>
<!-- workflows.cli -->
<g id="node71" class="node">
<title>workflows.cli</title>
<path fill="#e8f5e9" stroke="#2d6a4f" d="M337.2,-252C337.2,-252 288.2,-252 288.2,-252 282.2,-252 276.2,-246 276.2,-240 276.2,-240 276.2,-228 276.2,-228 276.2,-222 282.2,-216 288.2,-216 288.2,-216 337.2,-216 337.2,-216 343.2,-216 349.2,-222 349.2,-228 349.2,-228 349.2,-240 349.2,-240 349.2,-246 343.2,-252 337.2,-252"/>
<text text-anchor="middle" x="312.7" y="-230.12" font-family="Helvetica,sans-Serif" font-size="10.00">workflows.cli</text>
</g>
<!-- tests.workflows.test_cli&#45;&gt;workflows.cli -->
<g id="edge77" class="edge">
<title>tests.workflows.test_cli&#45;&gt;workflows.cli</title>
<path fill="none" stroke="#7d8597" stroke-dasharray="5,2" d="M161.23,-362.12C175.82,-358.11 190.53,-351.83 202,-342 231.92,-316.38 209.22,-287.91 238,-261 245.68,-253.82 255.41,-248.52 265.28,-244.61"/>
<polygon fill="#7d8597" stroke="#7d8597" points="266.21,-247.99 274.5,-241.4 263.91,-241.38 266.21,-247.99"/>
</g>
<!-- tests.workflows.test_entrypoint -->
<g id="node66" class="node">
<title>tests.workflows.test_entrypoint</title>
<path fill="#ece4ff" stroke="#5e548e" d="M165.25,-171C165.25,-171 36.75,-171 36.75,-171 30.75,-171 24.75,-165 24.75,-159 24.75,-159 24.75,-147 24.75,-147 24.75,-141 30.75,-135 36.75,-135 36.75,-135 165.25,-135 165.25,-135 171.25,-135 177.25,-141 177.25,-147 177.25,-147 177.25,-159 177.25,-159 177.25,-165 171.25,-171 165.25,-171"/>
<text text-anchor="middle" x="101" y="-149.12" font-family="Helvetica,sans-Serif" font-size="10.00">tests.workflows.test_entrypoint</text>
</g>
<!-- tests.workflows.test_entrypoint&#45;&gt;defaults -->
<g id="edge78" class="edge">
<title>tests.workflows.test_entrypoint&#45;&gt;defaults</title>
<path fill="none" stroke="#7d8597" stroke-dasharray="5,2" d="M177.51,-165.42C186.39,-169.1 194.83,-173.86 202,-180 231.92,-205.62 209.22,-234.09 238,-261 248.08,-270.43 261.73,-276.63 274.54,-280.67"/>
<polygon fill="#7d8597" stroke="#7d8597" points="273.44,-284 284.01,-283.29 275.31,-277.25 273.44,-284"/>
</g>
<!-- tests.workflows.test_entrypoint&#45;&gt;main -->
<g id="edge79" class="edge">
<title>tests.workflows.test_entrypoint&#45;&gt;main</title>
<path fill="none" stroke="#7d8597" stroke-dasharray="5,2" d="M177.71,-143.25C210.61,-139.02 247.68,-134.24 274.47,-130.79"/>
<polygon fill="#7d8597" stroke="#7d8597" points="274.67,-134.3 284.14,-129.55 273.78,-127.35 274.67,-134.3"/>
</g>
<!-- tests.workflows.test_entrypoint&#45;&gt;workflows.cli -->
<g id="edge80" class="edge">
<title>tests.workflows.test_entrypoint&#45;&gt;workflows.cli</title>
<path fill="none" stroke="#7d8597" stroke-dasharray="5,2" d="M177.67,-170.11C186.05,-172.97 194.32,-176.26 202,-180 219.98,-188.76 220.42,-197.46 238,-207 246.52,-211.63 256,-215.77 265.25,-219.33"/>
<polygon fill="#7d8597" stroke="#7d8597" points="263.91,-222.57 274.5,-222.73 266.32,-216 263.91,-222.57"/>
</g>
<!-- workflows.helpers -->
<g id="node72" class="node">
<title>workflows.helpers</title>
<path fill="#e8f5e9" stroke="#2d6a4f" d="M348.08,-198C348.08,-198 277.33,-198 277.33,-198 271.33,-198 265.33,-192 265.33,-186 265.33,-186 265.33,-174 265.33,-174 265.33,-168 271.33,-162 277.33,-162 277.33,-162 348.08,-162 348.08,-162 354.08,-162 360.08,-168 360.08,-174 360.08,-174 360.08,-186 360.08,-186 360.08,-192 354.08,-198 348.08,-198"/>
<text text-anchor="middle" x="312.7" y="-176.12" font-family="Helvetica,sans-Serif" font-size="10.00">workflows.helpers</text>
</g>
<!-- tests.workflows.test_entrypoint&#45;&gt;workflows.helpers -->
<g id="edge81" class="edge">
<title>tests.workflows.test_entrypoint&#45;&gt;workflows.helpers</title>
<path fill="none" stroke="#7d8597" stroke-dasharray="5,2" d="M177.71,-162.75C202.81,-165.98 230.34,-169.52 253.87,-172.55"/>
<polygon fill="#7d8597" stroke="#7d8597" points="253.21,-176 263.58,-173.8 254.11,-169.06 253.21,-176"/>
</g>
<!-- tests.workflows.test_entrypoint&#45;&gt;workflows.training -->
<g id="edge82" class="edge">
<title>tests.workflows.test_entrypoint&#45;&gt;workflows.training</title>
<path fill="none" stroke="#7d8597" stroke-dasharray="5,2" d="M177.72,-164.06C186.73,-167.95 195.14,-173.12 202,-180 245.84,-223.98 196.12,-269.15 238,-315 242.76,-320.22 248.62,-324.43 254.93,-327.83"/>
<polygon fill="#7d8597" stroke="#7d8597" points="253.21,-330.89 263.76,-331.89 256.14,-324.53 253.21,-330.89"/>
</g>
<!-- tests.workflows.test_helpers -->
<g id="node67" class="node">
<title>tests.workflows.test_helpers</title>
<path fill="#ece4ff" stroke="#5e548e" d="M159.62,-225C159.62,-225 42.38,-225 42.38,-225 36.38,-225 30.38,-219 30.38,-213 30.38,-213 30.38,-201 30.38,-201 30.38,-195 36.38,-189 42.38,-189 42.38,-189 159.62,-189 159.62,-189 165.62,-189 171.62,-195 171.62,-201 171.62,-201 171.62,-213 171.62,-213 171.62,-219 165.62,-225 159.62,-225"/>
<text text-anchor="middle" x="101" y="-203.12" font-family="Helvetica,sans-Serif" font-size="10.00">tests.workflows.test_helpers</text>
</g>
<!-- tests.workflows.test_helpers&#45;&gt;config -->
<g id="edge83" class="edge">
<title>tests.workflows.test_helpers&#45;&gt;config</title>
<path fill="none" stroke="#7d8597" stroke-dasharray="5,2" d="M172.12,-213.93C183.63,-218.15 194.3,-224.5 202,-234 291.89,-344.79 173.67,-747.66 238,-875 246.42,-891.66 261.65,-905.45 276.09,-915.68"/>
<polygon fill="#7d8597" stroke="#7d8597" points="273.86,-918.4 284.12,-921.04 277.75,-912.58 273.86,-918.4"/>
</g>
<!-- tests.workflows.test_helpers&#45;&gt;workflows.cli -->
<g id="edge84" class="edge">
<title>tests.workflows.test_helpers&#45;&gt;workflows.cli</title>
<path fill="none" stroke="#7d8597" stroke-dasharray="5,2" d="M172.12,-216.03C202.54,-219.95 237.36,-224.43 264.61,-227.94"/>
<polygon fill="#7d8597" stroke="#7d8597" points="263.93,-231.38 274.29,-229.18 264.82,-224.43 263.93,-231.38"/>
</g>
<!-- tests.workflows.test_helpers&#45;&gt;workflows.helpers -->
<g id="edge85" class="edge">
<title>tests.workflows.test_helpers&#45;&gt;workflows.helpers</title>
<path fill="none" stroke="#7d8597" stroke-dasharray="5,2" d="M172.12,-197.97C198.66,-194.56 228.54,-190.71 253.82,-187.45"/>
<polygon fill="#7d8597" stroke="#7d8597" points="254.12,-190.94 263.59,-186.19 253.22,-184 254.12,-190.94"/>
</g>
<!-- tests.workflows.test_training_workflow -->
<g id="node68" class="node">
<title>tests.workflows.test_training_workflow</title>
<path fill="#ece4ff" stroke="#5e548e" d="M181.75,-333C181.75,-333 20.25,-333 20.25,-333 14.25,-333 8.25,-327 8.25,-321 8.25,-321 8.25,-309 8.25,-309 8.25,-303 14.25,-297 20.25,-297 20.25,-297 181.75,-297 181.75,-297 187.75,-297 193.75,-303 193.75,-309 193.75,-309 193.75,-321 193.75,-321 193.75,-327 187.75,-333 181.75,-333"/>
<text text-anchor="middle" x="101" y="-311.12" font-family="Helvetica,sans-Serif" font-size="10.00">tests.workflows.test_training_workflow</text>
</g>
<!-- tests.workflows.test_training_workflow&#45;&gt;defaults -->
<g id="edge86" class="edge">
<title>tests.workflows.test_training_workflow&#45;&gt;defaults</title>
<path fill="none" stroke="#7d8597" stroke-dasharray="5,2" d="M193.98,-303.16C222.15,-299.53 251.58,-295.74 273.97,-292.86"/>
<polygon fill="#7d8597" stroke="#7d8597" points="274.33,-296.34 283.81,-291.59 273.44,-289.4 274.33,-296.34"/>
</g>
<!-- tests.workflows.test_training_workflow&#45;&gt;environment -->
<g id="edge87" class="edge">
<title>tests.workflows.test_training_workflow&#45;&gt;environment</title>
<path fill="none" stroke="#7d8597" stroke-dasharray="5,2" d="M181.63,-333.5C188.65,-336.02 195.53,-338.85 202,-342 219.98,-350.76 221.93,-357.09 238,-369 250.79,-378.48 264.89,-388.84 277.3,-397.92"/>
<polygon fill="#7d8597" stroke="#7d8597" points="275.05,-400.61 285.19,-403.68 279.18,-394.95 275.05,-400.61"/>
</g>
<!-- tests.workflows.test_training_workflow&#45;&gt;models.fused_model -->
<g id="edge88" class="edge">
<title>tests.workflows.test_training_workflow&#45;&gt;models.fused_model</title>
<path fill="none" stroke="#7d8597" stroke-dasharray="5,2" d="M190.88,-333.45C194.86,-335.96 198.6,-338.79 202,-342 238.8,-376.72 202.75,-413.7 238,-450 241.36,-453.46 245.21,-456.49 249.34,-459.12"/>
<polygon fill="#7d8597" stroke="#7d8597" points="247.61,-462.17 258.06,-463.88 250.96,-456.02 247.61,-462.17"/>
</g>
<!-- tests.workflows.test_training_workflow&#45;&gt;reporting -->
<g id="edge89" class="edge">
<title>tests.workflows.test_training_workflow&#45;&gt;reporting</title>
<path fill="none" stroke="#7d8597" stroke-dasharray="5,2" d="M191.86,-296.77C195.53,-294.21 198.94,-291.3 202,-288 260.14,-225.3 182.66,-164.18 238,-99 247.23,-88.13 261.24,-81.63 274.57,-77.75"/>
<polygon fill="#7d8597" stroke="#7d8597" points="275.15,-81.21 284.02,-75.43 273.48,-74.41 275.15,-81.21"/>
</g>
<!-- tests.workflows.test_training_workflow&#45;&gt;train -->
<g id="edge90" class="edge">
<title>tests.workflows.test_training_workflow&#45;&gt;train</title>
<path fill="none" stroke="#7d8597" stroke-dasharray="5,2" d="M191.74,-333.34C195.44,-335.88 198.89,-338.75 202,-342 252.97,-395.31 189.41,-448.51 238,-504 247.33,-514.65 261.22,-521.11 274.45,-525.01"/>
<polygon fill="#7d8597" stroke="#7d8597" points="273.26,-528.32 283.81,-527.37 274.96,-521.54 273.26,-528.32"/>
</g>
<!-- tests.workflows.test_training_workflow&#45;&gt;workflows.training -->
<g id="edge91" class="edge">
<title>tests.workflows.test_training_workflow&#45;&gt;workflows.training</title>
<path fill="none" stroke="#7d8597" stroke-dasharray="5,2" d="M193.98,-326.84C214.3,-329.46 235.28,-332.16 253.79,-334.54"/>
<polygon fill="#7d8597" stroke="#7d8597" points="253.11,-337.99 263.48,-335.79 254.01,-331.04 253.11,-337.99"/>
</g>
</g>
</svg>
