<?xml version="1.0" encoding="UTF-8" standalone="no"?>
<!DOCTYPE svg PUBLIC "-//W3C//DTD SVG 1.1//EN"
 "http://www.w3.org/Graphics/SVG/1.1/DTD/svg11.dtd">
<!-- Generated by graphviz version 12.2.1 (20241206.2353)
 -->
<!-- Title: dependencies Pages: 1 -->
<svg width="737pt" height="445pt"
 viewBox="0.00 0.00 736.50 445.00" xmlns="http://www.w3.org/2000/svg" xmlns:xlink="http://www.w3.org/1999/xlink">
<g id="graph0" class="graph" transform="scale(1 1) rotate(0) translate(4 441)">
<title>dependencies</title>
<polygon fill="white" stroke="none" points="-4,4 -4,-441 732.5,-441 732.5,4 -4,4"/>
<text text-anchor="middle" x="364.25" y="-419.7" font-family="Helvetica,sans-Serif" font-size="14.00">Package Dependency Graph</text>
<!-- config -->
<g id="node1" class="node">
<title>config</title>
<polygon fill="#d9eaf4" stroke="#0b3954" points="635.38,-240 632.38,-244 611.38,-244 608.38,-240 581.38,-240 581.38,-204 635.38,-204 635.38,-240"/>
<text text-anchor="middle" x="608.38" y="-218.12" font-family="Helvetica,sans-Serif" font-size="10.00">config</text>
</g>
<!-- utils -->
<g id="node11" class="node">
<title>utils</title>
<polygon fill="#d9eaf4" stroke="#0b3954" points="728.5,-110 725.5,-114 704.5,-114 701.5,-110 674.5,-110 674.5,-74 728.5,-74 728.5,-110"/>
<text text-anchor="middle" x="701.5" y="-88.12" font-family="Helvetica,sans-Serif" font-size="10.00">utils</text>
</g>
<!-- config&#45;&gt;utils -->
<g id="edge1" class="edge">
<title>config&#45;&gt;utils</title>
<path fill="none" stroke="#7d8597" d="M622.24,-203.65C637.57,-181.78 663.34,-145.01 681.1,-119.68"/>
<polygon fill="#7d8597" stroke="#7d8597" points="683.96,-121.69 686.83,-111.5 678.23,-117.68 683.96,-121.69"/>
</g>
<!-- data -->
<g id="node2" class="node">
<title>data</title>
<polygon fill="#d9eaf4" stroke="#0b3954" points="443.88,-64 440.88,-68 419.88,-68 416.88,-64 389.88,-64 389.88,-28 443.88,-28 443.88,-64"/>
<text text-anchor="middle" x="416.88" y="-42.12" font-family="Helvetica,sans-Serif" font-size="10.00">data</text>
</g>
<!-- data&#45;&gt;config -->
<g id="edge2" class="edge">
<title>data&#45;&gt;config</title>
<path fill="none" stroke="#7d8597" d="M444.31,-54.85C471.45,-64.98 513.67,-83.78 542.25,-111 566.81,-134.38 585.13,-169.05 595.99,-193.4"/>
<polygon fill="#7d8597" stroke="#7d8597" points="592.69,-194.59 599.85,-202.4 599.12,-191.83 592.69,-194.59"/>
</g>
<!-- data&#45;&gt;utils -->
<g id="edge3" class="edge">
<title>data&#45;&gt;utils</title>
<path fill="none" stroke="#7d8597" d="M444.14,-45.54C485.95,-45.41 569.93,-47.61 638.5,-65 646.89,-67.13 655.58,-70.27 663.72,-73.66"/>
<polygon fill="#7d8597" stroke="#7d8597" points="662.06,-76.76 672.63,-77.59 664.89,-70.35 662.06,-76.76"/>
</g>
<!-- defaults -->
<g id="node3" class="node">
<title>defaults</title>
<path fill="#f4d35e" stroke="#7f6000" d="M228.25,-414C228.25,-414 198.25,-414 198.25,-414 192.25,-414 186.25,-408 186.25,-402 186.25,-402 186.25,-390 186.25,-390 186.25,-384 192.25,-378 198.25,-378 198.25,-378 228.25,-378 228.25,-378 234.25,-378 240.25,-384 240.25,-390 240.25,-390 240.25,-402 240.25,-402 240.25,-408 234.25,-414 228.25,-414"/>
<text text-anchor="middle" x="213.25" y="-392.12" font-family="Helvetica,sans-Serif" font-size="10.00">defaults</text>
</g>
<!-- defaults&#45;&gt;config -->
<g id="edge4" class="edge">
<title>defaults&#45;&gt;config</title>
<path fill="none" stroke="#7d8597" d="M240.64,-401.76C300.55,-413.23 448.85,-432.49 542.25,-366 580.04,-339.1 596.32,-284.92 603.02,-251.23"/>
<polygon fill="#7d8597" stroke="#7d8597" points="606.4,-252.2 604.74,-241.74 599.51,-250.95 606.4,-252.2"/>
</g>
<!-- environment -->
<g id="node4" class="node">
<title>environment</title>
<polygon fill="#d9eaf4" stroke="#0b3954" points="345.5,-324 342.5,-328 321.5,-328 318.5,-324 276.25,-324 276.25,-288 345.5,-288 345.5,-324"/>
<text text-anchor="middle" x="310.88" y="-302.12" font-family="Helvetica,sans-Serif" font-size="10.00">environment</text>
</g>
<!-- environment&#45;&gt;config -->
<g id="edge5" class="edge">
<title>environment&#45;&gt;config</title>
<path fill="none" stroke="#7d8597" d="M345.78,-306.8C392.07,-306.69 476.77,-302.14 542.25,-274 556.51,-267.87 570.26,-257.74 581.42,-248.04"/>
<polygon fill="#7d8597" stroke="#7d8597" points="583.62,-250.78 588.66,-241.46 578.91,-245.6 583.62,-250.78"/>
</g>
<!-- evaluation -->
<g id="node5" class="node">
<title>evaluation</title>
<polygon fill="#d9eaf4" stroke="#0b3954" points="638.5,-110 635.5,-114 614.5,-114 611.5,-110 578.25,-110 578.25,-74 638.5,-74 638.5,-110"/>
<text text-anchor="middle" x="608.38" y="-88.12" font-family="Helvetica,sans-Serif" font-size="10.00">evaluation</text>
</g>
<!-- main -->
<g id="node6" class="node">
<title>main</title>
<path fill="#f4d35e" stroke="#7f6000" d="M42,-296C42,-296 12,-296 12,-296 6,-296 0,-290 0,-284 0,-284 0,-272 0,-272 0,-266 6,-260 12,-260 12,-260 42,-260 42,-260 48,-260 54,-266 54,-272 54,-272 54,-284 54,-284 54,-290 48,-296 42,-296"/>
<text text-anchor="middle" x="27" y="-274.12" font-family="Helvetica,sans-Serif" font-size="10.00">main</text>
</g>
<!-- main&#45;&gt;defaults -->
<g id="edge6" class="edge">
<title>main&#45;&gt;defaults</title>
<path fill="none" stroke="#7d8597" d="M54.4,-294.91C86.41,-315.41 140.53,-350.07 176.32,-372.99"/>
<polygon fill="#7d8597" stroke="#7d8597" points="174.32,-375.86 184.63,-378.31 178.09,-369.97 174.32,-375.86"/>
</g>
<!-- workflows -->
<g id="node12" class="node">
<title>workflows</title>
<polygon fill="#d9eaf4" stroke="#0b3954" points="150.25,-273 147.25,-277 126.25,-277 123.25,-273 90,-273 90,-237 150.25,-237 150.25,-273"/>
<text text-anchor="middle" x="120.12" y="-251.12" font-family="Helvetica,sans-Serif" font-size="10.00">workflows</text>
</g>
<!-- main&#45;&gt;workflows -->
<g id="edge7" class="edge">
<title>main&#45;&gt;workflows</title>
<path fill="none" stroke="#7d8597" d="M54.36,-271.35C61.95,-269.43 70.41,-267.3 78.64,-265.22"/>
<polygon fill="#7d8597" stroke="#7d8597" points="79.32,-268.66 88.16,-262.82 77.61,-261.87 79.32,-268.66"/>
</g>
<!-- models -->
<g id="node7" class="node">
<title>models</title>
<polygon fill="#d9eaf4" stroke="#0b3954" points="337.88,-232 334.88,-236 313.88,-236 310.88,-232 283.88,-232 283.88,-196 337.88,-196 337.88,-232"/>
<text text-anchor="middle" x="310.88" y="-210.12" font-family="Helvetica,sans-Serif" font-size="10.00">models</text>
</g>
<!-- models&#45;&gt;config -->
<g id="edge8" class="edge">
<title>models&#45;&gt;config</title>
<path fill="none" stroke="#7d8597" d="M338.36,-214.72C391.08,-216.14 509.31,-219.35 569.95,-220.99"/>
<polygon fill="#7d8597" stroke="#7d8597" points="569.66,-224.48 579.76,-221.25 569.85,-217.48 569.66,-224.48"/>
</g>
<!-- models&#45;&gt;evaluation -->
<g id="edge9" class="edge">
<title>models&#45;&gt;evaluation</title>
<path fill="none" stroke="#7d8597" d="M327.7,-195.55C340.86,-181.19 360.73,-161.63 381.5,-149 439.63,-113.64 518.91,-100.14 566.44,-95.04"/>
<polygon fill="#7d8597" stroke="#7d8597" points="566.69,-98.53 576.3,-94.06 566,-91.56 566.69,-98.53"/>
</g>
<!-- observability -->
<g id="node8" class="node">
<title>observability</title>
<polygon fill="#d9eaf4" stroke="#0b3954" points="452.25,-194 449.25,-198 428.25,-198 425.25,-194 381.5,-194 381.5,-158 452.25,-158 452.25,-194"/>
<text text-anchor="middle" x="416.88" y="-172.12" font-family="Helvetica,sans-Serif" font-size="10.00">observability</text>
</g>
<!-- models&#45;&gt;observability -->
<g id="edge10" class="edge">
<title>models&#45;&gt;observability</title>
<path fill="none" stroke="#7d8597" d="M338.12,-204.41C348.06,-200.78 359.68,-196.53 370.86,-192.45"/>
<polygon fill="#7d8597" stroke="#7d8597" points="371.77,-195.84 379.96,-189.12 369.36,-189.27 371.77,-195.84"/>
</g>
<!-- observability&#45;&gt;config -->
<g id="edge11" class="edge">
<title>observability&#45;&gt;config</title>
<path fill="none" stroke="#7d8597" d="M452.63,-184.44C485.94,-192.52 536.06,-204.69 570.17,-212.97"/>
<polygon fill="#7d8597" stroke="#7d8597" points="569.06,-216.3 579.6,-215.26 570.71,-209.5 569.06,-216.3"/>
</g>
<!-- reporting -->
<g id="node9" class="node">
<title>reporting</title>
<polygon fill="#d9eaf4" stroke="#0b3954" points="542.25,-156 539.25,-160 518.25,-160 515.25,-156 488.25,-156 488.25,-120 542.25,-120 542.25,-156"/>
<text text-anchor="middle" x="515.25" y="-134.12" font-family="Helvetica,sans-Serif" font-size="10.00">reporting</text>
</g>
<!-- observability&#45;&gt;reporting -->
<g id="edge12" class="edge">
<title>observability&#45;&gt;reporting</title>
<path fill="none" stroke="#7d8597" d="M448.63,-157.53C457.74,-153.49 467.81,-149.44 477.26,-146"/>
<polygon fill="#7d8597" stroke="#7d8597" points="478.27,-149.36 486.56,-142.76 475.97,-142.74 478.27,-149.36"/>
</g>
<!-- reporting&#45;&gt;config -->
<g id="edge13" class="edge">
<title>reporting&#45;&gt;config</title>
<path fill="none" stroke="#7d8597" d="M536.02,-156.23C548.59,-167.81 565.07,-183 579.02,-195.86"/>
<polygon fill="#7d8597" stroke="#7d8597" points="576.49,-198.29 586.21,-202.49 581.23,-193.14 576.49,-198.29"/>
</g>
<!-- reporting&#45;&gt;evaluation -->
<g id="edge14" class="edge">
<title>reporting&#45;&gt;evaluation</title>
<path fill="none" stroke="#7d8597" d="M542.61,-124.69C550.45,-120.73 559.23,-116.3 567.73,-112.01"/>
<polygon fill="#7d8597" stroke="#7d8597" points="569.18,-115.2 576.53,-107.57 566.02,-108.95 569.18,-115.2"/>
</g>
<!-- reporting&#45;&gt;observability -->
<g id="edge15" class="edge">
<title>reporting&#45;&gt;observability</title>
<path fill="none" stroke="#7d8597" d="M487.98,-154.45C480.33,-157.96 471.74,-161.56 463.26,-164.84"/>
<polygon fill="#7d8597" stroke="#7d8597" points="462.23,-161.49 454.09,-168.27 464.68,-168.05 462.23,-161.49"/>
</g>
<!-- train -->
<g id="node10" class="node">
<title>train</title>
<polygon fill="#d9eaf4" stroke="#0b3954" points="240.25,-250 237.25,-254 216.25,-254 213.25,-250 186.25,-250 186.25,-214 240.25,-214 240.25,-250"/>
<text text-anchor="middle" x="213.25" y="-228.12" font-family="Helvetica,sans-Serif" font-size="10.00">train</text>
</g>
<!-- train&#45;&gt;config -->
<g id="edge16" class="edge">
<title>train&#45;&gt;config</title>
<path fill="none" stroke="#7d8597" d="M240.71,-236.7C251.67,-238.42 264.53,-240.15 276.25,-241 345.37,-245.99 520.47,-235.27 542.25,-233 551.31,-232.05 561.02,-230.64 570.1,-229.13"/>
<polygon fill="#7d8597" stroke="#7d8597" points="570.43,-232.62 579.69,-227.46 569.24,-225.73 570.43,-232.62"/>
</g>
<!-- train&#45;&gt;data -->
<g id="edge17" class="edge">
<title>train&#45;&gt;data</title>
<path fill="none" stroke="#7d8597" d="M232.15,-213.54C244.38,-201.05 261.07,-184.3 276.25,-170 313.29,-135.09 357.42,-96.36 386,-71.62"/>
<polygon fill="#7d8597" stroke="#7d8597" points="388.28,-74.28 393.57,-65.1 383.71,-68.98 388.28,-74.28"/>
</g>
<!-- train&#45;&gt;environment -->
<g id="edge18" class="edge">
<title>train&#45;&gt;environment</title>
<path fill="none" stroke="#7d8597" d="M237.89,-250.29C249.73,-259.45 264.25,-270.69 277.14,-280.67"/>
<polygon fill="#7d8597" stroke="#7d8597" points="274.93,-283.38 284.98,-286.74 279.21,-277.85 274.93,-283.38"/>
</g>
<!-- train&#45;&gt;models -->
<g id="edge19" class="edge">
<title>train&#45;&gt;models</title>
<path fill="none" stroke="#7d8597" d="M240.63,-227.03C250.46,-225.18 261.8,-223.05 272.43,-221.05"/>
<polygon fill="#7d8597" stroke="#7d8597" points="272.91,-224.52 282.09,-219.23 271.62,-217.64 272.91,-224.52"/>
</g>
<!-- train&#45;&gt;observability -->
<g id="edge20" class="edge">
<title>train&#45;&gt;observability</title>
<path fill="none" stroke="#7d8597" d="M233.54,-213.69C245.02,-203.96 260.4,-192.84 276.25,-187 306.09,-176 341.9,-173.37 369.77,-173.43"/>
<polygon fill="#7d8597" stroke="#7d8597" points="369.63,-176.92 379.68,-173.58 369.74,-169.92 369.63,-176.92"/>
</g>
<!-- workflows&#45;&gt;config -->
<g id="edge21" class="edge">
<title>workflows&#45;&gt;config</title>
<path fill="none" stroke="#7d8597" d="M150.17,-273.5C161.27,-280.28 174.17,-287.8 186.25,-294 225.03,-313.91 233.56,-324.15 276.25,-333 306.39,-339.25 314.82,-335.43 345.5,-333 434.2,-325.98 465.66,-341.28 542.25,-296 561.53,-284.6 578.11,-265.53 589.72,-249.6"/>
<polygon fill="#7d8597" stroke="#7d8597" points="592.57,-251.63 595.42,-241.42 586.83,-247.62 592.57,-251.63"/>
</g>
<!-- workflows&#45;&gt;data -->
<g id="edge22" class="edge">
<title>workflows&#45;&gt;data</title>
<path fill="none" stroke="#7d8597" d="M124.67,-236.79C131.39,-207.13 148.8,-148.47 186.25,-116 241.38,-68.21 328.49,-53.04 378.06,-48.23"/>
<polygon fill="#7d8597" stroke="#7d8597" points="378.35,-51.72 388.01,-47.37 377.75,-44.75 378.35,-51.72"/>
</g>
<!-- workflows&#45;&gt;defaults -->
<g id="edge23" class="edge">
<title>workflows&#45;&gt;defaults</title>
<path fill="none" stroke="#7d8597" d="M130.96,-273.24C143.1,-295.3 164.77,-333.29 186.25,-364 187.35,-365.57 188.51,-367.17 189.69,-368.76"/>
<polygon fill="#7d8597" stroke="#7d8597" points="186.84,-370.79 195.73,-376.54 192.36,-366.5 186.84,-370.79"/>
</g>
<!-- workflows&#45;&gt;environment -->
<g id="edge24" class="edge">
<title>workflows&#45;&gt;environment</title>
<path fill="none" stroke="#7d8597" d="M150.62,-262.97C181.21,-271.24 229.44,-284.27 264.81,-293.82"/>
<polygon fill="#7d8597" stroke="#7d8597" points="263.78,-297.17 274.34,-296.4 265.6,-290.41 263.78,-297.17"/>
</g>
<!-- workflows&#45;&gt;evaluation -->
<g id="edge25" class="edge">
<title>workflows&#45;&gt;evaluation</title>
<path fill="none" stroke="#7d8597" d="M124,-236.76C130.14,-202.71 147.29,-128.54 186.25,-80 227.22,-28.96 244.43,0 309.88,0 309.88,0 309.88,0 417.88,0 479.14,0 541.38,-39.4 577.07,-66.63"/>
<polygon fill="#7d8597" stroke="#7d8597" points="574.76,-69.27 584.8,-72.67 579.07,-63.75 574.76,-69.27"/>
</g>
<!-- workflows&#45;&gt;reporting -->
<g id="edge26" class="edge">
<title>workflows&#45;&gt;reporting</title>
<path fill="none" stroke="#7d8597" d="M141.76,-236.71C154.07,-226.45 170.35,-213.95 186.25,-205 281.17,-151.55 412.91,-140.45 476.68,-138.34"/>
<polygon fill="#7d8597" stroke="#7d8597" points="476.72,-141.84 486.62,-138.08 476.53,-134.84 476.72,-141.84"/>
</g>
<!-- workflows&#45;&gt;train -->
<g id="edge27" class="edge">
<title>workflows&#45;&gt;train</title>
<path fill="none" stroke="#7d8597" d="M150.71,-247.53C158.41,-245.59 166.81,-243.47 174.85,-241.44"/>
<polygon fill="#7d8597" stroke="#7d8597" points="175.58,-244.87 184.42,-239.02 173.87,-238.08 175.58,-244.87"/>
</g>
</g>
</svg>
